<svg xmlns="http://www.w3.org/2000/svg" width="48.832" height="48.831" viewBox="0 0 48.832 48.831"><g transform="translate(-32 -32)"><path d="M56.416,32A24.416,24.416,0,1,0,80.831,56.416,24.416,24.416,0,0,0,56.416,32Zm0,2.442A21.974,21.974,0,1,1,34.442,56.416,21.974,21.974,0,0,1,56.416,34.442Z" fill="#fff"/><g transform="translate(40.22 42.778)"><g transform="translate(0 0)"><path d="M247.634,247.98a13.691,13.691,0,0,1,16.566-2.264,2.142,2.142,0,0,1-2.123,3.72l-.018-.011a9.363,9.363,0,0,0-14.044,8.107,2.142,2.142,0,1,1-4.283.048c0-.016,0-.032,0-.048a13.646,13.646,0,0,1,3.9-9.553Z" transform="translate(-241.181 -243.896)" fill="#fff"/><path d="M204.068,401.338a.536.536,0,0,1,.369.661.553.553,0,0,1-.14.245l-7.226,7.387a.538.538,0,0,1-.761-.06c-.046-.054-.081-.116-.124-.177l-2.562-10.01a.55.55,0,0,1,.376-.667.518.518,0,0,1,.278,0l9.789,2.623Z" transform="translate(-193.607 -390.823)" fill="#fff"/><path d="M374.259,481.154a13.691,13.691,0,0,1-16.566,2.264,2.142,2.142,0,0,1,2.123-3.72l.018.011a9.363,9.363,0,0,0,14.044-8.107,2.142,2.142,0,1,1,4.283-.048q0,.024,0,.048a13.645,13.645,0,0,1-3.9,9.553Z" transform="translate(-348.321 -457.963)" fill="#fff"/><path d="M617.487,416.209a.536.536,0,0,1-.369-.661.553.553,0,0,1,.14-.245l7.225-7.387a.539.539,0,0,1,.761.06c.046.054.081.116.124.177l2.562,10.01a.55.55,0,0,1-.376.667.518.518,0,0,1-.278,0l-9.789-2.623Z" transform="translate(-595.558 -399.449)" fill="#fff"/></g></g></g></svg>