<svg xmlns="http://www.w3.org/2000/svg" xmlns:xlink="http://www.w3.org/1999/xlink" width="60" height="60" viewBox="0 0 60 60"><defs><clipPath id="a"><rect width="60" height="60" fill="none"/></clipPath></defs><g clip-path="url(#a)"><path d="M0,30A30,30,0,1,1,30,60,30,30,0,0,1,0,30" stroke="none" /><path d="M126.7,122.852l8.356-8.356a1.325,1.325,0,0,0,0-1.874l-1.972-1.972a1.325,1.325,0,0,0-1.874,0l-8.356,8.356L114.5,110.65a1.325,1.325,0,0,0-1.874,0l-1.972,1.972a1.325,1.325,0,0,0,0,1.874l8.356,8.356-8.356,8.356a1.325,1.325,0,0,0,0,1.874l1.972,1.972a1.325,1.325,0,0,0,1.874,0l8.356-8.356,8.356,8.356a1.325,1.325,0,0,0,1.874,0l1.972-1.972a1.325,1.325,0,0,0,0-1.874Z" transform="translate(-92.852 -92.852)" fill="#fff" stroke="none" /></g></svg>