<?xml version="1.0" encoding="UTF-8"?><svg id="b" xmlns="http://www.w3.org/2000/svg" viewBox="0 0 27.3 37.54"><g id="c"><path d="M23.89,13.65h0v-3.41C23.89,4.58,19.3,0,13.65,0,7.99,0,3.41,4.58,3.41,10.24v3.41C1.53,13.65,0,15.18,0,17.06v17.07c0,1.88,1.53,3.41,3.41,3.41H23.89c1.88,0,3.41-1.53,3.41-3.41V17.06c0-1.88-1.53-3.41-3.41-3.41ZM13.65,3.41c3.77,0,6.82,3.06,6.83,6.83v3.41H6.83v-3.41c0-3.77,3.05-6.82,6.82-6.83Zm1.71,23.43v2.16c0,.94-.77,1.71-1.71,1.71-.94,0-1.71-.77-1.71-1.71v-2.16c-1.63-.94-2.18-3.03-1.24-4.66,.94-1.63,3.03-2.18,4.66-1.24s2.18,3.03,1.24,4.66c-.3,.51-.73,.94-1.24,1.24Z" stroke="none" /></g></svg>