<svg xmlns="http://www.w3.org/2000/svg" xmlns:xlink="http://www.w3.org/1999/xlink" width="101.149" height="40.163" viewBox="0 0 101.149 40.163">
  <defs>
    <style>
      .cls-1 {
        fill: #004c97;
      }

      .cls-2 {
        clip-path: url(#clip-path);
      }

      .cls-3 {
        fill: #111;
      }
    </style>
    <clipPath id="clip-path">
      <rect id="Rectangle_443" data-name="Rectangle 443" class="cls-1" width="101.149" height="40.163"/>
    </clipPath>
  </defs>
  <g id="logo-small" transform="translate(0 0)">
    <g id="Group_762" data-name="Group 762" class="cls-2" transform="translate(0 0)">
      <path id="Path_1059" data-name="Path 1059" class="cls-1" d="M9.222,9.9a1.534,1.534,0,0,1,1.069,1.407v17.96a4.171,4.171,0,0,1-1.53.437,18.524,18.524,0,0,1-1.967.1,6.491,6.491,0,0,1-2.547-.413A1.728,1.728,0,0,1,3.2,27.812Q3.154,26.7,3.13,25t-.025-4.465q0-3.009.049-6.407l-2.718-.1a2.583,2.583,0,0,1-.34-.9A5.472,5.472,0,0,1,0,12.086a2.135,2.135,0,0,1,1.286-2.015A10.327,10.327,0,0,1,5.63,9.417,9.474,9.474,0,0,1,9.222,9.9m.413-4.3A3.839,3.839,0,0,1,6.6,6.6a4.1,4.1,0,0,1-2.669-.727,3,3,0,0,1-.874-2.427A3.312,3.312,0,0,1,4.052.971,4.119,4.119,0,0,1,7.037,0,3.28,3.28,0,0,1,9.707.947,3.447,3.447,0,0,1,10.484,3.2a3.575,3.575,0,0,1-.85,2.4" transform="translate(0 0)"/>
      <path id="Path_1060" data-name="Path 1060" class="cls-1" d="M45.951,26.438a11.478,11.478,0,0,0-2.4-.7,13.828,13.828,0,0,0-2.4-.218,4.7,4.7,0,0,0-3.567,1.165q-1.093,1.163-1.093,4.077,0,3.009.995,4.125A4.337,4.337,0,0,0,40.854,36a12.476,12.476,0,0,0,5.29-1.214,1.906,1.906,0,0,1,1.165,1.02,3.27,3.27,0,0,1,.388,1.456,2.986,2.986,0,0,1-2.281,2.887A18.338,18.338,0,0,1,39.2,41q-5.144,0-7.571-2.257t-2.427-7.11a12.67,12.67,0,0,1,.85-4.805,9.189,9.189,0,0,1,2.451-3.495A10.782,10.782,0,0,1,36.341,21.2a16.07,16.07,0,0,1,5-.729,9.706,9.706,0,0,1,4.733.873,2.6,2.6,0,0,1,1.481,2.281,3.388,3.388,0,0,1-.413,1.7,2.761,2.761,0,0,1-1.19,1.117" transform="translate(-15.907 -11.149)"/>
      <path id="Path_1061" data-name="Path 1061" class="cls-1" d="M95.257,40.294a8.673,8.673,0,0,1-4.028.7,6.556,6.556,0,0,1-3.132-.607q-1.091-.606-1.091-2.742v-.777a4.5,4.5,0,0,1-2.281,3.156,9.536,9.536,0,0,1-4.564.97q-3.349,0-4.926-1.529a5.319,5.319,0,0,1-1.578-4,5.316,5.316,0,0,1,2.16-4.612q2.16-1.552,6.723-1.552,1.018,0,1.989.072t1.991.169V27.65a2.034,2.034,0,0,0-.681-1.892,4.924,4.924,0,0,0-2.573-.485,7.989,7.989,0,0,0-3.178.7A8.422,8.422,0,0,0,77.444,27.7a2.878,2.878,0,0,1-2.232-.922,3.1,3.1,0,0,1-.632-1.942,2.582,2.582,0,0,1,.606-1.6,5.384,5.384,0,0,1,1.87-1.407,12.276,12.276,0,0,1,3.13-1,23.563,23.563,0,0,1,4.441-.365,14.969,14.969,0,0,1,3.666.413,8.069,8.069,0,0,1,2.79,1.262,5.831,5.831,0,0,1,1.8,2.088,5.771,5.771,0,0,1,.583,2.84l-.1,7.183a3.2,3.2,0,0,0,.195,1.626c.162.244.516.365,1.069.365h.533a5.482,5.482,0,0,0,.679-.049,1.5,1.5,0,0,1,.534.874,4.258,4.258,0,0,1,.146,1.019,2.352,2.352,0,0,1-1.262,2.208M85.04,32.65q-.557-.049-1.528-.05a4.094,4.094,0,0,0-2.379.535,2.077,2.077,0,0,0-.727,1.8,1.712,1.712,0,0,0,.582,1.432,2.342,2.342,0,0,0,1.505.461,5.833,5.833,0,0,0,2.3-.388,5.228,5.228,0,0,0,1.626-1.116V32.844c-.552-.1-1.012-.161-1.384-.194" transform="translate(-40.12 -11.148)"/>
      <path id="Path_1062" data-name="Path 1062" class="cls-1" d="M141.155,26.409c-.357-.031-.663-.055-.922-.072s-.518-.024-.777-.024a7.651,7.651,0,0,0-1.893.193,3.4,3.4,0,0,0-1.31.68,5.11,5.11,0,0,0-1.093,1.359q-.51.873-1.141,2.184v9.853a4.165,4.165,0,0,1-1.673.413q-1.046.072-1.821.072a6.086,6.086,0,0,1-2.621-.437,1.773,1.773,0,0,1-.971-1.554q-.049-1.116-.072-2.426t-.024-2.913V30.777q0-1.5.024-2.669t.024-1.893v-.728l-2.476-.1a2.626,2.626,0,0,1-.34-.946,6.427,6.427,0,0,1-.1-1.093,2.161,2.161,0,0,1,1.166-2.015,9.452,9.452,0,0,1,4.223-.654,12.258,12.258,0,0,1,4.61.679l-.727,5.243a28.048,28.048,0,0,1,1.116-2.961,6.2,6.2,0,0,1,1.189-1.82,3.465,3.465,0,0,1,1.5-.9,7.65,7.65,0,0,1,2.064-.242,2.712,2.712,0,0,1,2.306.874,3.228,3.228,0,0,1,.655,1.989,4.633,4.633,0,0,1-.268,1.723,4.559,4.559,0,0,1-.654,1.141" transform="translate(-67.525 -11.265)"/>
      <path id="Path_1063" data-name="Path 1063" class="cls-1" d="M181.96,22.255a6.251,6.251,0,0,1,2.305,5.1,11.709,11.709,0,0,1-.169,2.208,5.2,5.2,0,0,1-.437,1.359,1.607,1.607,0,0,1-.631.7,1.681,1.681,0,0,1-.8.194H171.063a8.5,8.5,0,0,0,.171,1.771,3.1,3.1,0,0,0,.631,1.359,3,3,0,0,0,1.31.873,6.437,6.437,0,0,0,2.208.316,17.8,17.8,0,0,0,3.446-.388,13.837,13.837,0,0,0,3.495-1.165,1.863,1.863,0,0,1,1.141.948,2.988,2.988,0,0,1,.364,1.383q0,2.039-2.719,3.034a22.094,22.094,0,0,1-7.378.994q-4.9,0-7.45-2.184t-2.548-7.184a12.423,12.423,0,0,1,.826-4.61,9.775,9.775,0,0,1,2.355-3.543,10.513,10.513,0,0,1,3.76-2.258,14.743,14.743,0,0,1,5-.8,9.613,9.613,0,0,1,6.285,1.893m-4.684,5.582a4.525,4.525,0,0,0-.411-2.063q-.414-.8-1.967-.8a3.567,3.567,0,0,0-2.548.85,4.456,4.456,0,0,0-1.141,2.743h6.019a4,4,0,0,0,.048-.729" transform="translate(-89.182 -11.091)"/>
      <path id="Path_1064" data-name="Path 1064" class="cls-1" d="M209.85,17.572a.463.463,0,0,1-.011-.1.251.251,0,0,1,.087-.208.592.592,0,0,1,.347-.071h1.485l.275-.009a.329.329,0,0,1,.056.183.281.281,0,0,1-.092.222.506.506,0,0,1-.329.08H211.3l0,2.049a.417.417,0,0,1-.162.044,1.745,1.745,0,0,1-.2.011c-.2,0-.317-.055-.336-.169-.007-.054-.011-.165-.015-.335s0-.388,0-.656v-.3c0-.111,0-.214,0-.311s0-.175,0-.238v-.1h-.688a.264.264,0,0,1-.036-.094" transform="translate(-114.294 -9.358)"/>
      <path id="Path_1065" data-name="Path 1065" class="cls-1" d="M216.752,19.4a.684.684,0,0,1-.151.017.559.559,0,0,1-.2-.031.223.223,0,0,1-.126-.134l-.515-1.2v1.671a.986.986,0,0,1-.111.024.864.864,0,0,1-.129.009.477.477,0,0,1-.23-.037.159.159,0,0,1-.067-.118c-.005-.062-.011-.183-.014-.361s0-.393,0-.645c0-.172,0-.347,0-.524s.007-.326.01-.448l-.246-.01a.329.329,0,0,1-.033-.087.526.526,0,0,1-.009-.1.23.23,0,0,1,.03-.12.2.2,0,0,1,.108-.078.978.978,0,0,1,.207-.042,3.2,3.2,0,0,1,.32-.015,1.518,1.518,0,0,1,.255.019.56.56,0,0,1,.165.057.342.342,0,0,1,.11.1,1.017,1.017,0,0,1,.08.153l.5,1.161.628-1.279a.388.388,0,0,1,.139-.169.477.477,0,0,1,.242-.047,1.142,1.142,0,0,1,.319.036.423.423,0,0,1,.186.1l-.023.349V19.7a.44.44,0,0,1-.166.042c-.071.006-.14.009-.2.009a.5.5,0,0,1-.232-.04.165.165,0,0,1-.084-.125c-.007-.053-.011-.164-.014-.333s-.006-.385-.006-.653c0-.179,0-.376.006-.591l-.627,1.35a.411.411,0,0,1-.114.04" transform="translate(-117.065 -9.352)"/>
      <rect id="Rectangle_442" data-name="Rectangle 442" class="cls-3" width="0.918" height="5.228" transform="translate(3.163 34.845)"/>
      <path id="Path_1066" data-name="Path 1066" class="cls-3" d="M11.781,79.252h.912v.605a1.428,1.428,0,0,1,1.232-.687,1.352,1.352,0,0,1,1.405,1.508V83.2h-.9V80.955c0-.613-.306-.964-.844-.964a.878.878,0,0,0-.888.979V83.2h-.912Z" transform="translate(-6.417 -43.122)"/>
      <path id="Path_1067" data-name="Path 1067" class="cls-3" d="M21.256,82.7l.4-.612a2.235,2.235,0,0,0,1.293.485c.388,0,.612-.164.612-.425V82.13c0-.306-.418-.41-.881-.552-.583-.164-1.233-.4-1.233-1.151v-.015a1.259,1.259,0,0,1,1.4-1.21,2.742,2.742,0,0,1,1.45.448l-.359.643a2.281,2.281,0,0,0-1.113-.374c-.351,0-.553.172-.553.388v.015c0,.291.427.411.89.56.576.179,1.225.441,1.225,1.15v.015c0,.829-.643,1.239-1.464,1.239a2.718,2.718,0,0,1-1.673-.59" transform="translate(-11.578 -43.14)"/>
      <path id="Path_1068" data-name="Path 1068" class="cls-3" d="M30.072,81.859v-2.51h.9V81.59c0,.613.306.956.844.956a.871.871,0,0,0,.889-.971V79.349h.912v3.944h-.912v-.612a1.419,1.419,0,0,1-1.232.694,1.354,1.354,0,0,1-1.4-1.516" transform="translate(-16.38 -43.22)"/>
      <path id="Path_1069" data-name="Path 1069" class="cls-3" d="M40.317,79.259h.912v.889a1.4,1.4,0,0,1,1.4-.963v.956h-.052c-.792,0-1.345.515-1.345,1.56v1.5h-.912Z" transform="translate(-21.96 -43.13)"/>
      <path id="Path_1070" data-name="Path 1070" class="cls-3" d="M48.814,81.811v-.268a2.492,2.492,0,0,0-.9-.157c-.582,0-.926.246-.926.657v.015c0,.381.336.6.769.6.6,0,1.053-.343,1.053-.844M46.1,82.1v-.015c0-.852.673-1.27,1.636-1.27a3.316,3.316,0,0,1,1.061.164v-.1c0-.561-.344-.86-.979-.86a2.747,2.747,0,0,0-1.128.247l-.246-.709a3.423,3.423,0,0,1,1.493-.321,1.769,1.769,0,0,1,1.308.441,1.636,1.636,0,0,1,.425,1.217V83.23h-.881v-.492a1.6,1.6,0,0,1-1.284.574A1.266,1.266,0,0,1,46.1,82.1" transform="translate(-25.111 -43.158)"/>
      <path id="Path_1071" data-name="Path 1071" class="cls-3" d="M56.3,79.252h.912v.605a1.428,1.428,0,0,1,1.232-.687,1.352,1.352,0,0,1,1.4,1.508V83.2h-.9V80.955c0-.613-.306-.964-.844-.964a.878.878,0,0,0-.888.979V83.2H56.3Z" transform="translate(-30.664 -43.122)"/>
      <path id="Path_1072" data-name="Path 1072" class="cls-3" d="M66,81.246v-.015a2.035,2.035,0,0,1,2.054-2.061,1.992,1.992,0,0,1,1.577.679l-.568.605a1.348,1.348,0,0,0-1.016-.494A1.19,1.19,0,0,0,66.9,81.216v.015a1.193,1.193,0,0,0,1.181,1.262,1.394,1.394,0,0,0,1.023-.485l.545.538A2.068,2.068,0,0,1,66,81.246" transform="translate(-35.949 -43.122)"/>
      <path id="Path_1073" data-name="Path 1073" class="cls-3" d="M78.032,80.947a1.023,1.023,0,0,0-1-1.038,1.068,1.068,0,0,0-1.024,1.038Zm-2.92.291v-.015a1.957,1.957,0,0,1,1.927-2.054,1.906,1.906,0,0,1,1.889,2.121c0,.082-.007.164-.014.254h-2.9a1.1,1.1,0,0,0,1.136,1,1.432,1.432,0,0,0,1.068-.471l.53.471a2,2,0,0,1-1.613.739,1.968,1.968,0,0,1-2.024-2.047" transform="translate(-40.912 -43.122)"/>
      <path id="Path_1074" data-name="Path 1074" class="cls-3" d="M92.524,81.811v-.268a2.492,2.492,0,0,0-.9-.157c-.582,0-.926.246-.926.657v.015c0,.381.336.6.769.6.6,0,1.053-.343,1.053-.844m-2.711.284v-.015c0-.852.673-1.27,1.636-1.27a3.316,3.316,0,0,1,1.061.164v-.1c0-.561-.344-.86-.979-.86a2.747,2.747,0,0,0-1.128.247l-.246-.709a3.423,3.423,0,0,1,1.493-.321,1.769,1.769,0,0,1,1.308.441,1.636,1.636,0,0,1,.425,1.217V83.23H92.5v-.492a1.6,1.6,0,0,1-1.284.574,1.266,1.266,0,0,1-1.4-1.217" transform="translate(-48.919 -43.158)"/>
      <path id="Path_1075" data-name="Path 1075" class="cls-3" d="M100.008,79.252h.912v.605a1.428,1.428,0,0,1,1.232-.687,1.352,1.352,0,0,1,1.4,1.508V83.2h-.9V80.955c0-.613-.306-.964-.844-.964a.878.878,0,0,0-.888.979V83.2h-.912Z" transform="translate(-54.472 -43.122)"/>
      <path id="Path_1076" data-name="Path 1076" class="cls-3" d="M112.933,79.525V79.51a1.183,1.183,0,0,0-1.143-1.262,1.16,1.16,0,0,0-1.136,1.262v.015a1.173,1.173,0,0,0,1.136,1.262,1.187,1.187,0,0,0,1.143-1.262m-3.189,0V79.51a1.882,1.882,0,0,1,1.83-2.046,1.612,1.612,0,0,1,1.344.694v-2.12h.9v5.452h-.9v-.657a1.577,1.577,0,0,1-1.344.739,1.891,1.891,0,0,1-1.83-2.046" transform="translate(-59.775 -41.416)"/>
      <path id="Path_1077" data-name="Path 1077" class="cls-3" d="M125.822,79.05v-.015a2.644,2.644,0,0,1,2.689-2.7,2.734,2.734,0,0,1,2.054.814l-.591.68a2.088,2.088,0,0,0-1.472-.643,1.752,1.752,0,0,0-1.717,1.838v.015a1.761,1.761,0,0,0,1.725,1.852,2.042,2.042,0,0,0,1.5-.672l.59.6a2.7,2.7,0,0,1-2.121.926,2.625,2.625,0,0,1-2.659-2.689" transform="translate(-68.532 -41.576)"/>
      <path id="Path_1078" data-name="Path 1078" class="cls-3" d="M140.335,81.811v-.268a2.492,2.492,0,0,0-.9-.157c-.582,0-.926.246-.926.657v.015c0,.381.336.6.77.6.6,0,1.053-.343,1.053-.844m-2.711.284v-.015c0-.852.672-1.27,1.636-1.27a3.312,3.312,0,0,1,1.061.164v-.1c0-.561-.344-.86-.979-.86a2.749,2.749,0,0,0-1.128.247l-.246-.709a3.42,3.42,0,0,1,1.494-.321,1.768,1.768,0,0,1,1.307.441,1.636,1.636,0,0,1,.426,1.217V83.23h-.882v-.492a1.6,1.6,0,0,1-1.284.574,1.266,1.266,0,0,1-1.4-1.217" transform="translate(-74.961 -43.158)"/>
      <path id="Path_1079" data-name="Path 1079" class="cls-3" d="M147.818,79.259h.912v.889a1.4,1.4,0,0,1,1.4-.963v.956h-.052c-.792,0-1.344.515-1.344,1.56v1.5h-.912Z" transform="translate(-80.513 -43.13)"/>
      <path id="Path_1080" data-name="Path 1080" class="cls-3" d="M156.754,80.947a1.025,1.025,0,0,0-1-1.038,1.068,1.068,0,0,0-1.024,1.038Zm-2.921.291v-.015a1.957,1.957,0,0,1,1.927-2.054,1.907,1.907,0,0,1,1.89,2.121c0,.082-.008.164-.015.254h-2.9a1.1,1.1,0,0,0,1.135,1,1.431,1.431,0,0,0,1.068-.471l.53.471a2,2,0,0,1-1.613.739,1.968,1.968,0,0,1-2.025-2.047" transform="translate(-83.789 -43.122)"/>
      <path id="Path_1081" data-name="Path 1081" class="cls-3" d="M169.354,76.529h.852l2.8,3.615V76.529h.9v5.228h-.77l-2.883-3.719v3.719h-.9Z" transform="translate(-92.243 -41.684)"/>
      <path id="Path_1082" data-name="Path 1082" class="cls-3" d="M181.532,80.9l.553-.657a2.42,2.42,0,0,0,1.65.68c.569,0,.927-.269.927-.657v-.015c0-.373-.21-.574-1.18-.8-1.113-.269-1.741-.6-1.741-1.561v-.015a1.6,1.6,0,0,1,1.786-1.517,2.9,2.9,0,0,1,1.9.657l-.493.694a2.376,2.376,0,0,0-1.419-.538c-.538,0-.851.276-.851.62v.015c0,.4.239.582,1.248.821,1.106.27,1.673.665,1.673,1.532v.015c0,.978-.77,1.56-1.867,1.56a3.217,3.217,0,0,1-2.181-.836" transform="translate(-98.876 -41.594)"/>
      <path id="Path_1083" data-name="Path 1083" class="cls-3" d="M191.5,76.51h.994l1.247,3.876,1.284-3.892h.777l1.285,3.892,1.247-3.876h.963l-1.815,5.266h-.8L195.4,78.019l-1.284,3.757h-.8Z" transform="translate(-104.305 -41.665)"/>
    </g>
  </g>
</svg>
