<svg xmlns="http://www.w3.org/2000/svg" xmlns:xlink="http://www.w3.org/1999/xlink" width="183" height="72.663" viewBox="0 0 183 72.663">
  <defs>
    <style>
      .cls-1 {
        fill: #004c97;
      }

      .cls-2 {
        clip-path: url(#clip-path);
      }

      .cls-3 {
        fill: #111;
      }
    </style>
    <clipPath id="clip-path">
      <rect id="Rectangle_443" data-name="Rectangle 443" class="cls-1" width="183" height="72.663"/>
    </clipPath>
  </defs>
  <g id="logo" transform="translate(0 0)">
    <g id="Group_762" data-name="Group 762" class="cls-2" transform="translate(0 0)">
      <path id="Path_1059" data-name="Path 1059" class="cls-1" d="M16.684,17.915a2.775,2.775,0,0,1,1.933,2.546V52.954a7.547,7.547,0,0,1-2.768.79,33.514,33.514,0,0,1-3.558.175,11.743,11.743,0,0,1-4.607-.747,3.127,3.127,0,0,1-1.89-2.854q-.089-2.017-.131-5.093t-.044-8.078q0-5.444.088-11.592L.79,25.381a4.672,4.672,0,0,1-.615-1.627A9.9,9.9,0,0,1,0,21.866a3.864,3.864,0,0,1,2.327-3.645q2.324-1.185,7.859-1.184a17.14,17.14,0,0,1,6.5.877m.746-7.771q-1.537,1.8-5.489,1.8a7.426,7.426,0,0,1-4.829-1.316Q5.533,9.311,5.532,6.235a5.993,5.993,0,0,1,1.8-4.479A7.453,7.453,0,0,1,12.732,0q3.425,0,4.829,1.713A6.237,6.237,0,0,1,18.967,5.8a6.467,6.467,0,0,1-1.537,4.345" transform="translate(0 0)"/>
      <path id="Path_1060" data-name="Path 1060" class="cls-1" d="M59.5,31.269a20.766,20.766,0,0,0-4.348-1.274,25.018,25.018,0,0,0-4.345-.394q-4.479,0-6.453,2.108t-1.978,7.376q0,5.444,1.8,7.463t6.1,2.021a22.571,22.571,0,0,0,9.571-2.2,3.449,3.449,0,0,1,2.108,1.846,5.917,5.917,0,0,1,.7,2.634q0,3.687-4.126,5.224a33.177,33.177,0,0,1-11.242,1.536q-9.306,0-13.7-4.083T29.205,40.665a22.923,22.923,0,0,1,1.537-8.693,16.624,16.624,0,0,1,4.435-6.322,19.507,19.507,0,0,1,6.938-3.864,29.074,29.074,0,0,1,9.043-1.318q5.884,0,8.562,1.58a4.7,4.7,0,0,1,2.68,4.127,6.129,6.129,0,0,1-.746,3.074A4.994,4.994,0,0,1,59.5,31.269" transform="translate(-5.147 -3.607)"/>
      <path id="Path_1061" data-name="Path 1061" class="cls-1" d="M112.735,56.339q-2.286,1.272-7.288,1.274a11.862,11.862,0,0,1-5.666-1.1q-1.973-1.1-1.975-4.961V50.148a8.14,8.14,0,0,1-4.126,5.71,17.253,17.253,0,0,1-8.257,1.755q-6.058,0-8.912-2.767A9.623,9.623,0,0,1,73.658,47.6q0-5.533,3.907-8.343t12.164-2.808q1.842,0,3.6.131t3.6.306V33.464q.085-2.544-1.232-3.424t-4.654-.877a14.455,14.455,0,0,0-5.75,1.271,15.237,15.237,0,0,0-4.785,3.118q-2.9-.174-4.039-1.668a5.61,5.61,0,0,1-1.143-3.514,4.671,4.671,0,0,1,1.1-2.9,9.742,9.742,0,0,1,3.383-2.545,22.209,22.209,0,0,1,5.663-1.8,42.631,42.631,0,0,1,8.034-.66,27.083,27.083,0,0,1,6.632.747,14.6,14.6,0,0,1,5.047,2.283,10.55,10.55,0,0,1,3.249,3.777,10.44,10.44,0,0,1,1.055,5.138l-.177,13a5.782,5.782,0,0,0,.353,2.942c.293.441.934.66,1.933.66h.965a9.918,9.918,0,0,0,1.228-.088,2.712,2.712,0,0,1,.966,1.581,7.7,7.7,0,0,1,.264,1.844,4.256,4.256,0,0,1-2.283,3.994M94.25,42.51q-1.008-.089-2.765-.091a7.407,7.407,0,0,0-4.3.969,3.758,3.758,0,0,0-1.316,3.248,3.1,3.1,0,0,0,1.053,2.59,4.236,4.236,0,0,0,2.723.834,10.553,10.553,0,0,0,4.17-.7,9.459,9.459,0,0,0,2.943-2.018V42.86c-1-.175-1.83-.291-2.5-.35" transform="translate(-12.98 -3.607)"/>
      <path id="Path_1062" data-name="Path 1062" class="cls-1" d="M155.06,31.043c-.646-.055-1.2-.1-1.668-.13s-.937-.044-1.405-.044a13.842,13.842,0,0,0-3.424.349,6.142,6.142,0,0,0-2.371,1.231,9.244,9.244,0,0,0-1.977,2.459q-.923,1.579-2.064,3.952V56.686a7.535,7.535,0,0,1-3.027.746q-1.893.131-3.3.131a11.012,11.012,0,0,1-4.742-.79,3.209,3.209,0,0,1-1.756-2.812q-.088-2.019-.131-4.389t-.044-5.27V38.947q0-2.72.044-4.829t.044-3.425V29.375l-4.479-.175a4.751,4.751,0,0,1-.615-1.712,11.626,11.626,0,0,1-.175-1.977,3.91,3.91,0,0,1,2.109-3.645q2.108-1.185,7.641-1.184a22.176,22.176,0,0,1,8.341,1.228L140.747,31.4a50.744,50.744,0,0,1,2.018-5.357,11.215,11.215,0,0,1,2.152-3.293,6.269,6.269,0,0,1,2.721-1.627,13.84,13.84,0,0,1,3.733-.437q2.984,0,4.172,1.581a5.841,5.841,0,0,1,1.185,3.6,8.382,8.382,0,0,1-.484,3.117,8.248,8.248,0,0,1-1.184,2.064" transform="translate(-21.847 -3.645)"/>
      <path id="Path_1063" data-name="Path 1063" class="cls-1" d="M196.708,23.786a11.31,11.31,0,0,1,4.171,9.221,21.186,21.186,0,0,1-.306,4,9.4,9.4,0,0,1-.79,2.459,2.906,2.906,0,0,1-1.141,1.274,3.041,3.041,0,0,1-1.449.35h-20.2a15.385,15.385,0,0,0,.309,3.2,5.6,5.6,0,0,0,1.141,2.459,5.423,5.423,0,0,0,2.371,1.58,11.645,11.645,0,0,0,4,.572,32.2,32.2,0,0,0,6.235-.7,25.034,25.034,0,0,0,6.322-2.108,3.371,3.371,0,0,1,2.064,1.714,5.407,5.407,0,0,1,.659,2.5q0,3.688-4.92,5.489t-13.348,1.8q-8.87,0-13.479-3.952t-4.611-13a22.475,22.475,0,0,1,1.494-8.341,17.684,17.684,0,0,1,4.261-6.41,19.021,19.021,0,0,1,6.8-4.085,26.674,26.674,0,0,1,9.046-1.447q7.2,0,11.371,3.424m-8.474,10.1a8.186,8.186,0,0,0-.744-3.733q-.749-1.448-3.558-1.45a6.453,6.453,0,0,0-4.611,1.537,8.061,8.061,0,0,0-2.064,4.963h10.889a7.235,7.235,0,0,0,.087-1.318" transform="translate(-28.854 -3.589)"/>
      <path id="Path_1064" data-name="Path 1064" class="cls-1" d="M209.86,17.889a.837.837,0,0,1-.021-.188.454.454,0,0,1,.157-.376,1.072,1.072,0,0,1,.629-.129h2.687l.5-.016a.594.594,0,0,1,.1.332.508.508,0,0,1-.166.4.916.916,0,0,1-.595.144h-.674l-.008,3.707a.754.754,0,0,1-.293.079,3.158,3.158,0,0,1-.371.021c-.371,0-.574-.1-.607-.306-.013-.1-.021-.3-.026-.605s-.007-.7-.007-1.186v-.538c0-.2,0-.386,0-.562s0-.316,0-.43v-.18h-1.246a.478.478,0,0,1-.064-.171" transform="translate(-36.979 -3.028)"/>
      <path id="Path_1065" data-name="Path 1065" class="cls-1" d="M218.229,21.211a1.238,1.238,0,0,1-.273.031,1.012,1.012,0,0,1-.37-.057.4.4,0,0,1-.227-.242l-.932-2.178v3.022a1.781,1.781,0,0,1-.2.044,1.562,1.562,0,0,1-.234.016.863.863,0,0,1-.417-.067.288.288,0,0,1-.121-.214c-.01-.113-.021-.332-.026-.653s-.008-.711-.008-1.166c0-.311,0-.629.008-.947s.012-.589.018-.811L215,17.971a.6.6,0,0,1-.059-.157.952.952,0,0,1-.016-.175.416.416,0,0,1,.054-.217.357.357,0,0,1,.2-.142,1.769,1.769,0,0,1,.374-.077,5.781,5.781,0,0,1,.579-.026,2.747,2.747,0,0,1,.46.034,1.014,1.014,0,0,1,.3.1.62.62,0,0,1,.2.183,1.839,1.839,0,0,1,.144.278l.905,2.1,1.136-2.314a.7.7,0,0,1,.252-.306.863.863,0,0,1,.437-.085,2.066,2.066,0,0,1,.577.064.765.765,0,0,1,.337.183l-.041.631v3.707a.8.8,0,0,1-.3.077c-.129.011-.253.016-.366.016a.9.9,0,0,1-.419-.072.3.3,0,0,1-.152-.227c-.013-.1-.021-.3-.025-.6s-.011-.7-.011-1.181c0-.325.006-.68.011-1.068l-1.135,2.443a.743.743,0,0,1-.206.072" transform="translate(-37.875 -3.026)"/>
      <rect id="Rectangle_442" data-name="Rectangle 442" class="cls-3" width="1.662" height="9.459" transform="translate(5.723 63.042)"/>
      <path id="Path_1066" data-name="Path 1066" class="cls-3" d="M11.781,79.318H13.43v1.095a2.584,2.584,0,0,1,2.228-1.243A2.446,2.446,0,0,1,18.2,81.9v4.554H16.565V82.4c0-1.109-.554-1.744-1.527-1.744a1.588,1.588,0,0,0-1.607,1.771v4.027H11.781Z" transform="translate(-2.076 -13.952)"/>
      <path id="Path_1067" data-name="Path 1067" class="cls-3" d="M21.256,85.526l.728-1.107a4.044,4.044,0,0,0,2.339.877c.7,0,1.108-.3,1.108-.769V84.5c0-.553-.756-.742-1.594-1-1.055-.3-2.231-.73-2.231-2.082v-.026a2.278,2.278,0,0,1,2.54-2.19,4.96,4.96,0,0,1,2.623.811l-.649,1.163a4.127,4.127,0,0,0-2.013-.676c-.635,0-1,.311-1,.7v.027c0,.527.772.743,1.61,1.013,1.041.325,2.216.8,2.216,2.081v.027c0,1.5-1.163,2.242-2.648,2.242a4.918,4.918,0,0,1-3.027-1.067" transform="translate(-3.746 -13.958)"/>
      <path id="Path_1068" data-name="Path 1068" class="cls-3" d="M30.072,83.89V79.349h1.635V83.4c0,1.109.554,1.73,1.527,1.73a1.576,1.576,0,0,0,1.608-1.757V79.349h1.649v7.135H34.842V85.377a2.567,2.567,0,0,1-2.229,1.255,2.45,2.45,0,0,1-2.541-2.742" transform="translate(-5.299 -13.984)"/>
      <path id="Path_1069" data-name="Path 1069" class="cls-3" d="M40.317,79.321h1.649v1.608a2.526,2.526,0,0,1,2.527-1.742v1.729H44.4c-1.433,0-2.433.932-2.433,2.823v2.717H40.317Z" transform="translate(-7.105 -13.954)"/>
      <path id="Path_1070" data-name="Path 1070" class="cls-3" d="M51.008,83.9v-.485a4.509,4.509,0,0,0-1.621-.284c-1.054,0-1.676.446-1.676,1.19v.026c0,.69.608,1.081,1.391,1.081,1.081,0,1.905-.621,1.905-1.527m-4.9.514v-.026c0-1.541,1.217-2.3,2.959-2.3a6,6,0,0,1,1.919.3v-.175c0-1.015-.622-1.555-1.771-1.555a4.97,4.97,0,0,0-2.04.446l-.446-1.283a6.194,6.194,0,0,1,2.7-.581,3.2,3.2,0,0,1,2.366.8,2.959,2.959,0,0,1,.769,2.2v4.229H50.967v-.891a2.9,2.9,0,0,1-2.324,1.039,2.291,2.291,0,0,1-2.541-2.2" transform="translate(-8.125 -13.964)"/>
      <path id="Path_1071" data-name="Path 1071" class="cls-3" d="M56.3,79.318h1.649v1.095a2.584,2.584,0,0,1,2.228-1.243A2.446,2.446,0,0,1,62.716,81.9v4.554H61.081V82.4c0-1.109-.554-1.744-1.527-1.744a1.588,1.588,0,0,0-1.607,1.771v4.027H56.3Z" transform="translate(-9.921 -13.952)"/>
      <path id="Path_1072" data-name="Path 1072" class="cls-3" d="M66,82.926V82.9a3.682,3.682,0,0,1,3.715-3.729A3.6,3.6,0,0,1,72.568,80.4l-1.027,1.095A2.438,2.438,0,0,0,69.7,80.6a2.153,2.153,0,0,0-2.068,2.27V82.9a2.159,2.159,0,0,0,2.136,2.283,2.522,2.522,0,0,0,1.85-.877l.987.973A3.742,3.742,0,0,1,66,82.926" transform="translate(-11.631 -13.952)"/>
      <path id="Path_1073" data-name="Path 1073" class="cls-3" d="M80.394,82.385a1.851,1.851,0,0,0-1.81-1.878,1.932,1.932,0,0,0-1.852,1.878Zm-5.282.526v-.026A3.541,3.541,0,0,1,78.6,79.17c2.271,0,3.418,1.783,3.418,3.837,0,.148-.012.3-.026.459H76.746A1.994,1.994,0,0,0,78.8,85.277a2.591,2.591,0,0,0,1.933-.853l.959.853a3.61,3.61,0,0,1-2.919,1.337,3.56,3.56,0,0,1-3.662-3.7" transform="translate(-13.237 -13.952)"/>
      <path id="Path_1074" data-name="Path 1074" class="cls-3" d="M94.718,83.9v-.485a4.509,4.509,0,0,0-1.621-.284c-1.054,0-1.676.446-1.676,1.19v.026c0,.69.608,1.081,1.391,1.081,1.081,0,1.905-.621,1.905-1.527m-4.9.514v-.026c0-1.541,1.217-2.3,2.959-2.3a6,6,0,0,1,1.919.3v-.175c0-1.015-.622-1.555-1.771-1.555a4.97,4.97,0,0,0-2.04.446l-.446-1.283a6.194,6.194,0,0,1,2.7-.581,3.2,3.2,0,0,1,2.366.8,2.959,2.959,0,0,1,.769,2.2v4.229H94.677v-.891a2.9,2.9,0,0,1-2.324,1.039,2.291,2.291,0,0,1-2.541-2.2" transform="translate(-15.827 -13.964)"/>
      <path id="Path_1075" data-name="Path 1075" class="cls-3" d="M100.008,79.318h1.649v1.095a2.584,2.584,0,0,1,2.228-1.243,2.446,2.446,0,0,1,2.541,2.729v4.554h-1.635V82.4c0-1.109-.554-1.744-1.527-1.744a1.588,1.588,0,0,0-1.607,1.771v4.027h-1.649Z" transform="translate(-17.624 -13.952)"/>
      <path id="Path_1076" data-name="Path 1076" class="cls-3" d="M115.514,82.347V82.32a2.14,2.14,0,0,0-2.068-2.283,2.1,2.1,0,0,0-2.054,2.283v.027a2.123,2.123,0,0,0,2.054,2.283,2.148,2.148,0,0,0,2.068-2.283m-5.77,0V82.32a3.4,3.4,0,0,1,3.311-3.7,2.916,2.916,0,0,1,2.431,1.255V76.037h1.635V85.9h-1.635v-1.19a2.854,2.854,0,0,1-2.431,1.338,3.421,3.421,0,0,1-3.311-3.7" transform="translate(-19.34 -13.4)"/>
      <path id="Path_1077" data-name="Path 1077" class="cls-3" d="M125.822,81.25v-.027a4.784,4.784,0,0,1,4.864-4.892A4.946,4.946,0,0,1,134.4,77.8l-1.068,1.23a3.778,3.778,0,0,0-2.662-1.163,3.17,3.17,0,0,0-3.106,3.325v.027a3.186,3.186,0,0,0,3.12,3.35,3.694,3.694,0,0,0,2.716-1.215l1.068,1.081a4.881,4.881,0,0,1-3.837,1.676,4.749,4.749,0,0,1-4.811-4.864" transform="translate(-22.173 -13.452)"/>
      <path id="Path_1078" data-name="Path 1078" class="cls-3" d="M142.529,83.9v-.485a4.509,4.509,0,0,0-1.621-.284c-1.054,0-1.676.446-1.676,1.19v.026c0,.69.608,1.081,1.392,1.081,1.081,0,1.9-.621,1.9-1.527m-4.9.514v-.026c0-1.541,1.216-2.3,2.959-2.3a5.992,5.992,0,0,1,1.919.3v-.175c0-1.015-.622-1.555-1.77-1.555a4.974,4.974,0,0,0-2.041.446l-.445-1.283a6.187,6.187,0,0,1,2.7-.581,3.2,3.2,0,0,1,2.364.8,2.96,2.96,0,0,1,.771,2.2v4.229h-1.6v-.891a2.9,2.9,0,0,1-2.324,1.039,2.291,2.291,0,0,1-2.54-2.2" transform="translate(-24.253 -13.964)"/>
      <path id="Path_1079" data-name="Path 1079" class="cls-3" d="M147.818,79.321h1.649v1.608a2.526,2.526,0,0,1,2.527-1.742v1.729H151.9c-1.433,0-2.432.932-2.432,2.823v2.717h-1.649Z" transform="translate(-26.049 -13.954)"/>
      <path id="Path_1080" data-name="Path 1080" class="cls-3" d="M159.118,82.385a1.854,1.854,0,0,0-1.811-1.878,1.932,1.932,0,0,0-1.852,1.878Zm-5.285.526v-.026a3.541,3.541,0,0,1,3.487-3.715c2.27,0,3.419,1.783,3.419,3.837,0,.148-.014.3-.027.459h-5.243a1.992,1.992,0,0,0,2.054,1.811,2.59,2.59,0,0,0,1.933-.853l.96.853a3.61,3.61,0,0,1-2.918,1.337,3.56,3.56,0,0,1-3.663-3.7" transform="translate(-27.109 -13.952)"/>
      <path id="Path_1081" data-name="Path 1081" class="cls-3" d="M169.354,76.529H170.9l5.067,6.54v-6.54H177.6v9.459h-1.392l-5.216-6.729v6.729h-1.635Z" transform="translate(-29.844 -13.487)"/>
      <path id="Path_1082" data-name="Path 1082" class="cls-3" d="M181.532,84.58l1-1.189a4.378,4.378,0,0,0,2.985,1.231c1.029,0,1.677-.487,1.677-1.19V83.4c0-.675-.38-1.039-2.135-1.445-2.014-.487-3.149-1.081-3.149-2.825v-.026c0-1.621,1.351-2.744,3.231-2.744a5.245,5.245,0,0,1,3.431,1.19l-.892,1.256a4.3,4.3,0,0,0-2.567-.973c-.973,0-1.54.5-1.54,1.121v.028c0,.729.432,1.054,2.257,1.485,2,.488,3.027,1.2,3.027,2.771v.027c0,1.77-1.392,2.823-3.378,2.823a5.82,5.82,0,0,1-3.946-1.513" transform="translate(-31.99 -13.458)"/>
      <path id="Path_1083" data-name="Path 1083" class="cls-3" d="M191.5,76.523h1.8l2.256,7.013,2.324-7.041h1.405l2.325,7.041,2.256-7.013h1.743l-3.284,9.527h-1.445l-2.326-6.8-2.323,6.8h-1.447Z" transform="translate(-33.747 -13.481)"/>
    </g>
  </g>
</svg>
