<?xml version="1.0" encoding="UTF-8"?><svg id="b" xmlns="http://www.w3.org/2000/svg" viewBox="0 0 200 300"><g id="c"><path d="M170.52,29.19C150.86,9.73,127.39,0,100.1,0S49.14,9.73,29.48,29.19C9.82,48.65,0,71.96,0,99.12,0,123.71,11.01,148.31,33.03,172.91l7.31,8.11c16.88,19.05,29.44,36.76,37.68,53.11,8.24,16.35,15.6,38.31,22.09,65.88,6.35-27.57,13.65-49.53,21.89-65.88,8.24-16.35,20.8-34.05,37.69-53.11l7.31-8.11c22.01-24.6,33.02-49.19,33.02-73.78,0-27.16-9.83-50.47-29.48-69.93Z"/><ellipse cx="100" cy="100.13" rx="84.95" ry="84.98" fill="#fff"/><path d="M87.55,60.25l-6.35,21.38v12.13h-8.07v-12.13l-6.13-21.38h8c1.25,6.54,1.96,10.95,2.12,13.21,.48-3.58,1.29-7.98,2.43-13.21h8Z"/><path d="M108.94,79.87c0,3.37-.08,5.76-.24,7.15-.32,2.9-2.19,5.39-4.87,6.51-1.57,.65-3.26,.96-4.97,.93-1.65,.03-3.29-.27-4.83-.88-2.72-1.09-4.63-3.56-5-6.47-.16-1.38-.25-3.79-.25-7.24v-5.73c0-3.37,.08-5.76,.24-7.15,.32-2.9,2.19-5.39,4.87-6.51,1.57-.65,3.26-.97,4.97-.93,1.65-.03,3.3,.27,4.83,.88,2.72,1.09,4.63,3.56,5,6.47,.17,1.38,.25,3.8,.25,7.24v5.73Zm-8.71-11.01c0-1.56-.09-2.55-.26-2.99-.17-.42-.6-.69-1.05-.64-.42-.02-.81,.18-1.05,.53-.24,.35-.36,1.39-.36,3.11v15.64c0,1.95,.08,3.15,.24,3.6,.16,.46,.53,.68,1.11,.68,.52,.04,.99-.29,1.12-.79,.16-.53,.25-1.78,.25-3.75v-15.4Z"/><path d="M131.99,60.25v22.41c0,2.54-.08,4.32-.25,5.34-.23,1.16-.73,2.25-1.47,3.17-.83,1.09-1.94,1.94-3.22,2.45-1.5,.59-3.1,.88-4.71,.84-1.82,.04-3.62-.3-5.3-.99-1.53-.66-2.68-1.53-3.43-2.59-.73-.99-1.19-2.15-1.35-3.37-.14-1.18-.21-3.66-.21-7.44v-19.82h8.71v25.13c0,1.46,.08,2.4,.24,2.81,.14,.4,.54,.65,.96,.61,.56,0,.91-.22,1.07-.67s.24-1.51,.24-3.18v-24.7h8.71Z"/><path d="M51.56,106.62l4.15,27.9h-7.41l-.39-5.02h-2.59l-.44,5.02h-7.5l3.7-27.9h10.48Zm-3.84,17.94c-.37-3.16-.74-7.07-1.1-11.72-.74,5.34-1.2,9.25-1.39,11.72h2.5Z"/><path d="M56.93,106.62h5.13c3.42,0,5.74,.13,6.95,.4,1.21,.26,2.28,.99,2.96,2.02,.76,1.09,1.15,2.82,1.15,5.2,0,2.17-.27,3.63-.81,4.38-.54,.75-1.6,1.2-3.18,1.34,1.44,.35,2.4,.83,2.89,1.43,.43,.47,.74,1.04,.92,1.65,.12,.5,.18,1.87,.18,4.13v7.36h-6.74v-9.28c0-1.5-.12-2.42-.35-2.77-.24-.35-.84-.53-1.85-.53v12.58h-7.25v-27.89Zm7.25,4.78v6.2c.81,0,1.39-.11,1.71-.34,.33-.22,.49-.95,.49-2.18v-1.53c0-.88-.16-1.46-.47-1.74-.31-.28-.89-.41-1.73-.41h0Z"/><path d="M75.93,106.62h12.08v5.58h-4.83v5.29h4.53v5.31h-4.53v6.13h5.32v5.58h-12.57v-27.9Z"/><path d="M113.48,106.62v27.9h-7.25v-11.72h-2.17v11.72h-7.25v-27.9h7.25v9.97h2.17v-9.97h7.25Z"/><path d="M116.39,106.62h12.08v5.58h-4.83v5.29h4.53v5.31h-4.53v6.13h5.32v5.58h-12.58v-27.9Z"/><path d="M131.05,106.62h5.13c3.42,0,5.74,.13,6.95,.4,1.21,.26,2.28,.99,2.96,2.02,.76,1.09,1.15,2.82,1.15,5.2,0,2.17-.27,3.63-.81,4.38-.54,.74-1.6,1.19-3.19,1.34,1.43,.35,2.4,.84,2.89,1.43,.43,.47,.74,1.04,.92,1.65,.12,.5,.18,1.87,.18,4.13v7.36h-6.73v-9.28c0-1.5-.12-2.42-.35-2.77-.24-.35-.84-.53-1.85-.53v12.58h-7.26v-27.89Zm7.25,4.78v6.2c.81,0,1.39-.11,1.71-.34,.33-.22,.49-.95,.49-2.18v-1.53c0-.88-.16-1.46-.47-1.74-.31-.28-.89-.41-1.73-.41h0Z"/><path d="M150.05,106.62h12.08v5.58h-4.83v5.29h4.53v5.31h-4.53v6.13h5.32v5.58h-12.57v-27.9Z"/></g></svg>