<svg xmlns="http://www.w3.org/2000/svg" width="207" height="25" viewBox="0 0 207 25"><g transform="translate(-0.359 0.166)"><path d="M0,0H202.318" transform="translate(1.927 13.18)" fill="none" stroke="#004C97" stroke-width="3" opacity="1"/><rect width="5" height="21" rx="2.5" transform="translate(0.359 1.834)" fill="#004C97"/><rect width="6" height="21" rx="3" transform="translate(70.359 1.834)" fill="#004C97"/><rect width="4" height="21" rx="2" transform="translate(190.359 1.834)" fill="#004C97"/><rect width="5" height="17" rx="2.5" transform="translate(39.359 3.834)" fill="#004C97"/><rect width="6" height="21" rx="3" transform="translate(106.359 1.834)" fill="#004C97"/><rect width="5" height="21" rx="2.5" transform="translate(154.359 1.834)" fill="#004C97"/><rect width="5" height="21" rx="2.5" transform="translate(26.359 1.834)" fill="#004C97"/><rect width="4" height="21" rx="2" transform="translate(95.359 1.834)" fill="#004C97"/><rect width="6" height="21" rx="3" transform="translate(165.359 1.834)" fill="#004C97"/><rect width="4" height="15" rx="2" transform="translate(59.359 4.834)" fill="#004C97"/><rect width="6" height="15" rx="3" transform="translate(201.359 4.834)" fill="#004C97"/><rect width="6" height="13" rx="3" transform="translate(129.359 5.834)" fill="#004C97"/><rect width="5" height="25" rx="2.5" transform="translate(13.359 -0.166)" fill="#004C97"/><rect width="5" height="25" rx="2.5" transform="translate(82.359 -0.166)" fill="#004C97"/><rect width="5" height="25" rx="2.5" transform="translate(177.359 -0.166)" fill="#004C97"/><rect width="6" height="25" rx="3" transform="translate(50.359 -0.166)" fill="#004C97"/><rect width="5" height="16" rx="2.5" transform="translate(118.359 4.834)" fill="#004C97"/><rect width="4" height="16" rx="2" transform="translate(142.359 4.834)" fill="#004C97"/></g></svg>