<svg xmlns="http://www.w3.org/2000/svg" xmlns:xlink="http://www.w3.org/1999/xlink" width="17" height="17" viewBox="0 0 17 17"><defs><clipPath id="a"><rect width="17" height="17" fill="#dc1928"/></clipPath></defs><g transform="translate(17 -19)"><g transform="translate(-17 19)" clip-path="url(#a)"><path d="M32.887,0H21.28A1.28,1.28,0,0,0,20,1.28V7.75h4.436a1.983,1.983,0,0,1,1.981,1.981v4.436h6.47a1.28,1.28,0,0,0,1.28-1.28V1.28A1.28,1.28,0,0,0,32.887,0" transform="translate(-17.167)" fill="#dc1928"/><path d="M2.939,32.73,5.29,30.379a.352.352,0,0,1,.5,0L7.02,31.612a.352.352,0,0,0,.6-.249V26.9a.352.352,0,0,0-.352-.352H2.8a.352.352,0,0,0-.249.6l1.233,1.233a.352.352,0,0,1,0,.5L1.475,31.189V20h-.2A1.28,1.28,0,0,0,0,21.28V32.887a1.28,1.28,0,0,0,1.28,1.28H12.887a1.28,1.28,0,0,0,1.28-1.28V32.73Z" transform="translate(0 -17.167)" fill="#dc1928"/></g></g></svg>