<svg xmlns="http://www.w3.org/2000/svg" width="69.456" height="78.398" viewBox="0 0 69.456 78.398"><g transform="translate(-925.479 -5367.236)"><g transform="translate(926.479 5380.569)"><path d="M186.547,216.555a.568.568,0,0,0,.568.568,37.072,37.072,0,0,1,8.21,1.061,55.988,55.988,0,0,0,14.884,1.722h14.555a5.635,5.635,0,0,0,3.157-10.3,5.635,5.635,0,0,0,1.924-10.042,5.635,5.635,0,0,0,2.065-10.351,5.637,5.637,0,0,0-1.78-10.985h-15a19.676,19.676,0,0,0,1.4-6.439c.482-6.854-.66-11.608-3.395-14.13a6.762,6.762,0,0,0-5.608-1.742,2.181,2.181,0,0,0-1.482.945c-.929,1.331-.846,3.835-.491,5.586.62,5.275-1.908,8.172-4.834,11.527-.653.749-1.328,1.522-1.984,2.344-1.81,2.263-8.663,4.485-11.734,5.151a.568.568,0,0,0-.448.555" transform="translate(-170.47 -155.841)" stroke="#fff" stroke-linecap="round" stroke-linejoin="round" stroke-width="2"/><path d="M144.217,242.769H128.065v38.9h16.152v-38.9Z" transform="translate(-128.065 -218.871)"  stroke="#fff" stroke-linecap="round" stroke-linejoin="round" stroke-width="2"/></g><line x1="2.668" y1="2.779" transform="translate(935.919 5387.071)" fill="none" stroke="#fff" stroke-linecap="round" stroke-linejoin="round" stroke-width="2"/><line y1="2.987" x2="1.649" transform="translate(981.229 5374.23)" fill="none" stroke="#fff" stroke-linecap="round" stroke-linejoin="round" stroke-width="2"/><line x1="1.237" y1="3.234" transform="translate(948.212 5374.107)" fill="none" stroke="#fff" stroke-linecap="round" stroke-linejoin="round" stroke-width="2"/><line y1="2.426" x2="2.65" transform="translate(990.872 5388.998)" fill="none" stroke="#fff" stroke-linecap="round" stroke-linejoin="round" stroke-width="2"/><line x1="0.154" y1="3.801" transform="translate(965.569 5368.276)" fill="none" stroke="#fff" stroke-linecap="round" stroke-linejoin="round" stroke-width="2"/></g></svg>