<svg xmlns="http://www.w3.org/2000/svg" xmlns:xlink="http://www.w3.org/1999/xlink" width="554" height="350" viewBox="0 0 554 350">
  <defs>
    <clipPath id="clip-path">
      <rect id="Rectangle_446" data-name="Rectangle 446" width="1108.814" height="1001.966" fill="#004c97"/>
    </clipPath>
    <clipPath id="clip-final-sprite">
      <rect width="554" height="350"/>
    </clipPath>
  </defs>
  <g id="final-sprite" clip-path="url(#clip-final-sprite)">
    <g id="Group_2011" data-name="Group 2011" transform="translate(-944 339)">
      <g id="Group_1956" data-name="Group 1956" transform="translate(1883.852 801.346) rotate(-165)">
        <g id="Group_767" data-name="Group 767" clip-path="url(#clip-path)">
          <path id="Path_1084" data-name="Path 1084" d="M1105.974,485.38c-2.542-69.751-14.109-139.388-40.134-203.4a423.029,423.029,0,0,0-50.351-89.609l-1.867-2.613-2.014-2.5-4.033-4.986c-2.705-3.315-5.324-6.69-8.094-9.95l-8.622-9.477c-2.863-3.173-5.694-6.369-8.829-9.276-6.146-5.933-12.073-12.079-18.638-17.539l-9.629-8.426-10.108-7.855a408.855,408.855,0,0,0-88.308-51.385,512.16,512.16,0,0,0-97.981-30.722,766.42,766.42,0,0,0-102.3-13.957c-34.429-2.5-69.12-2.667-103.712-1.579a857.333,857.333,0,0,0-103.337,9.319c-34.2,5.133-68.173,12.356-101.176,22.819A564.4,564.4,0,0,0,251,93.9a463.949,463.949,0,0,0-85.581,58.68,426.5,426.5,0,0,0-118.2,168.8L42.748,333.6c-1.448,4.083-3.086,8.1-4.257,12.28L34.67,358.31c-1.279,4.142-2.6,8.269-3.576,12.5q-6.573,25.165-10.625,50.868A595.3,595.3,0,0,0,13.61,525.247c1.361,69.354,10.6,138.92,34.255,203.206a360.67,360.67,0,0,0,48.049,89.571c9.891,13.744,21.376,26.2,33.166,38.272l9.346,8.557c3.141,2.825,6.151,5.786,9.537,8.334,6.635,5.237,13.048,10.745,20.124,15.4,27.6,19.574,58.113,35.061,90.044,46.976,32,11.818,65.348,20.233,99.173,26.242,67.71,11.877,137.287,14.9,206.44,13.325,69.1-1.551,138.093-9.749,204.371-27.854a548.037,548.037,0,0,0,95.972-36.351,429.422,429.422,0,0,0,85.864-55.49,398.2,398.2,0,0,0,69.414-75.173,434.679,434.679,0,0,0,48.261-90.937,543.164,543.164,0,0,0,27.87-99.978,718.251,718.251,0,0,0,10.478-103.974h2.471a649.249,649.249,0,0,1-5.079,105.193c-4.605,34.919-12.22,69.615-23.891,103.119a430.6,430.6,0,0,1-46.585,95.765,402.1,402.1,0,0,1-70.268,80.725A445.954,445.954,0,0,1,874.07,930.56a570.794,570.794,0,0,1-99.352,39.72c-34.141,10.38-69.18,17.076-104.306,22.2-35.148,5.275-70.562,7.577-105.933,8.976-35.4,1.1-70.72.376-106.1-1.671-35.344-2.117-70.731-5.906-105.716-12.667-34.985-6.646-69.67-15.818-103.2-28.654-33.46-12.944-65.7-29.748-94.943-51.021-7.479-5.079-14.316-11.045-21.333-16.744-3.576-2.776-6.788-5.977-10.108-9.047l-9.9-9.292c-12.514-13.07-24.642-26.58-34.936-41.457a368.912,368.912,0,0,1-49.034-95.743C17.551,701.3,10.115,666.284,5.7,631.109a760.284,760.284,0,0,1-5.607-105.8A607.178,607.178,0,0,1,10,419.874c3.222-17.37,7.343-34.56,12.226-51.527,1.061-4.289,2.471-8.47,3.838-12.672l4.088-12.591c1.263-4.235,2.994-8.307,4.534-12.438l4.736-12.367a458.1,458.1,0,0,1,120.7-171.7,498.628,498.628,0,0,1,85.967-61.564A576.084,576.084,0,0,1,342.531,41.2c33.368-11.812,67.792-20.478,102.558-27.01l13.042-2.493,13.124-1.927L484.39,7.844l6.565-.958,6.592-.713,26.395-2.809c8.807-.713,17.636-1.23,26.466-1.785C559.231.893,568.066.751,576.9.517l13.26-.348L596.785,0l6.641.06,26.547.294c8.851.376,17.7.931,26.547,1.394,35.366,2.352,70.72,6.782,105.5,14.528A533.513,533.513,0,0,1,863.76,49.154a423.506,423.506,0,0,1,91.7,55.544,373.111,373.111,0,0,1,73.453,77.938l7.5,11.11c1.225,1.873,2.547,3.674,3.69,5.59l3.429,5.754,6.848,11.5c2.172,3.892,4.17,7.882,6.238,11.828,8.339,15.759,15.127,32.241,21.469,48.811,12.3,33.335,20.222,68.026,25.154,102.923a619.821,619.821,0,0,1,5.2,105.231Z" transform="translate(-0.002)" fill="#004c97"/>
        </g>
      </g>
    </g>
  </g>
</svg>
