<svg xmlns="http://www.w3.org/2000/svg" xmlns:xlink="http://www.w3.org/1999/xlink" width="1920" height="350" viewBox="0 0 1920 350">
  <defs>
    <clipPath id="clip-path">
      <rect id="Rectangle_277" data-name="Rectangle 277" width="1920" height="350" transform="translate(-16 1995)" fill="#007b83"/>
    </clipPath>
    <clipPath id="clip-path-2">
      <path id="Path_1248" data-name="Path 1248" d="M0,0,1115.559,7.853l7.1,1016.929L7.1,1016.929Z" fill="#007b83"/>
    </clipPath>
    <clipPath id="clip-keymessage-pattern-teal">
      <rect width="1920" height="350"/>
    </clipPath>
  </defs>
  <g id="keymessage-pattern-teal" clip-path="url(#clip-keymessage-pattern-teal)">
    <g id="Group_2010" data-name="Group 2010" transform="translate(0 -1995)">
      <g id="Mask_Group_7" data-name="Mask Group 7" transform="translate(16)" clip-path="url(#clip-path)">
        <g id="Group_771" data-name="Group 771" transform="matrix(-0.875, -0.485, 0.485, -0.875, 1186.536, 2880.588)">
          <g id="Group_767" data-name="Group 767" clip-path="url(#clip-path-2)">
            <path id="Path_1084" data-name="Path 1084" d="M1115.842,500.13c-3.052-70.811-15.182-141.57-41.819-206.724a438.142,438.142,0,0,0-51.292-91.3l-1.9-2.665-2.044-2.55L1014.7,191.8c-2.745-3.384-5.4-6.828-8.214-10.156l-8.742-9.679c-2.9-3.241-5.774-6.5-8.948-9.477-6.225-6.065-12.232-12.345-18.876-17.932l-9.747-8.62-10.225-8.044A418.079,418.079,0,0,0,860.735,75.11a518.26,518.26,0,0,0-98.794-31.875,769.179,769.179,0,0,0-103.024-14.89c-34.656-2.78-69.559-3.2-104.355-2.337a852.088,852.088,0,0,0-103.9,8.726c-34.372,4.968-68.5,12.058-101.63,22.443A556.747,556.747,0,0,0,252.89,96.746,457.581,457.581,0,0,0,167.2,155.7,424.614,424.614,0,0,0,49.478,326.179l-4.4,12.371c-1.428,4.133-3.048,8.2-4.2,12.433l-3.756,12.591c-1.258,4.2-2.559,8.374-3.51,12.659q-6.435,25.494-10.33,51.553a607.817,607.817,0,0,0-6.167,105.069c1.86,70.4,11.652,141.07,35.9,206.484a373.532,373.532,0,0,0,48.975,91.249c10.048,14.02,21.692,26.747,33.639,39.079l9.464,8.751c3.18,2.89,6.229,5.916,9.654,8.526,6.713,5.362,13.2,11,20.356,15.777,27.91,20.062,58.715,36,90.925,48.316,32.28,12.221,65.888,21,99.962,27.337,68.206,12.534,138.228,16.093,207.79,14.986,69.507-1.085,138.864-8.917,205.417-26.822,33.188-9.163,65.584-21,96.3-36.214a423.43,423.43,0,0,0,85.993-55.71,394.514,394.514,0,0,0,69.3-75.8,434.953,434.953,0,0,0,47.91-91.953,549.155,549.155,0,0,0,27.331-101.274,732.208,732.208,0,0,0,9.806-105.452l2.486.017a663.409,663.409,0,0,1-4.365,106.728c-4.386,35.408-11.8,70.568-23.306,104.49a431.558,431.558,0,0,1-46.189,96.865,398.751,398.751,0,0,1-70.124,81.433,439.837,439.837,0,0,1-88.664,60.652c-31.844,16.52-65.394,29.465-99.675,39.61-34.275,10.294-69.48,16.841-104.783,21.791-35.324,5.1-70.938,7.19-106.514,8.36-35.606.865-71.148-.12-106.754-2.447-35.574-2.4-71.2-6.5-106.448-13.6-35.244-6.994-70.205-16.548-104.026-29.813-33.756-13.375-66.306-30.658-95.882-52.455-7.561-5.208-14.481-11.311-21.581-17.145-3.618-2.843-6.871-6.114-10.234-9.254l-10.022-9.5c-12.683-13.353-24.98-27.151-35.442-42.323a382.045,382.045,0,0,1-50.01-97.52c-11.981-34.452-19.71-70.039-24.4-105.77a780.164,780.164,0,0,1-6.39-107.423,619.175,619.175,0,0,1,9.22-106.937c3.119-17.606,7.143-35.024,11.935-52.21,1.038-4.346,2.426-8.579,3.771-12.834l4.024-12.75c1.241-4.289,2.953-8.409,4.474-12.592L41.62,322.98A456.038,456.038,0,0,1,161.834,149.57,491.886,491.886,0,0,1,247.888,87.7,568.086,568.086,0,0,1,344.609,43.9C378.1,32.153,412.668,23.6,447.6,17.218l13.1-2.438,13.19-1.863,13.2-1.857,6.6-.926,6.627-.677,26.536-2.664c8.856-.661,17.735-1.124,26.614-1.625,8.872-.634,17.76-.715,26.646-.89l13.338-.26,6.664-.124L606.8,4l26.711.486c8.907.444,17.811,1.07,26.719,1.6,35.6,2.637,71.2,7.385,106.243,15.492A540.1,540.1,0,0,1,869.066,55.674a433.382,433.382,0,0,1,92.65,57.023,385.27,385.27,0,0,1,74.452,79.622l7.625,11.329c1.245,1.909,2.589,3.747,3.752,5.7l3.491,5.864,6.971,11.717c2.213,3.966,4.251,8.029,6.36,12.049,8.5,16.053,15.448,32.83,21.945,49.692,12.613,33.92,20.827,69.185,26.036,104.638a635.923,635.923,0,0,1,5.981,106.84Z" transform="translate(0.295 0.332)" fill="#007b83"/>
          </g>
        </g>
      </g>
    </g>
  </g>
</svg>
