<svg xmlns="http://www.w3.org/2000/svg" xmlns:xlink="http://www.w3.org/1999/xlink" width="182.729" height="182" viewBox="0 0 182.729 182"><defs><clipPath id="a"><rect width="182.729" height="182" fill="#111"/></clipPath></defs><g opacity="0.1" clip-path="url(#a)"><path d="M527.633,38.954c-5.453,1.381-11.077,2.583-16.833,3.6q-2.312-4.463-4.955-8.6A84.255,84.255,0,0,0,491.317,16.6q3.631,1.186,7.177,2.684a91.128,91.128,0,0,1,29.07,19.6c.024.022.045.045.069.068" transform="translate(-371.533 -12.553)" fill="#111"/><path d="M426.718,31.338a279.215,279.215,0,0,1-35.488,2.734V0a35.464,35.464,0,0,1,14.522,6.4c6.333,4.52,12.434,11.2,17.641,19.334q1.741,2.717,3.325,5.6" transform="translate(-295.847)" fill="#111"/><path d="M248.194,0V34.072a279.217,279.217,0,0,1-35.488-2.734q1.586-2.878,3.325-5.6c5.208-8.129,11.309-14.814,17.641-19.334A35.465,35.465,0,0,1,248.194,0" transform="translate(-160.848)" fill="#111"/><path d="M145.54,16.6a84.247,84.247,0,0,0-14.528,17.355q-2.645,4.13-4.955,8.6c-5.755-1.017-11.379-2.22-16.833-3.6.024-.022.045-.045.069-.068a91.126,91.126,0,0,1,29.07-19.6q3.541-1.5,7.176-2.684" transform="translate(-82.595 -12.553)" fill="#111"/><path d="M39.907,140.221a128.005,128.005,0,0,0-5.423,15.251,138.123,138.123,0,0,0-5.262,34.209H0a91.061,91.061,0,0,1,20.555-53.871c6.238,1.705,12.707,3.179,19.351,4.41" transform="translate(0 -102.7)" fill="#111"/><path d="M202.919,162.772v44.871H152.833a130.092,130.092,0,0,1,4.947-31.992,118.648,118.648,0,0,1,5.873-16.087,286.567,286.567,0,0,0,39.265,3.208" transform="translate(-115.572 -120.662)" fill="#111"/><path d="M441.315,207.644H391.229V162.772a286.614,286.614,0,0,0,39.266-3.208,118.6,118.6,0,0,1,5.873,16.087,130.071,130.071,0,0,1,4.947,31.992" transform="translate(-295.846 -120.662)" fill="#111"/><path d="M625.721,189.687H596.5a138.117,138.117,0,0,0-5.262-34.209,128.1,128.1,0,0,0-5.423-15.251c6.644-1.231,13.114-2.7,19.351-4.409a91.056,91.056,0,0,1,20.555,53.869" transform="translate(-442.991 -102.705)" fill="#111"/><path d="M625.721,389.734A91.055,91.055,0,0,1,605.165,443.6c-6.238-1.7-12.707-3.177-19.351-4.409a128.1,128.1,0,0,0,5.423-15.251,138.118,138.118,0,0,0,5.262-34.209Z" transform="translate(-442.991 -294.716)" fill="#111"/><path d="M441.315,389.734a130.072,130.072,0,0,1-4.947,31.992,118.6,118.6,0,0,1-5.873,16.087,286.624,286.624,0,0,0-39.266-3.208V389.734Z" transform="translate(-295.846 -294.716)" fill="#111"/><path d="M202.919,389.734v44.872a286.615,286.615,0,0,0-39.265,3.208,118.632,118.632,0,0,1-5.873-16.087,130.092,130.092,0,0,1-4.947-31.992Z" transform="translate(-115.572 -294.716)" fill="#111"/><path d="M39.908,439.194c-6.646,1.231-13.115,2.7-19.353,4.41A91.065,91.065,0,0,1,0,389.734H29.222a138.125,138.125,0,0,0,5.262,34.209,127.815,127.815,0,0,0,5.425,15.251" transform="translate(0 -294.716)" fill="#111"/><path d="M145.54,649.406q-3.631-1.188-7.176-2.686a91.126,91.126,0,0,1-29.07-19.6c-.024-.022-.045-.045-.069-.068,5.453-1.38,11.077-2.583,16.833-3.6q2.312,4.463,4.955,8.6a84.289,84.289,0,0,0,14.528,17.357" transform="translate(-82.595 -471.451)" fill="#111"/><path d="M248.194,606.751v34.072a35.466,35.466,0,0,1-14.522-6.4c-6.333-4.52-12.434-11.2-17.641-19.334q-1.741-2.717-3.325-5.6a279.2,279.2,0,0,1,35.488-2.734" transform="translate(-160.848 -458.824)" fill="#111"/><path d="M426.718,609.485q-1.586,2.879-3.325,5.6c-5.207,8.129-11.309,14.814-17.641,19.334a35.461,35.461,0,0,1-14.522,6.4V606.751a279.2,279.2,0,0,1,35.488,2.734" transform="translate(-295.847 -458.824)" fill="#111"/><path d="M527.633,627.05c-.024.023-.045.045-.069.068a91.128,91.128,0,0,1-29.07,19.6q-3.542,1.5-7.177,2.686a84.311,84.311,0,0,0,14.528-17.357q2.644-4.13,4.955-8.6c5.756,1.017,11.379,2.22,16.833,3.6" transform="translate(-371.533 -471.451)" fill="#111"/></g></svg>