<svg xmlns="http://www.w3.org/2000/svg" xmlns:xlink="http://www.w3.org/1999/xlink" width="148.333" height="182" viewBox="0 0 148.333 182"><defs><clipPath id="a"><rect width="148.332" height="182" fill="#111"/></clipPath></defs><g opacity="0.1" clip-path="url(#a)"><path d="M148.332,74.166c0-6.362-6.953-11.725-8.521-17.592-1.623-6.071,1.67-14.183-1.405-19.5-3.12-5.392-11.82-6.577-16.2-10.953s-5.561-13.076-10.953-16.2c-5.316-3.075-13.428.217-19.5-1.406C85.891,6.953,80.528,0,74.166,0S62.441,6.953,56.574,8.522c-6.071,1.622-14.183-1.67-19.5,1.405-5.392,3.12-6.577,11.82-10.953,16.2s-13.076,5.561-16.2,10.953c-3.075,5.315.217,13.427-1.406,19.5C6.953,62.441,0,67.8,0,74.166S6.953,85.891,8.522,91.758c1.622,6.071-1.67,14.183,1.406,19.5,3.119,5.392,11.82,6.577,16.2,10.953s5.561,13.077,10.953,16.2c5.315,3.075,13.427-.217,19.5,1.406,5.867,1.568,11.23,8.521,17.592,8.521s11.725-6.953,17.592-8.521c6.071-1.623,14.183,1.669,19.5-1.405,5.392-3.12,6.577-11.82,10.953-16.2s13.077-5.561,16.2-10.953c3.075-5.315-.217-13.427,1.406-19.5,1.568-5.867,8.521-11.23,8.521-17.592m-74.166,51.9a51.9,51.9,0,1,1,51.9-51.9,51.962,51.962,0,0,1-51.9,51.9" fill="#111"/><path d="M268.118,329.958c-1.985,4.145-4.235,8.843-8.955,11.574a18.74,18.74,0,0,1-9.518,2.209c-1.661,0-3.285-.121-4.856-.239-1.414-.106-2.749-.206-3.963-.206a10.6,10.6,0,0,0-2.67.267,7.272,7.272,0,0,0-1.3.518l20.588,35.659,9.77-24.257,25.892,3.667L272.5,323.47a7.564,7.564,0,0,0-1.1.88c-1.144,1.144-2.23,3.413-3.281,5.607" transform="translate(-144.79 -197.741)" fill="#111"/><path d="M52.329,343.3c-1.215,0-2.55.1-3.964.206-1.57.117-3.193.239-4.855.239a18.745,18.745,0,0,1-9.518-2.209c-4.72-2.731-6.97-7.429-8.955-11.575-1.051-2.194-2.138-4.463-3.281-5.607a7.563,7.563,0,0,0-1.1-.88L.053,359.15l25.893-3.667,9.77,24.257L56.3,344.081a7.273,7.273,0,0,0-1.3-.519,10.627,10.627,0,0,0-2.671-.266" transform="translate(-0.032 -197.74)" fill="#111"/><path d="M123.862,81.293a42.569,42.569,0,1,0,42.568,42.569,42.617,42.617,0,0,0-42.568-42.569m28.712,34.649-12.759,12.437a1.448,1.448,0,0,0-.417,1.283l3.012,17.561a1.449,1.449,0,0,1-2.1,1.528l-15.771-8.292a1.449,1.449,0,0,0-1.349,0l-15.771,8.292a1.449,1.449,0,0,1-2.1-1.528l3.012-17.561a1.448,1.448,0,0,0-.417-1.283L95.15,115.942a1.449,1.449,0,0,1,.8-2.472l17.632-2.562a1.451,1.451,0,0,0,1.091-.793l7.885-15.978a1.45,1.45,0,0,1,2.6,0l7.885,15.978a1.452,1.452,0,0,0,1.091.793l17.633,2.562a1.449,1.449,0,0,1,.8,2.472" transform="translate(-49.696 -49.695)" fill="#111"/></g></svg>