<svg xmlns="http://www.w3.org/2000/svg" xmlns:xlink="http://www.w3.org/1999/xlink" width="283.624" height="179.524" viewBox="0 0 283.624 179.524"><defs><clipPath id="a"><rect width="283.624" height="179.524" transform="translate(0 0)" fill="#111"/></clipPath></defs><g opacity="0.1" clip-path="url(#a)"><path d="M418.723,269.208c-3.837-3.03-8.716-6.795-13.327-10.313-6.371-4.73-15.124-11.027-26.557-18.815-1.394-.95-2.871-1.915-4.384-2.884-.807-.515-1.606-1.021-2.408-1.526-14.327-8.939-31.891-17.958-36.325-20.211l-10.612,3.373c-2.8,4.25-14.853,20.851-32.984,22.254a28.313,28.313,0,0,1-2.9.156c-4.09,0-6.909-1.108-8.628-3.4-2.049-2.727-2.209-6.743-.5-12.628a2.808,2.808,0,0,1,.188-.485c3.352-6.751,10.209-16.5,16.192-24.763-1.154-.177-2.357-.355-3.592-.541-7.2-1.063-14.641-2.164-18.573-4.391-1.707-.972-4.4-2.6-7.34-4.425l-36.329,64.518,3.055,3.4c.125.152,3.674,4.566,8.671,10.811l.093-.125a12.98,12.98,0,0,1,10.566-5.2,16.04,16.04,0,0,1,10.131,3.774,17.2,17.2,0,0,1,5.626,8.508l3.423-4.665a12.972,12.972,0,0,1,10.575-5.211,16.016,16.016,0,0,1,10.129,3.774,16.6,16.6,0,0,1,5.892,16.255c.223-.009.441-.039.666-.039a16.073,16.073,0,0,1,10.131,3.774,16.682,16.682,0,0,1,5.946,16.06c.4-.039.805-.065,1.218-.065a16.1,16.1,0,0,1,10.132,3.765c6.6,5.432,8.259,14.905,3.689,21.111l-2.352,3.177a121.046,121.046,0,0,0,16.863,4.73c.082.013.169.035.247.048,3.016.762,11.958,2.142,17.077-.61a25.326,25.326,0,0,0,8.205-7.747l-27.646-13.342a2.919,2.919,0,0,1,2.545-5.254l29.314,14.156a2.658,2.658,0,0,1,.669,0c2.006.325,7.892.766,10.845-1.164,3.6-2.359,4.354-7.885,4.5-10.573l-35.593-20.609a2.921,2.921,0,0,1,2.928-5.055l36.492,21.132c2.549.169,8.48.1,11.127-2.043,4.713-3.834,4.112-9.884,3.761-11.88l-42.221-25.348a2.919,2.919,0,1,1,3.008-5L414.8,292.352c3.073.792,10.125,1.8,13.522-4.427,2.532-4.648,1.61-8.928-2.785-13.1Z" transform="translate(-197.938 -163.58)" fill="#111"/><path d="M449.507,781.955c2.77-3.765,1.558-9.66-2.7-13.152a10.183,10.183,0,0,0-6.42-2.445,7.115,7.115,0,0,0-5.877,2.826l-18.737,25.543c-2.763,3.743-1.554,9.638,2.692,13.148a10.213,10.213,0,0,0,6.416,2.441,7.1,7.1,0,0,0,5.882-2.835l.032-.043Z" transform="translate(-355.541 -657.678)" fill="#111"/><path d="M590.524,909.789a10.233,10.233,0,0,0-6.42-2.441,7.21,7.21,0,0,0-4.873,1.783c-.357.32-15.452,20.942-15.452,20.942-.117.156-.186.342-.29.506a7.73,7.73,0,0,0-.656,1.294c-1.378,3.653.006,8.361,3.629,11.347a10.233,10.233,0,0,0,6.433,2.445,7.071,7.071,0,0,0,5.862-2.83l14.466-19.891c2.765-3.756,1.551-9.65-2.7-13.156" transform="translate(-482.566 -778.675)" fill="#111"/><path d="M743.194,1049.167a10.229,10.229,0,0,0-6.423-2.445,7.076,7.076,0,0,0-5.868,2.839s-10.006,13.65-10.229,14.182c-1.55,3.679-.158,8.56,3.553,11.624a10.235,10.235,0,0,0,6.429,2.441,7.072,7.072,0,0,0,5.864-2.835l9.371-12.672c2.761-3.752,1.55-9.642-2.7-13.135" transform="translate(-617.939 -898.284)" fill="#111"/><path d="M317.184,764.584c2.365-3.7,1.11-9.4-2.932-12.719a10.218,10.218,0,0,0-6.426-2.445,7.108,7.108,0,0,0-5.875,2.83l-5.979,8.08c-2.755,3.739-1.545,9.646,2.7,13.144a10.229,10.229,0,0,0,6.425,2.445,7.241,7.241,0,0,0,4.782-1.688c.387-.333,7.219-9.513,7.305-9.647" transform="translate(-252.732 -643.143)" fill="#111"/><path d="M725.132,162.236a99.687,99.687,0,0,1-13.464-2.581c-8.08-1.9-18.14-4.261-28.7-4.261l-.727,0c-23.811.227-43.2,3.352-46.093,7.428-.679.952-1.467,2.043-2.307,3.2-.621.857-1.262,1.735-1.952,2.679l-1.651,2.272c-6.12,8.409-13.661,18.938-17.164,25.893-1.383,4.882-.829,6.637-.368,7.249.662.883,2.519,1.065,3.96,1.065a23.647,23.647,0,0,0,2.378-.134c17.408-1.348,28.994-20.215,29.111-20.405a2.945,2.945,0,0,1,1.614-1.275l5.771-1.835,6.98-2.22a2.923,2.923,0,0,1,2.188.171c.236.119,20.841,10.43,37.485,20.774,1.186.738,2.354,1.471,3.488,2.207,1.337.863,2.636,1.718,3.878,2.566,11.209,7.638,19.808,13.806,26.157,18.508,9.339,6.914,13.754,10.614,14.052,10.86l0,0,5.994,4.942a.315.315,0,0,1,.065-.035,37.363,37.363,0,0,0,9.982-6.656c1.8-1.632,3.1-2.986,4.347-4.293a54.758,54.758,0,0,1,5.107-4.882c.047-.041.1-.082.145-.121L739.6,159.73c-4.975,1.731-10.09,2.867-14.47,2.506" transform="translate(-525.385 -133.357)" fill="#111"/><path d="M68.876,15.419a2.1,2.1,0,0,0-.649-2.787L47.908.241A1.609,1.609,0,0,0,47.057,0a1.75,1.75,0,0,0-1.53.93L.268,81.309A2.109,2.109,0,0,0,.93,84.094L21.242,96.482a1.76,1.76,0,0,0,2.387-.692Z" transform="translate(0 0.001)" fill="#111"/><path d="M1581.259,81.335,1536,.964a1.755,1.755,0,0,0-1.532-.935,1.621,1.621,0,0,0-.846.24l-20.317,12.39a2.1,2.1,0,0,0-.662,2.785L1557.9,95.816a1.748,1.748,0,0,0,2.393.692l20.3-12.386a2.107,2.107,0,0,0,.665-2.787" transform="translate(-1297.903 -0.025)" fill="#111"/></g></svg>