<svg xmlns="http://www.w3.org/2000/svg" xmlns:xlink="http://www.w3.org/1999/xlink" width="182" height="182" viewBox="0 0 182 182">
  <defs>
    <clipPath id="clip-path">
      <rect id="Rectangle_1518" data-name="Rectangle 1518" width="182" height="182" fill="#111"/>
    </clipPath>
  </defs>
  <g id="t3_heading-icon2" opacity="0.1">
    <g id="Group_2229" data-name="Group 2229" clip-path="url(#clip-path)">
      <path id="Path_1326" data-name="Path 1326" d="M91,0a91,91,0,1,0,91,91A90.993,90.993,0,0,0,91,0M52.5,62.934A11.376,11.376,0,1,1,41.128,74.311,11.377,11.377,0,0,1,52.5,62.934m84.438,52.547c-26.31,26.007-65.572,26.007-91.88,0-2.1-2.071-2.421-5.358-.844-7.109s4.257-1.56,6.076.232c23.313,23.044,58.1,23.044,81.416,0,1.819-1.792,4.49-1.987,6.073-.232s1.258,5.038-.841,7.109M129.5,85.687a11.376,11.376,0,1,1,11.373-11.375A11.376,11.376,0,0,1,129.5,85.687" fill="#111"/>
    </g>
  </g>
</svg>
