<svg xmlns="http://www.w3.org/2000/svg" xmlns:xlink="http://www.w3.org/1999/xlink" width="84.898" height="53.738" viewBox="0 0 84.898 53.738">
  <defs>
    <clipPath id="clip-path">
      <rect id="Rectangle_1522" data-name="Rectangle 1522" width="84.898" height="53.738" transform="translate(0 0)" fill="#fff"/>
    </clipPath>
  </defs>
  <g id="t3s1_p3_1a" transform="translate(0 0)" clip-path="url(#clip-path)">
    <path id="Path_1349" data-name="Path 1349" d="M286.944,214.138c-1.148-.907-2.609-2.034-3.989-3.087-1.907-1.416-4.527-3.3-7.95-5.632-.417-.284-.86-.573-1.312-.863-.242-.154-.481-.306-.721-.457-4.289-2.676-9.546-5.376-10.873-6.05l-3.176,1.01c-.838,1.272-4.446,6.241-9.873,6.661a8.471,8.471,0,0,1-.867.047,3,3,0,0,1-2.583-1.017c-.613-.816-.661-2.018-.15-3.78a.841.841,0,0,1,.056-.145,63.378,63.378,0,0,1,4.847-7.413c-.345-.053-.705-.106-1.075-.162-2.155-.318-4.382-.648-5.559-1.314-.511-.291-1.317-.779-2.2-1.325l-10.875,19.313.915,1.018c.038.045,1.1,1.367,2.6,3.236l.028-.038a3.885,3.885,0,0,1,3.163-1.556,4.8,4.8,0,0,1,3.033,1.13,5.15,5.15,0,0,1,1.684,2.547l1.025-1.4a3.883,3.883,0,0,1,3.165-1.56,4.794,4.794,0,0,1,3.032,1.13,4.968,4.968,0,0,1,1.764,4.866c.067,0,.132-.012.2-.012a4.811,4.811,0,0,1,3.033,1.13,4.993,4.993,0,0,1,1.78,4.807c.121-.012.241-.019.365-.019a4.819,4.819,0,0,1,3.033,1.127,4.734,4.734,0,0,1,1.1,6.319l-.7.951a36.235,36.235,0,0,0,5.048,1.416l.074.014c.9.228,3.579.641,5.112-.183a7.581,7.581,0,0,0,2.456-2.319l-8.275-3.994a.874.874,0,0,1,.762-1.573l8.775,4.237a.8.8,0,0,1,.2,0,5.63,5.63,0,0,0,3.246-.348c1.077-.706,1.3-2.36,1.347-3.165L267.95,221.52a.874.874,0,0,1,.876-1.513l10.923,6.326c.763.051,2.538.029,3.331-.611a3.742,3.742,0,0,0,1.126-3.556l-12.638-7.587a.874.874,0,1,1,.9-1.5l13.3,7.985c.92.237,3.031.539,4.048-1.325.758-1.391.482-2.673-.834-3.923Z" transform="translate(-220.856 -182.52)" fill="#fff"/>
    <path id="Path_1350" data-name="Path 1350" d="M424.833,771.026a2.975,2.975,0,0,0-.807-3.937,3.048,3.048,0,0,0-1.922-.732,2.13,2.13,0,0,0-1.759.846l-5.609,7.646a2.979,2.979,0,0,0,.806,3.936,3.057,3.057,0,0,0,1.92.731,2.125,2.125,0,0,0,1.761-.849l.01-.013Z" transform="translate(-396.706 -733.826)" fill="#fff"/>
    <path id="Path_1351" data-name="Path 1351" d="M570.754,908.079a3.063,3.063,0,0,0-1.922-.731,2.158,2.158,0,0,0-1.459.534c-.107.1-4.625,6.269-4.625,6.269-.035.047-.056.1-.087.151a2.318,2.318,0,0,0-.2.387,3.123,3.123,0,0,0,1.086,3.4,3.063,3.063,0,0,0,1.926.732,2.117,2.117,0,0,0,1.755-.847l4.33-5.954a2.98,2.98,0,0,0-.808-3.938" transform="translate(-538.439 -868.832)" fill="#fff"/>
    <path id="Path_1352" data-name="Path 1352" d="M726.979,1047.454a3.062,3.062,0,0,0-1.922-.732,2.118,2.118,0,0,0-1.757.85s-3,4.086-3.062,4.245a3.114,3.114,0,0,0,1.064,3.479,3.063,3.063,0,0,0,1.924.731,2.117,2.117,0,0,0,1.755-.849l2.805-3.793a2.974,2.974,0,0,0-.808-3.932" transform="translate(-689.485 -1002.29)" fill="#fff"/>
    <path id="Path_1353" data-name="Path 1353" d="M301.286,753.959a3.21,3.21,0,0,0-2.8-4.539,2.128,2.128,0,0,0-1.759.847l-1.79,2.419a2.981,2.981,0,0,0,.808,3.934,3.062,3.062,0,0,0,1.923.732,2.168,2.168,0,0,0,1.431-.505c.116-.1,2.161-2.847,2.187-2.888" transform="translate(-281.993 -717.608)" fill="#fff"/>
    <path id="Path_1354" data-name="Path 1354" d="M646.006,157.442a29.839,29.839,0,0,1-4.03-.773,37.483,37.483,0,0,0-8.589-1.275h-.218c-7.128.068-12.93,1-13.8,2.224-.2.285-.439.611-.69.957-.186.256-.378.519-.584.8l-.494.68a69.7,69.7,0,0,0-5.138,7.751c-.414,1.461-.248,1.987-.11,2.17.2.264.754.319,1.185.319a7.076,7.076,0,0,0,.712-.04c5.211-.4,8.679-6.051,8.714-6.108a.881.881,0,0,1,.483-.382l1.728-.549,2.089-.665a.875.875,0,0,1,.655.051c.071.036,6.238,3.122,11.221,6.218.355.221.7.44,1.044.661.4.258.789.514,1.161.768,3.355,2.286,5.929,4.132,7.83,5.54,2.8,2.069,4.117,3.177,4.206,3.251h0l1.794,1.479a.1.1,0,0,1,.019-.01,11.184,11.184,0,0,0,2.988-1.992c.54-.488.927-.894,1.3-1.285a16.393,16.393,0,0,1,1.529-1.461l.043-.036-10.721-19.046a11.061,11.061,0,0,1-4.331.75" transform="translate(-586.215 -148.798)" fill="#fff"/>
    <path id="Path_1355" data-name="Path 1355" d="M20.617,4.615a.63.63,0,0,0-.194-.834L14.341.072A.482.482,0,0,0,14.086,0a.524.524,0,0,0-.458.279L.08,24.338a.631.631,0,0,0,.2.834l6.08,3.708a.527.527,0,0,0,.714-.207Z" transform="translate(0 0.001)" fill="#fff"/>
    <path id="Path_1356" data-name="Path 1356" d="M1533,24.367,1519.449.309a.526.526,0,0,0-.459-.28.485.485,0,0,0-.253.072l-6.081,3.709a.629.629,0,0,0-.2.834L1526,28.7a.523.523,0,0,0,.716.207L1532.8,25.2a.631.631,0,0,0,.2-.834" transform="translate(-1448.177 -0.028)" fill="#fff"/>
  </g>
</svg>
