<svg id="t3s1_p3_2" xmlns="http://www.w3.org/2000/svg" xmlns:xlink="http://www.w3.org/1999/xlink" width="79.77" height="79.77" viewBox="0 0 79.77 79.77">
  <defs>
    <clipPath id="clip-path">
      <rect id="Rectangle_1540" data-name="Rectangle 1540" width="79.77" height="79.77" fill="#d0006f"/>
    </clipPath>
  </defs>
  <g id="Group_2280" data-name="Group 2280" clip-path="url(#clip-path)">
    <path id="Path_1482" data-name="Path 1482" d="M39.884,0A39.885,39.885,0,1,0,79.77,39.885,39.881,39.881,0,0,0,39.884,0M18.025,32.57a4.986,4.986,0,1,1,4.986,4.986,4.986,4.986,0,0,1-4.986-4.986M55.873,53.718H23.9a1.995,1.995,0,0,1,0-3.989H55.873a1.995,1.995,0,0,1,0,3.989m.886-16.162a4.986,4.986,0,1,1,4.985-4.986,4.987,4.987,0,0,1-4.985,4.986" fill="#d0006f"/>
  </g>
</svg>
