<svg xmlns="http://www.w3.org/2000/svg" xmlns:xlink="http://www.w3.org/1999/xlink" width="84.898" height="84.559" viewBox="0 0 84.898 84.559">
  <defs>
    <clipPath id="clip-path">
      <rect id="Rectangle_1515" data-name="Rectangle 1515" width="84.898" height="84.559" fill="#d0006f"/>
    </clipPath>
  </defs>
  <g id="t3s1_p3_4" clip-path="url(#clip-path)">
    <path id="Path_1300" data-name="Path 1300" d="M508.19,26.986c-2.534.641-5.147,1.2-7.821,1.673q-1.074-2.073-2.3-4a39.146,39.146,0,0,0-6.75-8.063q1.687.551,3.334,1.247a42.34,42.34,0,0,1,13.506,9.107l.032.031" transform="translate(-435.664 -14.72)" fill="#d0006f"/>
    <path id="Path_1301" data-name="Path 1301" d="M407.718,14.56a129.727,129.727,0,0,1-16.488,1.27V0a16.477,16.477,0,0,1,6.747,2.975,32.69,32.69,0,0,1,8.2,8.983q.809,1.262,1.545,2.6" transform="translate(-346.914)" fill="#d0006f"/>
    <path id="Path_1302" data-name="Path 1302" d="M229.194,0V15.83a129.728,129.728,0,0,1-16.488-1.27q.737-1.337,1.545-2.6a32.691,32.691,0,0,1,8.2-8.983A16.477,16.477,0,0,1,229.194,0" transform="translate(-188.612)" fill="#d0006f"/>
    <path id="Path_1303" data-name="Path 1303" d="M126.1,16.6a39.142,39.142,0,0,0-6.75,8.063q-1.229,1.919-2.3,4c-2.674-.473-5.287-1.031-7.821-1.673l.032-.031a42.338,42.338,0,0,1,13.506-9.107q1.645-.7,3.334-1.247" transform="translate(-96.852 -14.72)" fill="#d0006f"/>
    <path id="Path_1304" data-name="Path 1304" d="M18.541,137.86a59.473,59.473,0,0,0-2.52,7.086,64.173,64.173,0,0,0-2.445,15.894H0a42.308,42.308,0,0,1,9.55-25.029c2.9.792,5.9,1.477,8.991,2.049" transform="translate(0 -120.427)" fill="#d0006f"/>
    <path id="Path_1305" data-name="Path 1305" d="M176.1,161.055V181.9h-23.27a60.442,60.442,0,0,1,2.3-14.864,55.126,55.126,0,0,1,2.729-7.474,133.141,133.141,0,0,0,18.243,1.491" transform="translate(-135.521 -141.49)" fill="#d0006f"/>
    <path id="Path_1306" data-name="Path 1306" d="M414.5,181.9h-23.27V161.055a133.164,133.164,0,0,0,18.243-1.491,55.105,55.105,0,0,1,2.729,7.474,60.431,60.431,0,0,1,2.3,14.864" transform="translate(-346.913 -141.49)" fill="#d0006f"/>
    <path id="Path_1307" data-name="Path 1307" d="M604.355,160.846H590.778a64.171,64.171,0,0,0-2.445-15.894,59.526,59.526,0,0,0-2.52-7.086c3.087-.572,6.093-1.257,8.991-2.048a42.306,42.306,0,0,1,9.55,25.028" transform="translate(-519.457 -120.433)" fill="#d0006f"/>
    <path id="Path_1308" data-name="Path 1308" d="M604.355,389.734a42.306,42.306,0,0,1-9.55,25.028c-2.9-.792-5.9-1.476-8.991-2.048a59.528,59.528,0,0,0,2.52-7.086,64.171,64.171,0,0,0,2.445-15.894Z" transform="translate(-519.457 -345.588)" fill="#d0006f"/>
    <path id="Path_1309" data-name="Path 1309" d="M414.5,389.734a60.431,60.431,0,0,1-2.3,14.864,55.1,55.1,0,0,1-2.729,7.474,133.164,133.164,0,0,0-18.243-1.49V389.734Z" transform="translate(-346.913 -345.588)" fill="#d0006f"/>
    <path id="Path_1310" data-name="Path 1310" d="M176.1,389.734v20.848a133.161,133.161,0,0,0-18.243,1.49,55.118,55.118,0,0,1-2.729-7.474,60.442,60.442,0,0,1-2.3-14.864Z" transform="translate(-135.521 -345.588)" fill="#d0006f"/>
    <path id="Path_1311" data-name="Path 1311" d="M18.542,412.714c-3.088.572-6.094,1.257-8.992,2.049A42.31,42.31,0,0,1,0,389.734H13.577a64.174,64.174,0,0,0,2.445,15.894,59.385,59.385,0,0,0,2.52,7.086" transform="translate(0 -345.588)" fill="#d0006f"/>
    <path id="Path_1312" data-name="Path 1312" d="M126.1,635.509q-1.687-.552-3.334-1.248a42.338,42.338,0,0,1-13.506-9.107l-.032-.031c2.534-.641,5.147-1.2,7.821-1.673q1.074,2.073,2.3,4a39.162,39.162,0,0,0,6.75,8.064" transform="translate(-96.852 -552.83)" fill="#d0006f"/>
    <path id="Path_1313" data-name="Path 1313" d="M229.194,606.751v15.83a16.478,16.478,0,0,1-6.747-2.975,32.692,32.692,0,0,1-8.2-8.983q-.809-1.262-1.545-2.6a129.715,129.715,0,0,1,16.488-1.27" transform="translate(-188.612 -538.022)" fill="#d0006f"/>
    <path id="Path_1314" data-name="Path 1314" d="M407.718,608.021q-.737,1.337-1.545,2.6a32.689,32.689,0,0,1-8.2,8.983,16.476,16.476,0,0,1-6.747,2.975v-15.83a129.714,129.714,0,0,1,16.488,1.27" transform="translate(-346.914 -538.022)" fill="#d0006f"/>
    <path id="Path_1315" data-name="Path 1315" d="M508.19,625.123l-.032.031a42.339,42.339,0,0,1-13.506,9.107q-1.646.7-3.334,1.248a39.17,39.17,0,0,0,6.75-8.064q1.229-1.919,2.3-4c2.674.473,5.287,1.031,7.821,1.673" transform="translate(-435.664 -552.83)" fill="#d0006f"/>
  </g>
</svg>
