<svg xmlns="http://www.w3.org/2000/svg" xmlns:xlink="http://www.w3.org/1999/xlink" width="72.696" height="89.196" viewBox="0 0 72.696 89.196">
  <defs>
    <clipPath id="clip-path">
      <rect id="Rectangle_1523" data-name="Rectangle 1523" width="72.696" height="89.196" fill="#fff"/>
    </clipPath>
  </defs>
  <g id="t3s1_p3_5a" clip-path="url(#clip-path)">
    <path id="Path_1358" data-name="Path 1358" d="M72.7,36.348c0-3.118-3.408-5.746-4.176-8.622-.8-2.975.818-6.951-.689-9.556-1.529-2.642-5.793-3.224-7.937-5.368s-2.726-6.409-5.368-7.937c-2.605-1.507-6.581.106-9.556-.689C42.094,3.408,39.466,0,36.348,0S30.6,3.408,27.726,4.176c-2.975.8-6.951-.818-9.556.689C15.528,6.394,14.947,10.658,12.8,12.8s-6.409,2.726-7.937,5.368c-1.507,2.6.106,6.581-.689,9.556C3.408,30.6,0,33.23,0,36.348s3.408,5.746,4.176,8.622c.8,2.975-.818,6.951.689,9.556,1.529,2.642,5.793,3.224,7.937,5.368s2.726,6.409,5.368,7.937c2.6,1.507,6.581-.106,9.556.689,2.875.768,5.5,4.176,8.622,4.176s5.746-3.408,8.622-4.176c2.975-.8,6.951.818,9.556-.689,2.642-1.529,3.224-5.793,5.368-7.937s6.409-2.726,7.937-5.368c1.507-2.6-.106-6.581.689-9.556.768-2.875,4.176-5.5,4.176-8.622M36.348,61.785A25.437,25.437,0,1,1,61.785,36.348,25.466,25.466,0,0,1,36.348,61.785" fill="#fff"/>
    <path id="Path_1359" data-name="Path 1359" d="M252.174,326.65c-.973,2.032-2.076,4.334-4.389,5.672a9.184,9.184,0,0,1-4.665,1.083c-.814,0-1.61-.059-2.38-.117-.693-.052-1.347-.1-1.942-.1a5.2,5.2,0,0,0-1.309.131,3.564,3.564,0,0,0-.639.254l10.09,17.476,4.788-11.888,12.689,1.8-10.1-17.487a3.707,3.707,0,0,0-.54.431,11.235,11.235,0,0,0-1.608,2.748" transform="translate(-191.733 -261.851)" fill="#fff"/>
    <path id="Path_1360" data-name="Path 1360" d="M25.673,333.186c-.6,0-1.25.049-1.943.1-.769.058-1.565.117-2.379.117a9.187,9.187,0,0,1-4.665-1.083c-2.313-1.338-3.416-3.641-4.389-5.673a11.244,11.244,0,0,0-1.608-2.748,3.708,3.708,0,0,0-.54-.431L.053,340.956l12.69-1.8,4.788,11.888,10.09-17.476a3.564,3.564,0,0,0-.639-.254,5.208,5.208,0,0,0-1.309-.13" transform="translate(-0.043 -261.851)" fill="#fff"/>
    <path id="Path_1361" data-name="Path 1361" d="M102.156,81.293a20.862,20.862,0,1,0,20.862,20.862,20.886,20.886,0,0,0-20.862-20.862m14.072,16.981-6.253,6.1a.71.71,0,0,0-.2.629l1.476,8.607a.71.71,0,0,1-1.031.749l-7.729-4.064a.71.71,0,0,0-.661,0L94.1,114.354a.71.71,0,0,1-1.031-.749L94.542,105a.71.71,0,0,0-.2-.629l-6.253-6.1a.71.71,0,0,1,.394-1.212l8.642-1.256a.711.711,0,0,0,.535-.388l3.865-7.831a.71.71,0,0,1,1.274,0l3.865,7.831a.712.712,0,0,0,.535.388l8.642,1.256a.71.71,0,0,1,.394,1.212" transform="translate(-65.808 -65.807)" fill="#fff"/>
  </g>
</svg>
