<?xml version="1.0" standalone="no"?>
<!DOCTYPE svg PUBLIC "-//W3C//DTD SVG 1.1//EN" "http://www.w3.org/Graphics/SVG/1.1/DTD/svg11.dtd" >
<svg xmlns="http://www.w3.org/2000/svg" xmlns:xlink="http://www.w3.org/1999/xlink" version="1.1">
<metadata>
Created by FontForge 20170731 at Tue Aug  9 02:49:47 2022
 By Aleksey,,,
Copyright   2002, Underware. All rights reserved.
</metadata>
<defs>
<font id="Sauna-Bold" horiz-adv-x="1124" >
  <font-face 
    font-family="Sauna-Bold"
    font-weight="700"
    font-stretch="normal"
    units-per-em="2048"
    panose-1="0 0 0 0 0 0 0 0 0 0"
    ascent="1638"
    descent="-410"
    x-height="844"
    cap-height="1106"
    bbox="-121 -469 2198 1870"
    underline-thickness="40"
    underline-position="-312"
    unicode-range="U+000D-FB02"
  />
<missing-glyph horiz-adv-x="1904" 
 />
    <glyph glyph-name=".notdef" horiz-adv-x="1904" 
 />
    <glyph glyph-name=".notdef" horiz-adv-x="1904" 
 />
    <glyph glyph-name=".null" horiz-adv-x="0" 
 />
    <glyph glyph-name="nonmarkingreturn" horiz-adv-x="682" 
 />
    <glyph glyph-name="CR" unicode="&#xd;" horiz-adv-x="0" 
 />
    <glyph glyph-name="space" unicode=" " horiz-adv-x="391" 
 />
    <glyph glyph-name="space" unicode="&#xa0;" horiz-adv-x="391" 
 />
    <glyph glyph-name="exclam" unicode="!" horiz-adv-x="589" 
d="M483 1243l-39 -700q-2 -56 -36.5 -81.5t-116.5 -25.5q-74 0 -127 33l-25 606q-5 117 33 163t141 46q102 0 170 -41zM471 154q0 -73 -44.5 -118.5t-137.5 -45.5q-82 0 -124 35t-42 116q0 73 48 116.5t140 43.5q160 0 160 -147z" />
    <glyph glyph-name="quotedbl" unicode="&#x22;" horiz-adv-x="983" 
d="M410 1120l-4 -119l-7 -286q-1 -50 -37 -76.5t-98 -26.5q-81 0 -137 23l-14 369q-2 68 37.5 106.5t125.5 38.5q87 0 134 -29zM870 1120l-4 -119l-6 -286q-1 -50 -37 -76.5t-98 -26.5q-81 0 -137 23l-15 369q-2 68 38 106.5t126 38.5t133 -29z" />
    <glyph glyph-name="numbersign" unicode="#" horiz-adv-x="878" 
d="M838 582q0 -90 -121 -90h-43l-21 -134h17l118 2q21 -29 21 -69q0 -90 -123 -90h-61l-25 -150q-6 -35 -24 -47t-56 -12q-44 0 -71 24l28 187l-153 2l-25 -154q-6 -35 -25 -47t-57 -12q-45 0 -72 24l31 191l-113 2q-22 28 -22 72q0 34 24 55.5t66 21.5h72l20 140l-131 2
q-22 25 -22 71q0 35 23.5 56.5t66.5 21.5h88l20 121q7 58 29 80t68 22q42 0 71 -22l-18 -98l-19 -103h152l18 121q9 58 30.5 80t66.5 22q42 0 71 -22l-18 -98l-17 -105l115 4q21 -29 21 -69zM524 494l-151 2l-23 -138h154z" />
    <glyph glyph-name="dollar" unicode="$" horiz-adv-x="835" 
d="M532 -145q0 -49 -26.5 -70t-79.5 -21q-60 0 -100 19l2 207q-291 14 -291 162q0 35 20 64.5t52 41.5q45 -32 127 -53t149 -21q119 0 119 54q0 20 -9.5 30.5t-43 19t-107.5 17.5q-145 20 -211.5 79.5t-66.5 166.5q0 101 70.5 180t199.5 109v135q0 59 28.5 83.5t94.5 24.5
q64 0 96 -16v-215q244 -19 244 -152q0 -39 -21.5 -72.5t-64.5 -47.5q-95 57 -248 57q-123 0 -123 -57q0 -30 24 -42t109 -22q172 -24 241.5 -79t69.5 -161q0 -104 -62.5 -176.5t-191.5 -99.5v-145z" />
    <glyph glyph-name="percent" unicode="%" horiz-adv-x="1603" 
d="M1231 823l-662 -860q-26 -35 -48.5 -51t-55.5 -16q-44 0 -78 19.5t-47 55.5l629 830q25 34 34 45t28 30t36 25t39 6q96 0 125 -84zM627 598q0 -141 -83 -212t-229 -71q-128 0 -196 61.5t-68 184.5q0 129 76 212t227 83q134 0 203.5 -66.5t69.5 -191.5zM463 586
q0 121 -105 121q-118 0 -118 -127q0 -119 108 -119q52 0 83.5 32.5t31.5 92.5zM1552 270q0 -141 -82.5 -211.5t-228.5 -70.5q-128 0 -196 61t-68 184q0 129 76 212t227 83q134 0 203 -66.5t69 -191.5zM1389 258q0 121 -105 121q-119 0 -119 -127q0 -119 109 -119
q52 0 83.5 32.5t31.5 92.5z" />
    <glyph glyph-name="ampersand" unicode="&#x26;" horiz-adv-x="1296" 
d="M1247 117q0 -61 -61 -99t-172 -38q-78 0 -117 18.5t-96 81.5q-72 -47 -148 -70.5t-178 -23.5q-209 0 -310.5 82t-101.5 249q0 104 65 182t194 109q-72 68 -100.5 127.5t-28.5 134.5q0 126 95 205.5t279 79.5q130 0 188 -34.5t58 -104.5q0 -29 -12 -55t-29 -37
q-64 22 -164 22q-73 0 -110 -27.5t-37 -72.5q0 -31 24.5 -65t108.5 -117l262 -258q31 53 31 118q0 89 -17 152q33 33 99 33q141 0 141 -164q0 -162 -106 -305q51 -54 102 -54q67 0 102 13q39 -31 39 -82zM672 231l-232 242q-47 -12 -73.5 -47.5t-26.5 -89.5q0 -146 170 -146
q91 0 162 41z" />
    <glyph glyph-name="quotesingle" unicode="'" horiz-adv-x="501" 
d="M412 1120l-4 -119l-9 -286q0 -50 -36 -76.5t-99 -26.5q-81 0 -137 23l-12 369q-3 67 36.5 106t124.5 39q89 0 136 -29z" />
    <glyph glyph-name="parenleft" unicode="(" horiz-adv-x="716" 
d="M131 444q0 205 33.5 366t91.5 260t131.5 149.5t157.5 50.5q66 0 101.5 -37.5t23.5 -102.5q-170 -87 -230.5 -236.5t-60.5 -447.5q0 -122 6.5 -207t24.5 -162.5t50.5 -134t82 -105.5t121.5 -93q4 -63 -37 -90t-121 -27q-78 0 -144.5 47.5t-119 143t-82 256t-29.5 370.5z
" />
    <glyph glyph-name="parenright" unicode=")" horiz-adv-x="716" 
d="M586 451q0 -205 -33.5 -366t-91 -260t-131 -149.5t-158.5 -50.5q-66 0 -101 37.5t-22 101.5q169 87 229 237t60 448q0 153 -10.5 252.5t-41.5 186t-86.5 148t-144.5 115.5q-6 63 36 90t122 27q62 0 116.5 -29t102 -92.5t81.5 -157.5t53.5 -231.5t19.5 -306.5z" />
    <glyph glyph-name="asterisk" unicode="*" horiz-adv-x="1026" 
d="M229 518q-76 52 -57 115l195 201l-279 65q-39 44 -16 119q28 89 92 92l266 -127l-20 289q32 51 106 51q94 0 117 -57l-43 -291l270 119q31 -7 52.5 -31t31.5 -55q28 -91 -20 -129l-273 -48l176 -213q8 -60 -55 -104q-75 -56 -127 -20l-139 260l-158 -256q-56 -25 -119 20
z" />
    <glyph glyph-name="plus" unicode="+" horiz-adv-x="958" 
d="M82 426q0 46 31.5 71t87.5 25h153v131q0 156 133 156q71 0 109 -25l-4 -262h137l119 4q26 -33 26 -88q0 -117 -155 -114h-127v-134q1 -62 -31 -97.5t-88 -35.5q-66 0 -113 29v68v174l-247 4q-31 36 -31 94z" />
    <glyph glyph-name="comma" unicode="," horiz-adv-x="630" 
d="M549 51q0 -134 -91.5 -225.5t-224.5 -91.5q-83 0 -83 65q0 15 2 25q87 39 120 73.5t33 75.5q0 93 -170 109q-10 23 -10 63q0 69 46 113.5t134 44.5q121 0 182.5 -67t61.5 -185z" />
    <glyph glyph-name="hyphen" unicode="-" horiz-adv-x="702" 
d="M651 467q0 -122 -157 -119l-418 8q-31 36 -31 99q0 46 32 74t87 28h330l129 4q28 -36 28 -94z" />
    <glyph glyph-name="hyphen" unicode="&#xad;" horiz-adv-x="702" 
d="M651 467q0 -122 -157 -119l-418 8q-31 36 -31 99q0 46 32 74t87 28h330l129 4q28 -36 28 -94z" />
    <glyph glyph-name="period" unicode="." horiz-adv-x="593" 
d="M471 154q0 -73 -44.5 -118.5t-137.5 -45.5q-82 0 -124 35t-42 116q0 73 48 116.5t140 43.5q160 0 160 -147z" />
    <glyph glyph-name="slash" unicode="/" horiz-adv-x="804" 
d="M821 1231l-512 -1221q-20 -49 -90 -49q-36 0 -75 19t-58 51l487 1175q36 86 125 86q40 0 74 -16.5t49 -44.5z" />
    <glyph glyph-name="zero" unicode="0" horiz-adv-x="1009" 
d="M969 442q0 -227 -133.5 -341.5t-368.5 -114.5q-206 0 -316 100t-110 299q0 99 28.5 182.5t86 149.5t153 103.5t219.5 37.5q218 0 329.5 -107.5t111.5 -308.5zM725 424q0 100 -44.5 157.5t-141.5 57.5q-104 0 -159.5 -56.5t-55.5 -170.5q0 -109 47.5 -161t148.5 -52
q94 0 149.5 58t55.5 167z" />
    <glyph glyph-name="one" unicode="1" horiz-adv-x="811" 
d="M788 129q0 -65 -45.5 -96t-156.5 -31l-500 4q-27 40 -27 90q0 57 54.5 83.5t185.5 29.5v389l-141 -70q-45 9 -72 41.5t-27 81.5q0 43 32.5 76.5t121.5 73.5q77 34 123 46.5t110 12.5q81 0 111.5 -20t30.5 -62v-565h176q24 -43 24 -84z" />
    <glyph glyph-name="two" unicode="2" horiz-adv-x="870" 
d="M836 121q0 -123 -138 -123q-411 6 -534 6q-74 0 -90 -2q-27 39 -27 104q0 37 11 57.5t38 35.5q187 105 276.5 165t119.5 98.5t30 84.5q0 50 -31.5 74t-109.5 24q-60 0 -122.5 -29t-102.5 -71q-51 6 -76 40t-25 85q0 81 103 133.5t278 52.5q191 0 282 -67t91 -199
q0 -111 -75 -188.5t-300 -198.5h379q23 -37 23 -82z" />
    <glyph glyph-name="three" unicode="3" horiz-adv-x="856" 
d="M778 582q0 -100 -51.5 -173.5t-155.5 -95.5q119 -6 180.5 -73.5t61.5 -163.5q0 -187 -139.5 -284t-399.5 -97q-256 0 -256 137q0 74 50 105q32 -11 97 -21t122 -10q107 0 166 33t59 116q0 71 -37.5 103t-134.5 32q-22 0 -84 -4q-39 34 -39 109q0 86 64 86q108 0 156 34
t48 115q0 55 -30.5 83t-100.5 28q-127 0 -207 -96q-48 6 -76 38t-28 85q0 84 95.5 136t283.5 52q356 0 356 -274z" />
    <glyph glyph-name="four" unicode="4" horiz-adv-x="987" 
d="M973 121q0 -65 -32.5 -91t-115.5 -26l2 -151q0 -70 -35 -98.5t-112 -28.5q-80 0 -141 30v246h-478q-38 43 -38 115q0 63 36 108l482 619q12 4 48 8t52 4q115 0 150.5 -42t35.5 -165l-4 -450h129q21 -38 21 -78zM541 199v379l-287 -379h287z" />
    <glyph glyph-name="five" unicode="5" horiz-adv-x="854" 
d="M510 43q0 45 -21 72.5t-82 44t-167 16.5q-84 0 -136 -8q-26 33 -26 123l6 549h537l163 10q35 -43 35 -102q0 -146 -164 -146l-356 2v-194q6 0 29 2t30 2q239 0 342 -86.5t103 -253.5q0 -179 -130 -279t-390 -100q-248 0 -248 137q0 75 49 105q32 -12 93.5 -21.5
t117.5 -9.5q215 0 215 137z" />
    <glyph glyph-name="six" unicode="6" horiz-adv-x="942" 
d="M907 1012q0 -75 -49 -105q-31 11 -103 21t-130 10q-151 0 -218.5 -73.5t-82.5 -241.5q32 52 100.5 79t150.5 27q156 0 234 -80.5t78 -234.5q0 -205 -115 -314.5t-321 -109.5q-207 0 -304.5 122.5t-97.5 370.5q0 161 30.5 280.5t98 208t182 133t275.5 44.5
q131 0 201.5 -36.5t70.5 -100.5zM637 375q0 82 -37.5 122t-116.5 40q-94 0 -161 -60q0 -49 2.5 -84t12.5 -72.5t26.5 -60.5t47 -38t72.5 -15q66 0 110 44t44 124z" />
    <glyph glyph-name="seven" unicode="7" horiz-adv-x="888" 
d="M868 733q0 -36 -8 -63t-31 -68q-80 -146 -192 -384t-193 -435q-17 -40 -47.5 -57t-87.5 -17q-104 0 -127 64q80 180 221 469t187 360h-537q-35 35 -35 109q0 138 189 135l624 -6q37 -34 37 -107z" />
    <glyph glyph-name="eight" unicode="8" horiz-adv-x="970" 
d="M928 358q0 -176 -127 -273t-355 -97q-403 0 -403 309q0 94 63 172t175 106q-87 39 -132 109.5t-45 163.5q0 146 103 233.5t311 87.5q186 0 275.5 -72.5t89.5 -203.5q0 -94 -52.5 -165t-138.5 -99q128 -44 182 -110.5t54 -160.5zM641 850q0 58 -36.5 93.5t-98.5 35.5
q-61 0 -95 -33t-34 -88q0 -107 153 -160q111 50 111 152zM637 311q0 58 -52.5 100.5t-158.5 75.5q-115 -59 -115 -161q0 -146 160 -146q76 0 121 33.5t45 97.5z" />
    <glyph glyph-name="nine" unicode="9" horiz-adv-x="942" 
d="M893 360q0 -161 -30.5 -280t-98 -207.5t-182.5 -133t-277 -44.5q-131 0 -200.5 36.5t-69.5 100.5q0 75 49 105q31 -11 103 -21t130 -10q148 0 215.5 74.5t81.5 238.5q-32 -52 -98.5 -78t-150.5 -26q-312 0 -312 315q0 205 115 314.5t321 109.5q208 0 306 -123t98 -371z
M616 362q0 53 -3 91t-13 75t-26.5 59.5t-45.5 36t-69 13.5q-68 0 -111 -43.5t-43 -124.5q0 -82 37.5 -122t116.5 -40q93 0 157 55z" />
    <glyph glyph-name="colon" unicode=":" horiz-adv-x="593" 
d="M471 635q0 -73 -44.5 -118.5t-137.5 -45.5q-82 0 -124 35t-42 117q0 73 48 116t140 43q160 0 160 -147zM471 190q0 -73 -44.5 -118t-137.5 -45q-82 0 -124 35t-42 116q0 73 48 116.5t140 43.5q160 0 160 -148z" />
    <glyph glyph-name="semicolon" unicode=";" horiz-adv-x="630" 
d="M549 51q0 -134 -91.5 -225.5t-224.5 -91.5q-83 0 -83 65q0 15 2 25q87 39 120 73.5t33 75.5q0 93 -170 109q-10 23 -10 63q0 69 46 113.5t134 44.5q121 0 182.5 -67t61.5 -185zM471 635q0 -73 -44.5 -118.5t-137.5 -45.5q-82 0 -124 35t-42 117q0 73 48 116t140 43
q160 0 160 -147z" />
    <glyph glyph-name="semicolon" unicode="&#x37e;" horiz-adv-x="630" 
d="M549 51q0 -134 -91.5 -225.5t-224.5 -91.5q-83 0 -83 65q0 15 2 25q87 39 120 73.5t33 75.5q0 93 -170 109q-10 23 -10 63q0 69 46 113.5t134 44.5q121 0 182.5 -67t61.5 -185zM471 635q0 -73 -44.5 -118.5t-137.5 -45.5q-82 0 -124 35t-42 117q0 73 48 116t140 43
q160 0 160 -147z" />
    <glyph glyph-name="less" unicode="&#x3c;" horiz-adv-x="849" 
d="M131 291q-37 21 -48 49t-11 74q0 92 61 127l518 305q111 -9 111 -115q0 -66 -57 -102l-328 -201l334 -217q51 -33 51 -107q0 -50 -32.5 -78.5t-84.5 -33.5z" />
    <glyph glyph-name="equal" unicode="=" horiz-adv-x="913" 
d="M831 602q0 -118 -147 -115l-573 11q-29 36 -29 92q0 45 30.5 71.5t82.5 26.5h487l123 2q26 -30 26 -88zM831 268q0 -115 -147 -112l-573 8q-29 36 -29 94q0 43 30.5 69.5t82.5 26.5h487l123 4q26 -33 26 -90z" />
    <glyph glyph-name="greater" unicode="&#x3e;" horiz-adv-x="849" 
d="M719 549h-2q38 -21 48.5 -48.5t10.5 -74.5q0 -93 -59 -127l-518 -305q-111 9 -111 115q0 66 57 102l326 201l-332 217q-51 33 -51 106q0 50 32.5 79t84.5 34z" />
    <glyph glyph-name="question" unicode="?" horiz-adv-x="950" 
d="M526 154q0 -73 -44.5 -118.5t-137.5 -45.5q-82 0 -124 35t-42 116q0 73 48.5 116.5t140.5 43.5q159 0 159 -147zM420 395q-30 -12 -70 -12q-72 0 -113.5 40.5t-41.5 119.5q0 86 44 137t146 78q180 44 207 73q12 14 12 35q0 61 -96 99.5t-281 38.5q-33 0 -63 -3
q-41 38 -41 103q0 158 213 158q151 0 282 -42.5t214 -124t83 -184.5q0 -116 -65 -175.5t-188 -94.5q-55 -16 -86.5 -26.5t-60.5 -25.5t-42.5 -29t-25.5 -39.5t-17 -53t-10 -72.5z" />
    <glyph glyph-name="at" unicode="@" horiz-adv-x="1613" 
d="M43 281q0 176 60.5 333t171 277t278.5 190t371 70q173 0 300.5 -42.5t202 -121t109.5 -178.5t35 -225q0 -165 -68 -301t-186.5 -213.5t-261.5 -77.5q-152 0 -152 125l2 26q-56 -153 -250 -153q-118 0 -179.5 78.5t-61.5 234.5q0 228 117 369t300 141q111 0 160 -41
q26 39 90 39q75 0 136 -45l-72 -467q-10 -78 -10 -88q0 -18 26 -18q75 0 143 103.5t68 266.5q0 204 -116 307t-363 103q-185 0 -333 -87t-229.5 -236.5t-82.5 -332.5q-1 -249 103 -356.5t315 -107.5q150 0 274 57q18 -11 30.5 -33.5t12.5 -46.5q0 -68 -90 -114t-250 -46
q-292 0 -446 147.5t-154 463.5zM762 180q34 0 70 16t61 48l53 370q-41 13 -84 13q-92 0 -146 -77t-54 -208q0 -90 22.5 -126t77.5 -36z" />
    <glyph glyph-name="A" unicode="A" horiz-adv-x="1169" 
d="M1169 109q0 -63 -51 -92t-174 -29q-61 0 -98.5 17.5t-59.5 68.5l-77 180h-359l-104 -256q-37 -8 -94 -8q-62 0 -94.5 26t-32.5 86q0 41 28 109l357 799q26 58 63.5 81t101.5 23q45 0 107 -18l403 -918l66 -2q18 -32 18 -67zM647 430l-119 324l-120 -324h239z" />
    <glyph glyph-name="B" unicode="B" horiz-adv-x="1128" 
d="M1075 356q0 -186 -150 -277t-415 -91q-141 0 -214 7t-106.5 24t-39.5 51q-9 68 -9 424l2 426l-106 4q-19 34 -19 80q0 37 17 57.5t72 32.5t159 12h338q221 0 323.5 -73.5t102.5 -217.5q0 -67 -34.5 -128t-94.5 -91q89 -31 131.5 -94t42.5 -146zM758 778q0 148 -205 148
q-32 0 -98 -4v-283q82 -4 147 -4q82 0 119 35.5t37 107.5zM778 338q0 66 -46 99.5t-152 33.5q-55 0 -125 -4v-287q54 -8 123 -8q200 0 200 166z" />
    <glyph glyph-name="C" unicode="C" horiz-adv-x="1024" 
d="M979 170q0 32 -18.5 65.5t-53.5 47.5q-144 -72 -295 -72q-120 0 -182.5 73.5t-62.5 241.5q0 183 79.5 278t258.5 95q130 0 219 -47q35 23 50 48.5t15 68.5q0 82 -67.5 117.5t-245.5 35.5q-299 0 -463 -164.5t-164 -455.5q0 -259 130.5 -387.5t381.5 -128.5
q210 0 314 48.5t104 135.5z" />
    <glyph glyph-name="D" unicode="D" horiz-adv-x="1206" 
d="M1159 604q0 -161 -45.5 -280.5t-132 -192.5t-204 -108t-267.5 -35q-193 0 -271 18t-87 68q-11 83 -11 420l2 426l-106 4q-19 34 -19 80q0 37 17.5 57.5t72.5 32.5t158 12h326q123 0 220 -24.5t161.5 -68.5t106.5 -107.5t60.5 -138t18.5 -163.5zM858 565q0 179 -77 262.5
t-240 83.5l-90 -2v-721q75 -6 112 -6q150 0 222.5 90t72.5 293z" />
    <glyph glyph-name="E" unicode="E" horiz-adv-x="1042" 
d="M147 494l3 421l-107 5q-18 32 -18 84q0 54 43 78t163 24h625l117 4q26 -33 26 -74q0 -135 -182 -135h-356v-250h438q19 -34 19 -76q0 -64 -41.5 -94t-139.5 -30h-276v-250h510q14 -25 14 -66q0 -59 -33 -87t-120.5 -40t-270.5 -12q-179 0 -258.5 6.5t-110 22.5t-36.5 53
q-9 68 -9 416z" />
    <glyph glyph-name="F" unicode="F" horiz-adv-x="952" 
d="M143 915l-106 5q-19 34 -19 84q0 54 43.5 78t163.5 24h584l117 4q26 -33 26 -74q0 -135 -182 -135h-315v-270h397q18 -32 18 -76q0 -64 -41 -95.5t-139 -31.5h-235v-414q-41 -24 -160 -24q-133 0 -145 73q-9 68 -9 431z" />
    <glyph glyph-name="G" unicode="G" horiz-adv-x="1138" 
d="M1063 451v-301q0 -72 -133.5 -117t-347.5 -45q-268 0 -400.5 125t-132.5 389q0 294 165 457t482 163q181 0 257.5 -36t76.5 -117q0 -43 -15 -68.5t-50 -48.5q-37 20 -109.5 33.5t-134.5 13.5q-202 0 -283.5 -94t-81.5 -287q0 -125 29 -195.5t86.5 -99t157.5 -28.5
q73 0 139 16v145l-137 4q-19 34 -19 80q0 57 52 84t176 27q132 0 177.5 -22t45.5 -78z" />
    <glyph glyph-name="H" unicode="H" horiz-adv-x="1292" 
d="M141 494l2 426l-106 4q-19 34 -19 80q0 57 52 83.5t176 26.5q207 0 207 -72l-2 -393h395q5 283 6 307q4 94 51 127t135 33q32 0 70 -8t57 -18l-8 -181v-729l103 -2q14 -25 14 -63q0 -119 -207 -119q-53 0 -84 1.5t-58 8.5t-39.5 16.5t-21.5 30t-11 44t-3 63.5v293h-399
v-437q-46 -22 -156 -22q-75 0 -107 17t-38 55q-9 68 -9 428z" />
    <glyph glyph-name="I" unicode="I" horiz-adv-x="686" 
d="M492 184h126q19 -34 19 -73q0 -60 -49.5 -86.5t-153.5 -26.5l-366 2q-19 34 -19 68q0 59 31 84t100 28q-2 209 -2 338l2 402l-123 4q-18 32 -18 80q0 52 40 77t105 25h445q18 -32 18 -68q0 -65 -38 -90.5t-117 -25.5v-738z" />
    <glyph glyph-name="J" unicode="J" horiz-adv-x="591" 
d="M135 -45q-10 -21 -51.5 -30t-126.5 -9q-18 -30 -18 -84q0 -56 37.5 -84.5t105.5 -28.5q90 0 158.5 23t121 74.5t80 140t27.5 213.5l-2 872q0 72 -209 72q-124 0 -175.5 -26.5t-51.5 -83.5q0 -48 18 -80l105 -4v-687q0 -115 -2.5 -174t-5.5 -73t-11 -31z" />
    <glyph glyph-name="K" unicode="K" horiz-adv-x="1163" 
d="M141 494l2 426l-106 4q-19 34 -19 80q0 57 52 83.5t176 26.5q209 0 209 -72v-385l399 392q36 34 69 48.5t78 14.5q54 0 84.5 -27.5t30.5 -72.5q0 -31 -10 -58l-387 -362l323 -416h88q19 -34 19 -67q0 -62 -57.5 -90.5t-173.5 -28.5q-38 0 -52 0.5t-37.5 4t-33.5 10.5
t-28.5 22t-33.5 35.5t-39 54.5l-239 342v-443q-38 -22 -160 -22q-76 0 -107.5 15.5t-37.5 53.5q-9 68 -9 431z" />
    <glyph glyph-name="L" unicode="L" horiz-adv-x="948" 
d="M913 201q15 -27 15 -66q0 -38 -10.5 -61t-33.5 -39.5t-72.5 -24.5t-112.5 -11t-169 -3q-169 0 -245.5 7.5t-102 24t-32.5 54.5q-9 68 -9 412l2 426l-106 4q-19 34 -19 80q0 57 52 83.5t176 26.5q211 0 211 -72l-2 -841h458z" />
    <glyph glyph-name="M" unicode="M" horiz-adv-x="1540" 
d="M860 164q-48 -25 -115 -25q-58 0 -91.5 15t-51.5 57l-223 522v-725q-51 -14 -105 -14q-72 0 -99 15.5t-30 51.5q-8 71 -8 437q0 104 6 422l-106 4q-19 34 -19 80q0 62 61.5 86t227.5 24q88 0 138.5 -15t76 -43t49.5 -85l217 -504l273 555q27 55 61 74.5t105 19.5
q160 0 219 -59l-10 -152v-889q-40 -22 -160 -22q-68 0 -99.5 17t-37.5 55q-9 67 -9 428l3 256z" />
    <glyph glyph-name="N" unicode="N" horiz-adv-x="1280" 
d="M139 498q0 -377 4 -432q3 -39 28.5 -55.5t102.5 -16.5q61 0 109 20v676l459 -643q26 -37 54.5 -47t100.5 -10q39 0 91.5 12.5t76.5 26.5q2 308 2 546v37q0 350 -19.5 427t-123.5 77q-74 0 -111 -24q5 -180 5 -387v-291l-416 575q-55 75 -97.5 100t-125.5 25
q-103 0 -160.5 -12.5t-79 -35.5t-21.5 -62q0 -46 19 -80l106 -4q-4 -212 -4 -422z" />
    <glyph glyph-name="O" unicode="O" horiz-adv-x="1220" 
d="M1171 588q0 -286 -149 -444t-438 -158q-129 0 -224.5 26.5t-167 85.5t-107.5 159.5t-36 242.5q0 286 155.5 454t438.5 168q273 0 400.5 -134t127.5 -400zM872 559q0 85 -10.5 143t-36.5 104t-75 67.5t-123 21.5q-143 0 -206 -94.5t-63 -274.5q0 -186 56.5 -258.5
t195.5 -72.5q262 0 262 364z" />
    <glyph glyph-name="P" unicode="P" horiz-adv-x="1101" 
d="M1057 805q0 -194 -118 -298t-347 -104q-22 0 -137 7v-392q-78 -22 -160 -22q-132 0 -145 78q-9 68 -9 420l2 426l-106 4q-19 34 -19 80q0 54 43.5 78t163.5 24l353 2q255 1 367 -76.5t112 -226.5zM772 768q0 75 -44 113.5t-148 38.5q-42 0 -125 -5v-321q58 -6 139 -6
q90 0 134 42t44 138z" />
    <glyph glyph-name="Q" unicode="Q" horiz-adv-x="1226" 
d="M1190 -178q0 -68 -66 -109t-211 -41q-46 0 -75.5 3.5t-58.5 17.5t-47.5 31.5t-44 57.5t-47 83t-56.5 119q-129 1 -224.5 28t-167 86t-107.5 159.5t-36 242.5q0 286 155.5 454t438.5 168q273 0 400.5 -134t127.5 -400q0 -209 -80.5 -352t-238.5 -205q56 -93 83 -117.5
t71 -24.5q92 0 159 15q25 -32 25 -82zM872 559q0 85 -10.5 143t-36.5 104t-75 67.5t-123 21.5q-143 0 -206 -94.5t-63 -274.5q0 -186 56.5 -259.5t195.5 -73.5q262 0 262 366z" />
    <glyph glyph-name="R" unicode="R" horiz-adv-x="1140" 
d="M748 59l-181 381q-96 0 -112 2v-424q-78 -22 -160 -22q-132 0 -145 78q-9 68 -9 420l2 426l-106 4q-19 34 -19 80q0 54 43.5 78t163.5 24l355 2q171 1 278.5 -36.5t153 -103.5t45.5 -163q0 -234 -199 -326l172 -303h82q18 -32 18 -67q0 -67 -55 -93t-194 -26
q-52 0 -83.5 15.5t-49.5 53.5zM786 768q0 152 -198 152q-50 0 -133 -5v-309q82 -4 157 -4q84 0 129 43t45 123z" />
    <glyph glyph-name="S" unicode="S" horiz-adv-x="964" 
d="M920 358q0 -76 -28.5 -142t-84.5 -117.5t-147.5 -81t-208.5 -29.5q-214 0 -311 43t-97 133q0 38 23 72.5t65 50.5q61 -38 139.5 -63t149.5 -25q194 0 194 100q0 39 -48 62.5t-210 68.5q-127 37 -198.5 108.5t-71.5 194.5q0 167 127.5 275t351.5 108q179 0 268 -50
t89 -130q0 -92 -97 -117q-29 29 -108 52.5t-144 23.5q-99 0 -149.5 -30t-50.5 -77q0 -32 22 -52.5t77 -41.5t177 -57q139 -40 205 -107.5t66 -171.5z" />
    <glyph glyph-name="T" unicode="T" horiz-adv-x="997" 
d="M31 903q-21 35 -21 86q0 62 41 91.5t148 29.5h645l119 4q24 -31 24 -80q0 -65 -42.5 -98t-139.5 -33h-162l-2 -889q-41 -24 -160 -24q-133 0 -145 73q-8 60 -8 431l2 409h-299z" />
    <glyph glyph-name="U" unicode="U" horiz-adv-x="1226" 
d="M457 1010q-2 -168 -2 -193q0 -23 -1 -215.5t-1 -212.5q0 -103 45.5 -143.5t152.5 -40.5q195 0 203 190q6 120 6 303q0 224 -6 394q46 24 107 24q72 0 105 -24.5t47.5 -97t14.5 -228.5q0 -252 -12 -377q-21 -193 -142.5 -297t-344.5 -104q-139 0 -228.5 19.5t-151.5 69.5
t-88 134.5t-26 216.5q0 153 6 492l-104 4q-19 34 -19 80q0 57 52 83.5t176 26.5q95 0 141.5 -12t58 -31.5t11.5 -60.5z" />
    <glyph glyph-name="V" unicode="V" horiz-adv-x="1177" 
d="M1151 1010q0 -66 -53 -187l-350 -805q-65 -26 -181 -26q-82 0 -112 21.5t-60 95.5l-323 813l-68 2q-12 24 -12 71q0 65 55.5 91t181.5 26q78 0 113.5 -26.5t60.5 -92.5l240 -651l291 754q37 18 110 18q51 0 79 -26.5t28 -77.5z" />
    <glyph glyph-name="W" unicode="W" horiz-adv-x="1777" 
d="M393 993l205 -690l217 582l-49 162q14 36 49.5 50.5t116.5 14.5q74 0 103 -23t48 -81l203 -703l248 791q37 18 113 18q52 0 78 -28.5t26 -77.5q0 -66 -45 -185l-297 -805q-68 -26 -195 -26q-85 0 -117 23t-53 96l-135 462l-209 -557q-60 -24 -176 -24q-84 0 -114.5 21.5
t-57.5 95.5l-280 813l-68 2q-12 24 -12 71q0 65 55.5 91t181.5 26q73 0 109 -27.5t55 -91.5z" />
    <glyph glyph-name="X" unicode="X" horiz-adv-x="1130" 
d="M428 1018l166 -246l242 324q50 12 92 12q112 0 112 -92q0 -41 -18.5 -84.5t-75.5 -112.5l-209 -258l275 -385h80q8 -21 8 -55q0 -67 -55 -98t-177 -31q-58 0 -86.5 8t-48.5 27t-53 69l-180 266l-258 -358q-50 -12 -82 -12q-68 0 -98.5 25t-30.5 79q0 58 53 129
q5 8 270 340l-248 357l-63 2q-12 24 -12 71q0 65 55.5 91t181.5 26q62 0 90.5 -16.5t69.5 -77.5z" />
    <glyph glyph-name="Y" unicode="Y" horiz-adv-x="1073" 
d="M96 918l-63 2q-13 26 -13 71q0 65 56 91t182 26q56 0 85.5 -18.5t64.5 -75.5l178 -291l262 375q42 12 94 12q111 0 111 -92q0 -39 -18.5 -81.5t-73.5 -115.5l-254 -338v-469q-44 -24 -160 -24q-134 0 -146 73q-8 45 -8 400z" />
    <glyph glyph-name="Z" unicode="Z" horiz-adv-x="993" 
d="M240 1112h682q39 -48 39 -131q0 -106 -80 -201l-486 -573h549q19 -32 19 -78q0 -66 -45 -98.5t-146 -32.5q-377 4 -549 4h-143q-19 21 -31 54t-12 61q0 52 14 89.5t55 88.5l504 606h-536q-21 30 -21 84q0 127 187 127z" />
    <glyph glyph-name="bracketleft" unicode="[" horiz-adv-x="673" 
d="M602 -264q0 -41 -22 -65.5t-79 -38t-157 -13.5q-114 0 -151 20t-41 91q-9 140 -9 663q0 515 9 682q2 49 5 78t12 54t21.5 37t37.5 21t55 11t79 2q135 0 186.5 -22t51.5 -76q0 -53 -18 -82l-183 -4v-1293l189 -2q14 -24 14 -63z" />
    <glyph glyph-name="backslash" unicode="\" horiz-adv-x="804" 
d="M-16 1231l512 -1221q20 -49 90 -49q35 0 74.5 19t58.5 51l-490 1175q-34 86 -123 86q-40 0 -73.5 -16.5t-48.5 -44.5z" />
    <glyph glyph-name="bracketright" unicode="]" horiz-adv-x="673" 
d="M72 1163q0 61 56 89t204 28q112 0 149 -20t43 -91q6 -93 6 -663q0 -147 -1.5 -308t-3 -264t-1.5 -110q-2 -48 -5 -78t-12.5 -54.5t-22.5 -37t-38.5 -21t-55.5 -10.5t-79 -2q-135 0 -186 22t-51 76q0 46 18 82l182 4v1293l-188 2q-14 24 -14 63z" />
    <glyph glyph-name="asciicircum" unicode="^" horiz-adv-x="894" 
d="M53 705q0 27 12 56.5t48 90.5l178 301q34 57 69.5 79.5t102.5 22.5q111 0 164 -34l225 -502q-25 -107 -197 -107q-43 0 -67.5 18t-38.5 54l-125 313l-217 -379q-21 -6 -51 -6q-49 0 -76 25.5t-27 67.5z" />
    <glyph glyph-name="underscore" unicode="_" horiz-adv-x="684" 
d="M655 115q0 -117 -157 -117l-418 6q-31 34 -31 98q0 47 32 75.5t85 27.5h332l129 4q28 -36 28 -94z" />
    <glyph glyph-name="grave" unicode="`" horiz-adv-x="968" 
d="M758 1059q0 -37 -23 -66t-61 -41l-395 199q-62 32 -62 109q0 46 33.5 86t85.5 55l377 -264q45 -30 45 -78z" />
    <glyph glyph-name="a" unicode="a" horiz-adv-x="1001" 
d="M1006 111q0 -63 -54.5 -93t-169.5 -30q-95 0 -136.5 28t-41.5 113v33q-38 -174 -289 -174q-137 0 -205.5 62.5t-68.5 170.5q0 260 375 260q73 0 168 -10v80q1 57 -29.5 78.5t-108.5 21.5q-65 0 -133 -29t-112 -73q-63 3 -92 36.5t-29 84.5q0 75 110.5 129.5t313.5 54.5
q174 0 275 -72.5t98 -206.5l-5 -303q-1 -52 9.5 -68t44.5 -16q31 0 51 2q29 -20 29 -79zM580 332q-59 10 -123 10q-69 0 -100 -23t-31 -75q0 -40 24 -60t64 -20q103 0 166 63v105z" />
    <glyph glyph-name="b" unicode="b" horiz-adv-x="1028" 
d="M92 655q2 387 6 494q3 49 43 74.5t109 25.5q93 0 143 -20v-512q71 135 262 135q170 0 254 -98.5t84 -302.5q0 -114 -36.5 -203.5t-102 -146t-153 -86t-191.5 -29.5q-219 0 -312.5 30t-99.5 93q-9 99 -6 546zM709 426q0 121 -35.5 174t-130.5 53q-92 0 -150 -84v-376
q56 -11 127 -11q101 0 145 58t44 186z" />
    <glyph glyph-name="c" unicode="c" horiz-adv-x="854" 
d="M748 602q32 15 49.5 47t17.5 72q0 61 -65.5 97t-196.5 36q-237 0 -374.5 -123t-137.5 -348q0 -203 103 -299t319 -96q358 0 358 157q0 31 -17.5 63t-47.5 42q-111 -51 -224 -51q-101 0 -142.5 48t-41.5 173q0 121 46 171t151 50q108 0 203 -39z" />
    <glyph glyph-name="d" unicode="d" horiz-adv-x="1064" 
d="M1063 109q0 -64 -53 -91.5t-174 -27.5t-179 28l17 164q-26 -96 -99.5 -145t-179.5 -49q-181 0 -267.5 89.5t-86.5 301.5q0 232 133 354.5t358 122.5q68 0 113 -4q1 142 6 297q3 49 43 74.5t109 25.5q95 0 145 -20v-1047l96 -2q19 -34 19 -71zM645 244v418q-49 8 -113 8
q-89 0 -140.5 -65t-51.5 -193t36.5 -179t125.5 -51q38 0 77 16t66 46z" />
    <glyph glyph-name="e" unicode="e" horiz-adv-x="946" 
d="M545 856q166 0 264 -80.5t98 -214.5q0 -106 -23 -147t-63 -41h-471q1 -45 8 -75.5t25.5 -56.5t55.5 -38.5t93 -12.5q67 0 148.5 17.5t144.5 48.5q30 -10 47 -38.5t17 -59.5q0 -84 -113 -127t-313 -43q-211 0 -316.5 94.5t-105.5 300.5q0 216 135.5 344.5t368.5 128.5z
M610 510q2 10 2 31q0 61 -20 91t-80 30q-139 0 -156 -152h254z" />
    <glyph glyph-name="f" unicode="f" horiz-adv-x="634" 
d="M504 1268q91 0 130.5 -30.5t37.5 -86.5q0 -23 -9.5 -50.5t-21.5 -41.5q-27 6 -102 6q-85 0 -101 -37t-16 -184h180q6 -10 12.5 -34t6.5 -42q0 -56 -35 -89.5t-97 -33.5q-38 0 -63 2v-633q-47 -24 -143 -24q-71 0 -107 19.5t-39 66.5q-4 122 -4 223l2 346l-86 4
q-22 36 -22 90t25 79.5t91 29.5q0 160 40 253t116.5 130t204.5 37z" />
    <glyph glyph-name="g" unicode="g" horiz-adv-x="999" 
d="M922 489q0 -153 -110.5 -234t-322.5 -81q-83 0 -127 6q-24 -19 -24 -39q0 -16 28.5 -20t180.5 -12q116 -5 231 -25q176 -27 176 -188q0 -139 -130.5 -232.5t-381.5 -93.5q-225 0 -324.5 47.5t-99.5 167.5q0 65 43 108t119 52q-41 13 -63 37.5t-26.5 44.5t-4.5 49
q0 47 40 85.5t118 45.5q-94 26 -142.5 93.5t-48.5 170.5q0 178 125 282.5t350 104.5q113 0 205 -20l217 2q27 -44 27 -90q0 -107 -123 -107q-29 0 -43 4q51 -19 81 -62t30 -96zM346 492q0 -85 34 -121.5t109 -36.5q83 0 119.5 45t36.5 137q0 75 -31 115.5t-106 40.5
q-83 0 -122.5 -49t-39.5 -131zM451 -264q125 0 187 28.5t62 69.5q0 16 -7 24.5t-36.5 15.5t-89.5 11q-140 10 -278 29q-27 -34 -27 -80q0 -98 189 -98z" />
    <glyph glyph-name="h" unicode="h" horiz-adv-x="1089" 
d="M670 526q0 67 -24 97t-97 30q-91 0 -150 -92v-549q-43 -22 -147 -22q-74 0 -112.5 19.5t-39.5 64.5q-4 190 -4 557q0 335 6 518q6 100 152 100q93 0 143 -20v-516q38 67 104 103t179 36q145 0 216 -61t71 -205q0 -243 -6 -406l98 -2q16 -29 16 -69q0 -119 -205 -119
q-93 0 -134.5 13.5t-55.5 46t-14 106.5q0 34 2 187.5t2 182.5z" />
    <glyph glyph-name="i" unicode="i" horiz-adv-x="557" 
d="M449 1112q0 -64 -39 -103.5t-125 -39.5q-76 0 -113 31.5t-37 101.5q0 65 43.5 105t124.5 40q75 0 110.5 -37.5t35.5 -97.5zM244 850q196 0 196 -80v-758q-43 -22 -147 -22q-73 0 -111 18.5t-41 65.5q-4 122 -4 307l2 270l-114 4q-19 31 -19 82q0 58 56 85.5t182 27.5z
" />
    <glyph glyph-name="j" unicode="j" horiz-adv-x="557" 
d="M86 -391q-75 0 -112 32t-37 80q0 62 22 93q97 0 121.5 5t42.5 25q8 11 10 86t2 369l2 352l-112 4q-19 31 -19 82q0 58 56 85.5t182 27.5q196 0 196 -80v-758q0 -219 -88 -311t-266 -92zM449 1112q0 -64 -39 -103.5t-125 -39.5q-76 0 -113 31.5t-37 101.5q0 65 43.5 105
t124.5 40q75 0 110.5 -37.5t35.5 -97.5z" />
    <glyph glyph-name="k" unicode="k" horiz-adv-x="1005" 
d="M397 1227v-727l291 293q59 59 154 59q49 0 78.5 -24.5t29.5 -61.5q0 -23 -6 -53l-262 -246l211 -291h76q18 -32 18 -67q0 -64 -42.5 -92.5t-149.5 -28.5q-79 0 -112 13.5t-60 53.5l-226 332v-373q-47 -24 -145 -24q-74 0 -112.5 19.5t-39.5 64.5q-4 190 -4 557
q0 335 6 518q6 100 152 100q88 0 143 -22z" />
    <glyph glyph-name="l" unicode="l" horiz-adv-x="532" 
d="M401 180l103 -2q14 -25 14 -67q0 -64 -55 -92.5t-189 -28.5q-98 0 -135.5 21.5t-38.5 82.5q-4 190 -4 537q0 335 6 518q6 100 152 100q92 0 147 -22v-1047z" />
    <glyph glyph-name="m" unicode="m" horiz-adv-x="1658" 
d="M1239 528q0 67 -23 96t-92 29q-92 0 -139 -86v-555q-43 -22 -147 -22q-77 0 -113 20.5t-39 63.5q-4 122 -4 225v229q0 70 -19.5 97.5t-95.5 27.5q-89 0 -137 -86v-555q-43 -22 -147 -22q-77 0 -113 20.5t-39 63.5q-4 122 -4 225l2 352l-104 4q-19 31 -19 82
q0 60 44.5 86.5t166.5 26.5q142 0 211 -29l-22 -164q64 195 301 195q104 0 167.5 -32.5t94.5 -102.5q75 135 278 135q146 0 217.5 -61t71.5 -205q0 -243 -6 -406l98 -2q17 -31 17 -69q0 -119 -205 -119q-93 0 -134.5 13.5t-56 46t-14.5 106.5q0 34 2 188.5t2 183.5z" />
    <glyph glyph-name="n" unicode="n" horiz-adv-x="1118" 
d="M580 653q67 0 92.5 -26t25.5 -99q0 -29 -2 -183.5t-2 -188.5q0 -56 6 -85.5t29 -49t61.5 -25.5t108.5 -6q205 0 205 119q0 38 -17 69l-98 2q6 164 6 406q0 144 -70.5 205t-215.5 61q-250 0 -303 -195l22 164q-69 29 -211 29q-122 0 -166.5 -26.5t-44.5 -86.5
q0 -51 19 -82l104 -4q-2 -184 -2 -352q0 -103 4 -225q3 -43 39 -63.5t113 -20.5q104 0 147 22v555q56 86 150 86z" />
    <glyph glyph-name="o" unicode="o" horiz-adv-x="999" 
d="M958 451q0 -153 -65.5 -259.5t-174 -156t-249.5 -49.5q-211 0 -319.5 97t-108.5 304q0 220 134 344.5t360 124.5q211 0 317 -98t106 -307zM662 426q0 123 -30.5 177t-117.5 54q-93 0 -131.5 -58.5t-38.5 -192.5q0 -137 32 -184.5t124 -47.5q82 0 122 59t40 193z" />
    <glyph glyph-name="p" unicode="p" horiz-adv-x="1069" 
d="M1034 451q0 -223 -128 -344t-341 -121q-77 0 -135 16v-395q-48 -23 -147 -23q-76 0 -112.5 20t-39.5 64q-4 126 -4 494l2 489l-104 4q-19 31 -19 82q0 59 47.5 86t165.5 27q140 0 209 -29l-22 -164q27 97 102.5 146t185.5 49q173 0 256.5 -95t83.5 -306zM741 418
q0 121 -35.5 177t-125.5 56q-94 0 -150 -86v-381q60 -14 127 -14q98 0 141 60.5t43 187.5z" />
    <glyph glyph-name="q" unicode="q" horiz-adv-x="1028" 
d="M399 -12q-186 0 -272 91.5t-86 299.5q0 234 141 355.5t396 121.5q112 0 188 -12t114 -35t53 -49.5t15 -61.5v-1091q-48 -23 -147 -23q-75 0 -111 20t-39 64q0 12 -1 75t-1 103v250q-66 -108 -250 -108zM649 236v409q-52 12 -112 12q-92 0 -143.5 -62t-51.5 -189
q0 -128 36.5 -178t127.5 -50q88 0 143 58z" />
    <glyph glyph-name="r" unicode="r" horiz-adv-x="770" 
d="M731 608q39 53 39 121q0 51 -30.5 86t-94.5 35q-102 0 -150.5 -48.5t-97.5 -201.5l31 221q-69 29 -195 29q-124 0 -175.5 -27t-51.5 -86q0 -55 19 -86l104 -4q-2 -180 -2 -348q0 -99 4 -225q3 -45 40 -64.5t112 -19.5q108 0 147 20v416q31 63 49 93.5t44.5 54.5t56 31
t79.5 7q10 0 72 -4z" />
    <glyph glyph-name="s" unicode="s" horiz-adv-x="835" 
d="M385 188q70 0 94.5 13t24.5 37q0 20 -9.5 30.5t-43 19t-107.5 17.5q-145 20 -211.5 79.5t-66.5 166.5q0 129 109 216t302 87q157 0 237.5 -41.5t80.5 -112.5q0 -40 -20 -73t-62 -47q-95 57 -248 57q-123 0 -123 -57q0 -30 24 -42t109 -22q172 -24 241.5 -79t69.5 -161
q0 -130 -96.5 -209t-298.5 -79q-354 0 -354 164q0 82 80 114q43 -31 124 -54.5t144 -23.5z" />
    <glyph glyph-name="t" unicode="t" horiz-adv-x="724" 
d="M428 -12q152 0 221.5 33.5t69.5 107.5q0 58 -35 88q-83 -22 -149 -22q-63 0 -85 23.5t-22 88.5v336q33 -2 135 -2q64 0 95.5 34t31.5 89q0 18 -6 43.5t-12 34.5h-244l8 211q-64 28 -155 28q-62 0 -102.5 -30t-39.5 -93l4 -112q-69 -4 -100 -30t-31 -77q0 -57 19 -88
l104 -4q-4 -254 -4 -422q0 -136 74 -186.5t223 -50.5z" />
    <glyph glyph-name="u" unicode="u" horiz-adv-x="1107" 
d="M981 827q-55 25 -145 25q-151 0 -154 -90q-4 -61 -4 -221v-271q-55 -82 -150 -82q-65 0 -86.5 28.5t-21.5 94.5q0 29 3 184t3 189q0 103 -44.5 134.5t-180.5 31.5q-101 0 -144 -28t-43 -91q0 -40 19 -74l96 -2q-6 -327 -6 -401q0 -144 72.5 -205t218.5 -61
q118 0 191 43.5t104 150.5l-23 -164q64 -28 205 -28q122 0 166.5 26t44.5 86q0 51 -19 82l-104 4z" />
    <glyph glyph-name="v" unicode="v" horiz-adv-x="948" 
d="M516 281l211 557q31 10 80 10q61 0 92 -29.5t31 -81.5q2 -59 -19.5 -122t-109.5 -259q-84 -187 -160 -338q-54 -28 -162 -28q-96 0 -133 23t-63 91l-203 547l-55 4q-19 31 -19 82q0 58 45 85.5t142 27.5q92 0 122.5 -17t49.5 -75z" />
    <glyph glyph-name="w" unicode="w" horiz-adv-x="1458" 
d="M1016 -10q-95 0 -128.5 25.5t-51.5 97.5l-88 340l-144 -443q-31 -9 -41.5 -12t-33 -5.5t-54.5 -2.5q-98 0 -137 23t-64 91l-194 547l-55 4q-19 31 -19 82q0 113 187 113q62 0 92 -8t44.5 -25.5t26.5 -58.5l144 -477l174 550q41 17 78 19q93 1 128 -17t50 -75l123 -477
l184 557q31 10 80 10q61 0 92 -29.5t31 -81.5q1 -58 -19 -127.5t-92 -253.5q-68 -170 -147 -338q-61 -28 -166 -28z" />
    <glyph glyph-name="x" unicode="x" horiz-adv-x="919" 
d="M694 -10q104 0 150.5 28.5t46.5 90.5q0 39 -19 73l-69 2l-146 217l134 174q44 59 62.5 94t18.5 76q0 44 -31.5 74.5t-80.5 30.5q-44 0 -76 -14l-172 -228l-106 172q-25 40 -55 55t-103 15q-117 0 -168 -27t-51 -86q0 -52 18 -82l70 -4l141 -205l-152 -204
q-38 -50 -54.5 -79.5t-16.5 -56.5q0 -114 115 -114q55 0 88 8l168 252l137 -211q20 -32 47.5 -41.5t103.5 -9.5z" />
    <glyph glyph-name="y" unicode="y" horiz-adv-x="960" 
d="M365 758l155 -477l221 553q35 14 93 14q52 0 80 -26t28 -74q0 -61 -25 -133.5t-114 -262.5q-46 -98 -119.5 -240t-114.5 -214q-69 -122 -123 -180.5t-121.5 -83.5t-177.5 -25q-75 0 -112 32t-37 80q0 60 29 93h81.5t63 4t49 6.5t37.5 15t32 21t28 33t30 43.5t35 59
q-39 3 -63.5 28t-45.5 80l-194 547l-55 4q-19 31 -19 82q0 58 45 85.5t142 27.5q92 0 122.5 -17t49.5 -75z" />
    <glyph glyph-name="z" unicode="z" horiz-adv-x="919" 
d="M879 123q0 -60 -44.5 -94.5t-134.5 -34.5q-349 6 -548 6h-70q-37 43 -37 106q0 34 11.5 59t41.5 60l375 414h-379q-26 29 -26 94q0 111 155 111h615q12 -17 20 -45.5t8 -50.5q0 -36 -14 -67t-51 -73l-361 -413h420q19 -38 19 -72z" />
    <glyph glyph-name="braceleft" unicode="{" horiz-adv-x="823" 
d="M375 449q75 -14 113 -72t38 -127q0 -58 -7 -141t-7 -125q0 -81 13.5 -116.5t53.5 -51t130 -17.5q16 -27 16 -73q0 -107 -174 -107q-297 0 -297 293q0 78 7 156.5t7 124.5q0 81 -34.5 110t-116.5 29h-49q-37 43 -37 112q0 51 19 68.5t61 22.5q91 12 129.5 43t38.5 98
q0 36 -15.5 138t-15.5 151q0 139 87.5 226t246.5 87q170 0 170 -113q0 -39 -17 -65q-73 0 -119 -10t-69.5 -33t-32 -52t-8.5 -75q0 -51 12 -136t12 -130q0 -177 -155 -215z" />
    <glyph glyph-name="bar" unicode="|" horiz-adv-x="518" 
d="M375 -102q0 -187 -2 -236q-6 -88 -115 -88q-56 0 -113 23l-2 1390q0 138 4 236q3 88 115 88q56 0 113 -23v-1390z" />
    <glyph glyph-name="braceright" unicode="}" horiz-adv-x="823" 
d="M451 449q-76 14 -114 72t-38 126q0 58 6 141t6 125q0 61 -5.5 93t-27.5 54.5t-58.5 29t-104.5 8.5q-17 34 -17 73q0 107 174 107q297 0 297 -293q0 -79 -6 -157t-6 -123q0 -82 34.5 -111t117.5 -29h47q37 -40 37 -112q0 -51 -19 -68.5t-61 -22.5q-90 -12 -128 -43
t-38 -98q0 -36 15.5 -138t15.5 -151q0 -138 -88 -225.5t-246 -87.5q-172 0 -172 113q0 38 18 65q73 0 118.5 10t69 33t31.5 52t8 75q0 51 -12 136t-12 130q0 178 158 216z" />
    <glyph glyph-name="asciitilde" unicode="~" horiz-adv-x="935" 
d="M852 547q0 -85 -64 -133.5t-180 -48.5l-270 2q-43 1 -64 -17t-53 -80q-75 -3 -107 28.5t-32 94.5q0 87 61.5 136.5t178.5 48.5l274 -3q40 -1 61.5 16t51.5 71q73 8 108 -26.5t35 -88.5z" />
    <glyph glyph-name="exclamdown" unicode="&#xa1;" horiz-adv-x="589" 
d="M106 -428l37 700q3 56 37.5 81.5t118.5 25.5q70 0 127 -33l25 -606q5 -116 -33.5 -162.5t-141.5 -46.5q-102 0 -170 41zM467 676q0 -73 -45 -118.5t-139 -45.5q-81 0 -123.5 35.5t-42.5 116.5q0 73 48 116t140 43q162 0 162 -147z" />
    <glyph glyph-name="cent" unicode="&#xa2;" horiz-adv-x="849" 
d="M600 -145q0 -49 -26.5 -70t-79.5 -21q-61 0 -101 19l2 207q-182 12 -270 109t-88 284q0 183 95.5 302t264.5 155v135q0 59 28.5 83.5t94.5 24.5q64 0 96 -16v-215q95 -10 143 -45t48 -86q0 -40 -18 -72t-50 -47q-95 39 -202 39q-110 0 -156.5 -49t-46.5 -172
q0 -127 39.5 -174t150.5 -47q113 0 224 51q30 -10 47.5 -42t17.5 -63q0 -124 -213 -149v-141z" />
    <glyph glyph-name="sterling" unicode="&#xa3;" horiz-adv-x="892" 
d="M864 109q0 -111 -129 -111q-467 4 -590 4q-72 0 -90 -2q-26 42 -26 100q0 33 9.5 49t35.5 23q72 21 97.5 56.5t25.5 119.5q0 17 -2 39.5t-2 26.5h-121q-23 29 -23 78q0 94 123 100q-18 114 -18 194q0 96 52.5 163t135.5 97.5t188 30.5q232 0 232 -116q0 -65 -17 -91
q-91 13 -137 13q-100 0 -128.5 -23.5t-28.5 -97.5q0 -28 5.5 -84.5t10.5 -77.5h262q21 -28 21 -84q0 -46 -32 -76t-91 -30q-87 0 -140 4q7 -44 7 -74q0 -61 -19.5 -97.5t-68.5 -62.5h442q16 -21 16 -71z" />
    <glyph glyph-name="currency" unicode="&#xa4;" horiz-adv-x="944" 
d="M729 420q0 -110 -141 -107l-180 2q13 -64 59 -93t131 -29q118 0 229 51q30 -11 45 -39.5t15 -59.5q0 -157 -359 -157q-195 0 -297.5 82t-117.5 252h-66q-27 34 -27 88q0 41 28 65.5t75 26.5q35 167 165 259.5t330 92.5q132 0 197.5 -36t65.5 -97q0 -84 -62 -113
q-95 39 -209 39q-91 0 -141 -34.5t-63 -110.5h182l117 2q24 -32 24 -84z" />
    <glyph glyph-name="yen" unicode="&#xa5;" horiz-adv-x="1095" 
d="M1024 338q0 -100 -133 -100l-182 2v-226q-44 -24 -162 -24q-132 0 -144 73q-8 32 -8 181l-276 2q-25 32 -25 82q0 40 26.5 64t72.5 24h202v112l-276 4q-25 32 -25 82q0 40 26.5 64t72.5 24h100l-146 218l-63 2q-12 24 -12 71q0 65 55.5 91t181.5 26q54 0 81 -18.5
t63 -75.5l137 -225l215 307q29 10 78 10q112 0 112 -92q0 -39 -19 -82.5t-75 -114.5l-92 -119h82l108 5q25 -33 25 -80q0 -101 -133 -101l-182 2v-110h182l108 2q25 -29 25 -80z" />
    <glyph glyph-name="brokenbar" unicode="&#xa6;" horiz-adv-x="589" 
d="M414 1313l-4 -137v-549q0 -54 -31.5 -84.5t-83.5 -30.5q-66 0 -111 25l-10 641q-2 73 31 116t102 43t107 -24zM414 344l-4 -137v-549q0 -56 -31.5 -85.5t-83.5 -29.5q-66 0 -111 25l-10 639q-2 74 31 117t102 43q71 0 107 -23z" />
    <glyph glyph-name="section" unicode="&#xa7;" horiz-adv-x="888" 
d="M791 102q0 -167 -106 -265.5t-316 -98.5q-275 0 -275 141q0 35 19 63t53 40q36 -22 94.5 -37t118.5 -15q237 0 237 179q0 65 -21 129.5t-75 169.5q-66 125 -88 197.5t-22 139.5q0 47 24 72t68 25q33 0 59 -13v-30q0 -67 26 -142.5t107 -224.5q55 -100 76 -175t21 -155z
M96 756q0 167 106 265.5t316 98.5q275 0 275 -141q0 -35 -19 -62.5t-53 -39.5q-36 22 -93.5 36.5t-117.5 14.5q-238 0 -238 -178q0 -66 21 -130.5t76 -168.5q66 -125 88 -198t22 -140q0 -47 -24.5 -72t-69.5 -25q-29 0 -59 13q2 10 2 30q0 67 -26 142.5t-107 224.5
q-55 101 -77 176t-22 154z" />
    <glyph glyph-name="dieresis" unicode="&#xa8;" horiz-adv-x="1126" 
d="M494 1112q0 -61 -36.5 -98t-117.5 -37q-72 0 -106.5 30t-34.5 95q0 61 41 98t116 37q71 0 104.5 -34t33.5 -91zM928 1112q0 -61 -36.5 -98t-117.5 -37q-72 0 -106.5 30t-34.5 95q0 61 41.5 98t116.5 37q71 0 104 -34t33 -91z" />
    <glyph glyph-name="copyright" unicode="&#xa9;" horiz-adv-x="1355" 
d="M1272 440q0 -291 -159.5 -426t-465.5 -135q-293 0 -428 121.5t-135 370.5q0 273 153.5 426t475.5 153q297 0 428 -122t131 -388zM1145 434q0 217 -101.5 315.5t-336.5 98.5q-131 0 -228 -33.5t-155.5 -96.5t-86.5 -147.5t-28 -191.5q0 -201 106 -300t338 -99
q243 0 367.5 109t124.5 345zM737 582q-88 0 -126 -46t-38 -143q0 -87 30.5 -121t92.5 -34q109 0 181 38q45 -18 45 -79q0 -60 -70 -90.5t-190 -30.5q-308 0 -308 303q0 173 96 267.5t273 94.5q104 0 154.5 -23.5t50.5 -80.5q0 -28 -12.5 -47t-41.5 -37q-63 29 -137 29z" />
    <glyph glyph-name="ordfeminine" unicode="&#xaa;" horiz-adv-x="860" 
d="M844 614q0 -54 -51.5 -89.5t-147.5 -35.5q-38 0 -69.5 8t-55.5 31.5t-24 61.5q0 33 2 41q-56 -142 -219 -142q-105 0 -159 49.5t-54 137.5q0 201 286 201q30 0 121 -11v70q0 59 -92 59q-124 0 -201 -77q-92 18 -92 96q0 72 84 119t242 47q148 0 232 -57t81 -181l-6 -205
q0 -47 41 -47q15 0 45 6q37 -22 37 -82zM473 770q-37 6 -78 6q-98 0 -98 -69q0 -62 61 -62q75 0 113 41z" />
    <glyph glyph-name="guillemotleft" unicode="&#xab;" horiz-adv-x="1069" 
d="M449 842q50 -1 78 -29.5t28 -69.5q0 -28 -8 -47.5t-31 -50.5l-156 -219l154 -219q41 -56 41 -103q0 -48 -33.5 -74t-81.5 -26l-266 307q-47 53 -47 111q0 56 43 102zM915 594l-129 -182l127 -185q35 -53 35 -96q0 -50 -32 -75t-80 -25l-230 272q-43 49 -43 105
q0 53 39 98l240 278q51 -1 79.5 -28.5t28.5 -67.5q0 -27 -7 -44t-28 -50z" />
    <glyph glyph-name="logicalnot" unicode="&#xac;" horiz-adv-x="923" 
d="M831 111q0 -58 -30 -89.5t-82 -31.5q-71 0 -113 26l-2 308l-493 8q-29 36 -29 94q0 43 30.5 69.5t82.5 26.5h487l123 4q26 -33 26 -77v-338z" />
    <glyph glyph-name="registered" unicode="&#xae;" horiz-adv-x="1056" 
d="M965 901q0 -215 -117 -314.5t-342 -99.5q-215 0 -314.5 89.5t-99.5 273.5q0 200 112.5 312t350.5 112q218 0 314 -89t96 -284zM864 897q0 155 -72 225t-243 70q-356 0 -356 -336q0 -146 74.5 -216.5t242.5 -70.5q176 0 265 79t89 249zM733 721q0 -29 -23 -40t-73 -11
q-42 0 -55 30l-64 131l-29 3v-154q-24 -8 -63 -8q-53 0 -59 35q-5 20 -5 151q0 114 3 152h-37q-11 19 -11 32q0 23 19 33t63 10l129 2q181 0 181 -116q0 -47 -18 -75t-54 -46l57 -102h29q10 -17 10 -27zM594 958q0 52 -64 52q-7 0 -21 -1t-20 -1v-107h50q55 0 55 57z" />
    <glyph glyph-name="macron" unicode="&#xaf;" horiz-adv-x="954" 
d="M797 1122q0 -128 -166 -125l-447 11q-30 35 -30 102q0 50 32.5 79.5t89.5 29.5h353l137 4q31 -44 31 -101z" />
    <glyph glyph-name="macron" unicode="&#x2c9;" horiz-adv-x="954" 
d="M797 1122q0 -128 -166 -125l-447 11q-30 35 -30 102q0 50 32.5 79.5t89.5 29.5h353l137 4q31 -44 31 -101z" />
    <glyph glyph-name="degree" unicode="&#xb0;" horiz-adv-x="819" 
d="M717 1079q0 -127 -90 -217t-217 -90t-217 90q-91 88 -91 217t91 217q90 90 217 90t217 -90t90 -217zM633 1079q0 92 -66 158q-63 66 -157 66q-95 0 -158 -66q-66 -63 -66 -158q0 -94 66 -157q66 -66 158 -66q91 0 157 66t66 157z" />
    <glyph glyph-name="plusminus" unicode="&#xb1;" 
d="M514 1270h98v-479h475v-97h-475v-475h-98v475h-477v97h477v479zM37 98h1050v-98h-1050v98z" />
    <glyph glyph-name="twosuperior" unicode="&#xb2;" horiz-adv-x="849" 
d="M774 604q0 -110 -125 -110q-299 4 -432 4h-100q-29 50 -29 96q0 60 49 80q140 66 203 102.5t86 65t23 67.5q0 72 -89 72q-92 0 -155 -57q-82 20 -82 108q0 63 77 105.5t216 42.5q154 0 224.5 -58t70.5 -176q0 -91 -69 -166t-189 -116h305q16 -26 16 -60z" />
    <glyph glyph-name="threesuperior" unicode="&#xb3;" horiz-adv-x="776" 
d="M678 952q0 -61 -36 -108t-103 -68q72 -11 112.5 -65t40.5 -119q0 -285 -405 -285q-117 0 -172.5 32.5t-55.5 86.5q0 53 33 86q66 -20 166 -20q96 0 129 21.5t33 74.5q0 69 -90 69q-46 0 -76 -6q-37 34 -37 97q0 66 37 69q94 10 127 31.5t33 62.5q0 70 -86 70
q-93 0 -156 -57q-82 20 -82 108q0 64 77 106t220 42q291 0 291 -228z" />
    <glyph glyph-name="acute" unicode="&#xb4;" horiz-adv-x="968" 
d="M766 1260q0 -78 -61 -109l-396 -199q-38 12 -61 41t-23 66q0 48 45 78l377 264q52 -15 85.5 -55t33.5 -86z" />
    <glyph glyph-name="mu" unicode="&#xb5;" horiz-adv-x="1179" 
d="M950 915v-602q0 -125 11 -168q8 -31 26 -49q17 -14 39 -14q26 0 47 24q22 25 31 99h41q-15 -134 -66 -185q-48 -51 -125 -51q-74 0 -116 45q-45 42 -54 156q-97 -109 -194 -158q-92 -45 -158 -45q-42 0 -88 19q-47 19 -84 51q-3 -140 25 -252q18 -79 18 -109
q0 -56 -27 -86q-25 -32 -63 -32q-35 0 -57 28q-31 39 -31 95q0 35 10 69q30 104 35 164q12 123 12 205v796h168v-575q0 -101 19 -147q14 -44 59 -72q52 -27 88 -27q56 0 123 33q69 28 145 98v690h166z" />
    <glyph glyph-name="mu" unicode="&#x3bc;" horiz-adv-x="1179" 
d="M950 915v-602q0 -125 11 -168q8 -31 26 -49q17 -14 39 -14q26 0 47 24q22 25 31 99h41q-15 -134 -66 -185q-48 -51 -125 -51q-74 0 -116 45q-45 42 -54 156q-97 -109 -194 -158q-92 -45 -158 -45q-42 0 -88 19q-47 19 -84 51q-3 -140 25 -252q18 -79 18 -109
q0 -56 -27 -86q-25 -32 -63 -32q-35 0 -57 28q-31 39 -31 95q0 35 10 69q30 104 35 164q12 123 12 205v796h168v-575q0 -101 19 -147q14 -44 59 -72q52 -27 88 -27q56 0 123 33q69 28 145 98v690h166z" />
    <glyph glyph-name="paragraph" unicode="&#xb6;" horiz-adv-x="1302" 
d="M1149 758q0 -61 -42.5 -90.5t-139.5 -26.5v-762q0 -69 -17 -92t-61 -23q-11 0 -41 5v876l-123 2v-852q0 -77 -26.5 -107t-90.5 -30q-42 0 -78 12v512q-56 -59 -170 -59q-262 0 -262 326q0 187 125.5 296t380.5 109q24 0 188 -2.5t175 0.5l149 4q33 -48 33 -98z" />
    <glyph glyph-name="periodcentered" unicode="&#xb7;" horiz-adv-x="595" 
d="M487 451q0 -78 -49 -124t-149 -46q-90 0 -137.5 36t-47.5 121q0 75 57 122.5t148 47.5q88 0 133 -42t45 -115z" />
    <glyph glyph-name="periodcentered" unicode="&#x2219;" horiz-adv-x="595" 
d="M487 451q0 -78 -49 -124t-149 -46q-90 0 -137.5 36t-47.5 121q0 75 57 122.5t148 47.5q88 0 133 -42t45 -115z" />
    <glyph glyph-name="cedilla" unicode="&#xb8;" horiz-adv-x="641" 
d="M489 -152q0 -101 -74.5 -160t-224.5 -59q-54 0 -89 24.5t-35 67.5q0 35 14 60q104 6 135 22.5t31 59.5q0 69 -6 155l219 17q30 -103 30 -187z" />
    <glyph glyph-name="onesuperior" unicode="&#xb9;" horiz-adv-x="735" 
d="M670 602q0 -54 -38 -79t-124 -25h-387q-21 35 -21 75q0 48 38 69t132 22q-2 20 -2 155l2 135l-98 -51q-72 17 -72 90q0 33 24.5 61.5t88.5 65.5q58 32 98.5 46t89.5 14q129 0 129 -72v-444l121 4q19 -30 19 -66z" />
    <glyph glyph-name="ordmasculine" unicode="&#xba;" horiz-adv-x="831" 
d="M774 856q0 -179 -105 -274t-276 -95q-168 0 -252 78t-84 240q0 177 103 275t282 98q168 0 250 -77.5t82 -244.5zM535 836q0 88 -22 125.5t-87 37.5q-67 0 -96 -42t-29 -136t23 -129t92 -35q65 0 92 44.5t27 134.5z" />
    <glyph glyph-name="guillemotright" unicode="&#xbb;" horiz-adv-x="1069" 
d="M621 0q-50 1 -78.5 29.5t-28.5 68.5q0 28 8 48.5t31 50.5l156 219l-154 219q-41 56 -41 102q0 48 33.5 74.5t79.5 26.5l268 -308q47 -53 47 -110q0 -54 -43 -103zM154 223l127 183l-125 184q-37 56 -37 96q0 49 33 74.5t81 25.5l230 -272q41 -47 41 -104q0 -52 -37 -99
l-240 -278q-52 1 -80 28.5t-28 67.5q0 28 7.5 46t27.5 48z" />
    <glyph glyph-name="onequarter" unicode="&#xbc;" horiz-adv-x="1744" 
d="M1692 104q0 -57 -26 -79.5t-77 -22.5v-94q0 -70 -28 -93.5t-101 -23.5q-72 0 -133 27v184l-360 -2q-41 49 -41 113q0 52 45 106l360 438q46 17 96 17q94 0 129 -35.5t35 -116.5l-2 -348h88q15 -30 15 -70zM1327 174v240l-188 -240h188zM670 602q0 -54 -38 -79t-124 -25
h-387q-21 35 -21 75q0 48 38 69t132 22q-2 20 -2 155l2 135l-98 -51q-72 17 -72 90q0 33 24.5 61.5t88.5 65.5q58 32 98.5 46t89.5 14q129 0 129 -72v-444l121 4q19 -30 19 -66zM1464 1130l-929 -1198q-42 -55 -113 -55q-36 0 -70.5 20t-48.5 54l916 1179q26 33 38 47t35 27
t51 13q86 0 121 -87z" />
    <glyph glyph-name="onehalf" unicode="&#xbd;" horiz-adv-x="1832" 
d="M670 602q0 -54 -38 -79t-124 -25h-387q-21 35 -21 75q0 48 38 69t132 22q-2 20 -2 155l2 135l-98 -51q-72 17 -72 90q0 33 24.5 61.5t88.5 65.5q58 32 98.5 46t89.5 14q129 0 129 -72v-444l121 4q19 -30 19 -66zM1831 106q0 -110 -125 -110q-299 4 -432 4h-100
q-29 50 -29 96q0 60 49 80q139 65 202.5 102.5t86 66t22.5 67.5q0 71 -88 71q-92 0 -155 -57q-82 20 -82 109q0 63 77 105t216 42q154 0 224 -57.5t70 -175.5q0 -91 -69 -166.5t-189 -116.5h306q16 -26 16 -60zM1464 1130l-929 -1198q-42 -55 -113 -55q-36 0 -70.5 20
t-48.5 54l916 1179q26 33 38 47t35 27t51 13q86 0 121 -87z" />
    <glyph glyph-name="threequarters" unicode="&#xbe;" horiz-adv-x="1867" 
d="M678 952q0 -61 -36 -108t-103 -68q72 -11 112.5 -65t40.5 -119q0 -285 -405 -285q-117 0 -172.5 32.5t-55.5 86.5q0 53 33 86q66 -20 166 -20q96 0 129 21.5t33 74.5q0 69 -90 69q-46 0 -76 -6q-37 34 -37 97q0 66 37 69q94 10 127 31.5t33 62.5q0 70 -86 70
q-93 0 -156 -57q-82 20 -82 108q0 64 77 106t220 42q291 0 291 -228zM1815 104q0 -57 -26 -79.5t-77 -22.5v-94q0 -70 -28 -93.5t-101 -23.5q-71 0 -133 27v184l-360 -2q-41 49 -41 113q0 52 45 106l360 438q46 17 96 17q94 0 129 -35.5t35 -116.5l-2 -348h88q15 -30 15 -70
zM1450 174v240l-188 -240h188zM1587 1130l-930 -1198q-42 -55 -112 -55q-36 0 -70.5 20t-48.5 54l915 1179q25 33 38 47t36 27t51 13q86 0 121 -87z" />
    <glyph glyph-name="questiondown" unicode="&#xbf;" horiz-adv-x="950" 
d="M424 659q0 73 44.5 118.5t137.5 45.5q82 0 124 -35t42 -116q0 -73 -48 -116.5t-140 -43.5q-160 0 -160 147zM530 418q30 12 70 12q72 0 114 -40.5t42 -119.5q0 -86 -44.5 -137t-146.5 -78q-2 0 -22 -5t-32 -8.5t-34.5 -9.5t-38 -11.5t-33 -12t-29.5 -13.5t-18 -13
q-12 -14 -12 -35q0 -61 96.5 -99t280.5 -38q43 0 63 2q41 -38 41 -103q0 -158 -213 -158q-150 0 -281.5 42.5t-214.5 124t-83 184.5q0 116 65.5 175.5t188.5 94.5q55 16 86.5 26.5t60 25.5t42 29t25.5 39.5t17 53t10 72.5z" />
    <glyph glyph-name="Agrave" unicode="&#xc0;" horiz-adv-x="1169" 
d="M1169 109q0 -63 -51 -92t-174 -29q-61 0 -98.5 17.5t-59.5 68.5l-77 180h-359l-104 -256q-37 -8 -94 -8q-62 0 -94.5 26t-32.5 86q0 41 28 109l357 799q26 58 63.5 81t101.5 23q45 0 107 -18l403 -918l66 -2q18 -32 18 -67zM647 430l-119 324l-120 -324h239zM709 1288
q0 -39 -23 -67t-61 -39l-396 198q-61 31 -61 107q0 47 33 86.5t86 54.5l377 -262q45 -33 45 -78z" />
    <glyph glyph-name="Aacute" unicode="&#xc1;" horiz-adv-x="1169" 
d="M1169 109q0 -63 -51 -92t-174 -29q-61 0 -98.5 17.5t-59.5 68.5l-77 180h-359l-104 -256q-37 -8 -94 -8q-62 0 -94.5 26t-32.5 86q0 41 28 109l357 799q26 58 63.5 81t101.5 23q45 0 107 -18l403 -918l66 -2q18 -32 18 -67zM647 430l-119 324l-120 -324h239zM961 1487
q0 -75 -62 -107l-397 -198q-37 11 -59.5 39t-22.5 67q0 45 45 78l377 262q51 -15 85 -54.5t34 -86.5z" />
    <glyph glyph-name="Acircumflex" unicode="&#xc2;" horiz-adv-x="1169" 
d="M1169 109q0 -63 -51 -92t-174 -29q-61 0 -98.5 17.5t-59.5 68.5l-77 180h-359l-104 -256q-37 -8 -94 -8q-62 0 -94.5 26t-32.5 86q0 41 28 109l357 799q26 58 63.5 81t101.5 23q45 0 107 -18l403 -918l66 -2q18 -32 18 -67zM647 430l-119 324l-120 -324h239zM889 1335
q-1 -52 -40.5 -81t-103.5 -29q-40 0 -64 9.5t-42 37.5l-98 162l-144 -205q-61 0 -97 26t-36 78q0 45 45 105l97 125q34 43 73 60t119 17q49 0 102 -20z" />
    <glyph glyph-name="Atilde" unicode="&#xc3;" horiz-adv-x="1169" 
d="M1169 109q0 -63 -51 -92t-174 -29q-61 0 -98.5 17.5t-59.5 68.5l-77 180h-359l-104 -256q-37 -8 -94 -8q-62 0 -94.5 26t-32.5 86q0 41 28 109l357 799q26 58 63.5 81t101.5 23q45 0 107 -18l403 -918l66 -2q18 -32 18 -67zM647 430l-119 324l-120 -324h239zM936 1434
q0 -84 -57.5 -131.5t-155.5 -45.5l-258 5q-41 0 -62 -17t-49 -71q-64 0 -95.5 30t-31.5 80q0 80 53.5 130.5t153.5 49.5l262 -4q38 -1 60 15.5t49 64.5q63 0 97 -29t34 -77z" />
    <glyph glyph-name="Adieresis" unicode="&#xc4;" horiz-adv-x="1169" 
d="M1169 109q0 -63 -51 -92t-174 -29q-61 0 -98.5 17.5t-59.5 68.5l-77 180h-359l-104 -256q-37 -8 -94 -8q-62 0 -94.5 26t-32.5 86q0 41 28 109l357 799q26 58 63.5 81t101.5 23q45 0 107 -18l403 -918l66 -2q18 -32 18 -67zM647 430l-119 324l-120 -324h239zM489 1362
q0 -135 -153 -135q-71 0 -105 30t-34 95q0 62 40.5 98.5t116.5 36.5q69 0 102 -35t33 -90zM924 1362q0 -135 -154 -135q-71 0 -105 30t-34 95q0 62 40.5 98.5t116.5 36.5q69 0 102.5 -35t33.5 -90z" />
    <glyph glyph-name="Aring" unicode="&#xc5;" horiz-adv-x="1169" 
d="M1169 109q0 -63 -51 -92t-174 -29q-61 0 -98.5 17.5t-59.5 68.5l-77 180h-359l-104 -256q-37 -8 -94 -8q-62 0 -94.5 26t-32.5 86q0 41 28 109l357 799q26 58 63.5 81t101.5 23q45 0 107 -18l403 -918l66 -2q18 -32 18 -67zM647 430l-119 324l-120 -324h239zM809 1421
q0 -105 -65 -163t-187 -58q-112 0 -167.5 47t-55.5 158q0 100 68 161.5t186 61.5q112 0 166.5 -54t54.5 -153zM647 1411q0 78 -69 78q-39 0 -60.5 -23t-21.5 -59q0 -76 71 -76q80 0 80 80z" />
    <glyph glyph-name="AE" unicode="&#xc6;" horiz-adv-x="1630" 
d="M1587 1036q0 -135 -182 -135h-356v-250h438q18 -32 18 -76q0 -64 -41 -94t-139 -30h-276v-250h510q14 -25 14 -66q0 -59 -33 -87t-120.5 -40t-270.5 -12q-136 0 -208 2.5t-118.5 12.5t-60.5 24.5t-19 42.5q-5 33 -8 176h-346l-149 -256q-37 -8 -95 -8q-61 0 -88.5 25
t-27.5 87q0 50 34 109l496 786q41 65 77 87t109 22h699l117 4q26 -33 26 -74zM737 868l-262 -438h260q0 286 2 438z" />
    <glyph glyph-name="Ccedilla" unicode="&#xc7;" horiz-adv-x="1024" 
d="M766 -152q0 -101 -74.5 -160t-224.5 -59q-54 0 -89.5 24.5t-35.5 67.5q0 35 14 60q103 6 134.5 23t31.5 61q0 35 -4 121q-230 11 -349.5 139.5t-119.5 376.5q0 291 164 455.5t463 164.5q178 0 245.5 -35.5t67.5 -117.5q0 -43 -15 -68.5t-50 -48.5q-89 47 -219 47
q-179 0 -258.5 -95t-79.5 -278q0 -168 62.5 -241.5t182.5 -73.5q151 0 295 72q35 -14 53.5 -47.5t18.5 -65.5q0 -135 -234 -172q21 -86 21 -150z" />
    <glyph glyph-name="Egrave" unicode="&#xc8;" horiz-adv-x="1042" 
d="M670 1288q0 -39 -22.5 -67t-59.5 -39l-398 198q-61 31 -61 107q0 47 33 86.5t86 54.5l377 -262q45 -33 45 -78zM147 494l3 421l-107 5q-18 32 -18 84q0 54 43 78t163 24h625l117 4q26 -33 26 -74q0 -135 -182 -135h-356v-250h438q19 -34 19 -76q0 -64 -41.5 -94
t-139.5 -30h-276v-250h510q14 -25 14 -66q0 -59 -33 -87t-120.5 -40t-270.5 -12q-179 0 -258.5 6.5t-110 22.5t-36.5 53q-9 68 -9 416z" />
    <glyph glyph-name="Eacute" unicode="&#xc9;" horiz-adv-x="1042" 
d="M987 1487q0 -76 -61 -107l-396 -198q-39 11 -61.5 39t-22.5 67q0 44 46 78l376 262q53 -15 86 -54.5t33 -86.5zM147 494l3 421l-107 5q-18 32 -18 84q0 54 43 78t163 24h625l117 4q26 -33 26 -74q0 -135 -182 -135h-356v-250h438q19 -34 19 -76q0 -64 -41.5 -94
t-139.5 -30h-276v-250h510q14 -25 14 -66q0 -59 -33 -87t-120.5 -40t-270.5 -12q-179 0 -258.5 6.5t-110 22.5t-36.5 53q-9 68 -9 416z" />
    <glyph glyph-name="Ecircumflex" unicode="&#xca;" horiz-adv-x="1042" 
d="M852 1335q0 -52 -39 -81t-104 -29q-40 0 -64.5 9.5t-40.5 37.5l-100 162l-142 -205q-61 0 -97 26t-36 78q0 45 45 105l97 125q34 43 72.5 60t117.5 17q52 0 105 -20zM147 494l3 421l-107 5q-18 32 -18 84q0 54 43 78t163 24h625l117 4q26 -33 26 -74q0 -135 -182 -135
h-356v-250h438q19 -34 19 -76q0 -64 -41.5 -94t-139.5 -30h-276v-250h510q14 -25 14 -66q0 -59 -33 -87t-120.5 -40t-270.5 -12q-179 0 -258.5 6.5t-110 22.5t-36.5 53q-9 68 -9 416z" />
    <glyph glyph-name="Edieresis" unicode="&#xcb;" horiz-adv-x="1042" 
d="M475 1362q0 -61 -36 -98t-117 -37q-72 0 -107 30t-35 95q0 61 41.5 98t116.5 37q71 0 104 -34.5t33 -90.5zM909 1362q0 -61 -36 -98t-117 -37q-72 0 -107 30t-35 95q0 61 41.5 98t116.5 37q71 0 104 -34.5t33 -90.5zM147 494l3 421l-107 5q-18 32 -18 84q0 54 43 78
t163 24h625l117 4q26 -33 26 -74q0 -135 -182 -135h-356v-250h438q19 -34 19 -76q0 -64 -41.5 -94t-139.5 -30h-276v-250h510q14 -25 14 -66q0 -59 -33 -87t-120.5 -40t-270.5 -12q-179 0 -258.5 6.5t-110 22.5t-36.5 53q-9 68 -9 416z" />
    <glyph glyph-name="Igrave" unicode="&#xcc;" horiz-adv-x="686" 
d="M492 184h126q19 -34 19 -73q0 -60 -49.5 -86.5t-153.5 -26.5l-366 2q-19 34 -19 68q0 59 31 84t100 28q-2 209 -2 338l2 402l-123 4q-18 32 -18 80q0 52 40 77t105 25h445q18 -32 18 -68q0 -65 -38 -90.5t-117 -25.5v-738zM512 1288q0 -39 -23 -67t-61 -39l-397 198
q-60 31 -60 107q0 47 33 86.5t86 54.5l377 -262q45 -33 45 -78z" />
    <glyph glyph-name="Iacute" unicode="&#xcd;" horiz-adv-x="686" 
d="M492 184h126q19 -34 19 -73q0 -60 -49.5 -86.5t-153.5 -26.5l-366 2q-19 34 -19 68q0 59 31 84t100 28q-2 209 -2 338l2 402l-123 4q-18 32 -18 80q0 52 40 77t105 25h445q18 -32 18 -68q0 -65 -38 -90.5t-117 -25.5v-738zM678 1487q0 -75 -62 -107l-397 -198
q-38 11 -61 39t-23 67q0 44 47 78l375 262q53 -15 87 -54.5t34 -86.5z" />
    <glyph glyph-name="Icircumflex" unicode="&#xce;" horiz-adv-x="686" 
d="M492 184h126q19 -34 19 -73q0 -60 -49.5 -86.5t-153.5 -26.5l-366 2q-19 34 -19 68q0 59 31 84t100 28q-2 209 -2 338l2 402l-123 4q-18 32 -18 80q0 52 40 77t105 25h445q18 -32 18 -68q0 -65 -38 -90.5t-117 -25.5v-738zM653 1335q0 -52 -39 -81t-104 -29
q-40 0 -64 9.5t-40 37.5l-101 162l-141 -205q-61 0 -98 26t-37 78q0 43 47 105l96 125q34 43 72.5 60t117.5 17q52 0 105 -20z" />
    <glyph glyph-name="Idieresis" unicode="&#xcf;" horiz-adv-x="686" 
d="M492 184h126q19 -34 19 -73q0 -60 -49.5 -86.5t-153.5 -26.5l-366 2q-19 34 -19 68q0 59 31 84t100 28q-2 209 -2 338l2 402l-123 4q-18 32 -18 80q0 52 40 77t105 25h445q18 -32 18 -68q0 -65 -38 -90.5t-117 -25.5v-738zM291 1362q0 -135 -152 -135q-72 0 -106.5 30
t-34.5 95q0 62 41 98.5t117 36.5q70 0 102.5 -34.5t32.5 -90.5zM674 1362q0 -135 -152 -135q-72 0 -106.5 30t-34.5 95q0 62 41 98.5t117 36.5q70 0 102.5 -34.5t32.5 -90.5z" />
    <glyph glyph-name="Eth" unicode="&#xd0;" horiz-adv-x="1206" 
d="M1169 604q0 -162 -46 -279.5t-134 -188t-206.5 -103.5t-272.5 -33q-193 0 -271 18t-87 68q-11 79 -11 373l-114 2q-27 34 -27 92q0 45 29.5 71.5t81.5 26.5h30l2 269l-106 4q-19 34 -19 80q0 54 43.5 78t163.5 24h367q154 0 267 -36.5t180 -105t98.5 -158t31.5 -202.5z
M858 565q0 179 -77 262.5t-240 83.5l-90 -2v-258h34l123 2q29 -37 29 -88q0 -117 -150 -114l-36 2v-256q87 -7 112 -7q151 0 223 86.5t72 288.5z" />
    <glyph glyph-name="Ntilde" unicode="&#xd1;" horiz-adv-x="1280" 
d="M139 498q0 -377 4 -432q3 -39 28.5 -55.5t102.5 -16.5q61 0 109 20v676l459 -643q26 -37 54.5 -47t100.5 -10q39 0 91.5 12.5t76.5 26.5q2 308 2 546v37q0 350 -19.5 427t-123.5 77q-74 0 -111 -24q5 -180 5 -387v-291l-416 575q-55 75 -97.5 100t-125.5 25
q-103 0 -160.5 -12.5t-79 -35.5t-21.5 -62q0 -46 19 -80l106 -4q-4 -212 -4 -422zM1026 1434q0 -84 -57.5 -131.5t-155.5 -45.5l-258 5q-41 0 -62 -17t-49 -71q-64 0 -95.5 30t-31.5 80q0 80 53.5 130.5t153.5 49.5l262 -4q38 -1 60 15.5t49 64.5q63 0 97 -29t34 -77z" />
    <glyph glyph-name="Ograve" unicode="&#xd2;" horiz-adv-x="1220" 
d="M1171 588q0 -286 -149 -444t-438 -158q-129 0 -224.5 26.5t-167 85.5t-107.5 159.5t-36 242.5q0 286 155.5 454t438.5 168q273 0 400.5 -134t127.5 -400zM872 559q0 85 -10.5 143t-36.5 104t-75 67.5t-123 21.5q-143 0 -206 -94.5t-63 -274.5q0 -186 56.5 -258.5
t195.5 -72.5q262 0 262 364zM768 1288q0 -39 -22.5 -67t-59.5 -39l-397 198q-62 32 -62 107q0 47 34 86.5t85 54.5l377 -262q45 -33 45 -78z" />
    <glyph glyph-name="Oacute" unicode="&#xd3;" horiz-adv-x="1220" 
d="M1171 588q0 -286 -149 -444t-438 -158q-129 0 -224.5 26.5t-167 85.5t-107.5 159.5t-36 242.5q0 286 155.5 454t438.5 168q273 0 400.5 -134t127.5 -400zM872 559q0 85 -10.5 143t-36.5 104t-75 67.5t-123 21.5q-143 0 -206 -94.5t-63 -274.5q0 -186 56.5 -258.5
t195.5 -72.5q262 0 262 364zM1047 1487q0 -75 -62 -107l-397 -198q-38 11 -61 39t-23 67q0 44 47 78l375 262q53 -15 87 -54.5t34 -86.5z" />
    <glyph glyph-name="Ocircumflex" unicode="&#xd4;" horiz-adv-x="1220" 
d="M1171 588q0 -286 -149 -444t-438 -158q-129 0 -224.5 26.5t-167 85.5t-107.5 159.5t-36 242.5q0 286 155.5 454t438.5 168q273 0 400.5 -134t127.5 -400zM872 559q0 85 -10.5 143t-36.5 104t-75 67.5t-123 21.5q-143 0 -206 -94.5t-63 -274.5q0 -186 56.5 -258.5
t195.5 -72.5q262 0 262 364zM956 1335q-1 -52 -39.5 -81t-103.5 -29q-40 0 -64 9.5t-42 37.5l-99 162l-143 -205q-61 0 -97 26t-36 78q0 42 45 105l96 125q34 43 74 60t119 17q48 0 104 -20z" />
    <glyph glyph-name="Otilde" unicode="&#xd5;" horiz-adv-x="1220" 
d="M1171 588q0 -286 -149 -444t-438 -158q-129 0 -224.5 26.5t-167 85.5t-107.5 159.5t-36 242.5q0 286 155.5 454t438.5 168q273 0 400.5 -134t127.5 -400zM872 559q0 85 -10.5 143t-36.5 104t-75 67.5t-123 21.5q-143 0 -206 -94.5t-63 -274.5q0 -186 56.5 -258.5
t195.5 -72.5q262 0 262 364zM1010 1434q0 -84 -57.5 -131.5t-155.5 -45.5l-258 5q-41 0 -62 -17t-49 -71q-64 0 -95.5 30t-31.5 80q0 80 53.5 130.5t153.5 49.5l262 -4q38 -1 60 15.5t49 64.5q63 0 97 -29t34 -77z" />
    <glyph glyph-name="Odieresis" unicode="&#xd6;" horiz-adv-x="1220" 
d="M1174 588q0 -286 -149 -444t-439 -158q-129 0 -224.5 26.5t-167 85.5t-107.5 159.5t-36 242.5q0 286 155.5 454t438.5 168q273 0 401 -134t128 -400zM874 559q0 173 -51 254.5t-192 81.5q-145 0 -208 -94t-63 -275q0 -185 57 -258t195 -73q262 0 262 364zM575 1362
q0 -61 -36 -98t-117 -37q-72 0 -106.5 30t-34.5 95q0 61 41 98t116 37q71 0 104 -34.5t33 -90.5zM1010 1362q0 -61 -36.5 -98t-117.5 -37q-72 0 -106.5 30t-34.5 95q0 61 41 98t116 37q71 0 104.5 -35t33.5 -90z" />
    <glyph glyph-name="multiply" unicode="&#xd7;" horiz-adv-x="876" 
d="M684 90q-71 0 -109 41l-143 158l-145 -160q-36 -39 -99 -39q-117 0 -96 125l213 217l-221 225q-7 47 21.5 83t87.5 36q65 0 106 -41l147 -157l148 159q38 41 100 41q117 0 99 -121l-220 -223l218 -223q5 -53 -23 -87t-84 -34z" />
    <glyph glyph-name="Oslash" unicode="&#xd8;" horiz-adv-x="1220" 
d="M1030 1247l-84 -186q225 -118 225 -473q0 -286 -149 -444t-438 -158q-60 0 -115 6l-66 -150q-23 -55 -90 -55q-78 0 -112 55l88 197q-240 106 -240 461q0 286 155.5 454t438.5 168q62 0 115 -6l49 109q22 49 42 67.5t60 18.5q34 0 67.5 -17t53.5 -47zM627 897
q-145 0 -208 -95t-63 -276q0 -160 43 -239l267 610h-39zM829 803l-270 -606q32 -4 51 -4q264 0 264 366q0 166 -45 244z" />
    <glyph glyph-name="Ugrave" unicode="&#xd9;" horiz-adv-x="1226" 
d="M457 1010q-2 -168 -2 -193q0 -23 -1 -215.5t-1 -212.5q0 -103 45.5 -143.5t152.5 -40.5q195 0 203 190q6 120 6 303q0 224 -6 394q46 24 107 24q72 0 105 -24.5t47.5 -97t14.5 -228.5q0 -252 -12 -377q-21 -193 -142.5 -297t-344.5 -104q-139 0 -228.5 19.5t-151.5 69.5
t-88 134.5t-26 216.5q0 153 6 492l-104 4q-19 34 -19 80q0 57 52 83.5t176 26.5q95 0 141.5 -12t58 -31.5t11.5 -60.5zM756 1288q0 -39 -22.5 -67t-59.5 -39l-398 198q-61 31 -61 107q0 47 33 86.5t86 54.5l377 -262q45 -33 45 -78z" />
    <glyph glyph-name="Uacute" unicode="&#xda;" horiz-adv-x="1226" 
d="M457 1010q-2 -168 -2 -193q0 -23 -1 -215.5t-1 -212.5q0 -103 45.5 -143.5t152.5 -40.5q195 0 203 190q6 120 6 303q0 224 -6 394q46 24 107 24q72 0 105 -24.5t47.5 -97t14.5 -228.5q0 -252 -12 -377q-21 -193 -142.5 -297t-344.5 -104q-139 0 -228.5 19.5t-151.5 69.5
t-88 134.5t-26 216.5q0 153 6 492l-104 4q-19 34 -19 80q0 57 52 83.5t176 26.5q95 0 141.5 -12t58 -31.5t11.5 -60.5zM1094 1487q0 -75 -62 -107l-395 -198q-38 11 -61 39t-23 67q0 45 45 78l377 262q53 -15 86 -54.5t33 -86.5z" />
    <glyph glyph-name="Ucircumflex" unicode="&#xdb;" horiz-adv-x="1226" 
d="M457 1010q-2 -168 -2 -193q0 -23 -1 -215.5t-1 -212.5q0 -103 45.5 -143.5t152.5 -40.5q195 0 203 190q6 120 6 303q0 224 -6 394q46 24 107 24q72 0 105 -24.5t47.5 -97t14.5 -228.5q0 -252 -12 -377q-21 -193 -142.5 -297t-344.5 -104q-139 0 -228.5 19.5t-151.5 69.5
t-88 134.5t-26 216.5q0 153 6 492l-104 4q-19 34 -19 80q0 57 52 83.5t176 26.5q95 0 141.5 -12t58 -31.5t11.5 -60.5zM973 1335q-1 -52 -40 -81t-104 -29q-40 0 -64 9.5t-42 37.5l-98 162l-144 -205q-61 0 -97 26t-36 78q0 45 45 105l96 125q34 43 74 60t119 17
q48 0 104 -20z" />
    <glyph glyph-name="Udieresis" unicode="&#xdc;" horiz-adv-x="1226" 
d="M457 1010q-2 -168 -2 -193q0 -23 -1 -215.5t-1 -212.5q0 -103 45.5 -143.5t152.5 -40.5q195 0 203 190q6 120 6 303q0 224 -6 394q46 24 107 24q72 0 105 -24.5t47.5 -97t14.5 -228.5q0 -252 -12 -377q-21 -193 -142.5 -297t-344.5 -104q-139 0 -228.5 19.5t-151.5 69.5
t-88 134.5t-26 216.5q0 153 6 492l-104 4q-19 34 -19 80q0 57 52 83.5t176 26.5q95 0 141.5 -12t58 -31.5t11.5 -60.5zM582 1362q0 -61 -36.5 -98t-117.5 -37q-72 0 -106.5 30t-34.5 95q0 61 41 98t116 37q71 0 104.5 -35t33.5 -90zM1016 1362q0 -61 -36.5 -98t-117.5 -37
q-72 0 -106.5 30t-34.5 95q0 61 41.5 98t116.5 37q71 0 104 -34.5t33 -90.5z" />
    <glyph glyph-name="Yacute" unicode="&#xdd;" horiz-adv-x="1073" 
d="M96 918l-63 2q-13 26 -13 71q0 65 56 91t182 26q56 0 85.5 -18.5t64.5 -75.5l176 -291l264 375q42 12 94 12q111 0 111 -92q0 -39 -18.5 -81.5t-73.5 -115.5l-254 -338v-469q-44 -24 -160 -24q-134 0 -146 73q-8 45 -8 400zM1036 1505q0 -77 -61 -108l-395 -199
q-38 12 -61 41t-23 66q0 47 45 77l377 263q52 -13 85 -53.5t33 -86.5z" />
    <glyph glyph-name="Thorn" unicode="&#xde;" horiz-adv-x="1081" 
d="M1057 682q0 -177 -112.5 -277t-332.5 -100q-91 0 -157 4v-291q-78 -22 -160 -22q-132 0 -145 78q-9 68 -9 420l2 426l-106 4q-19 34 -19 80q0 59 53 81.5t195 22.5q79 1 121.5 -8t55 -23.5t12.5 -40.5v-51h123q255 1 367 -76.5t112 -226.5zM786 645q0 152 -206 152
q-59 0 -125 -4v-306q82 -4 159 -4q85 0 128.5 42t43.5 120z" />
    <glyph glyph-name="germandbls" unicode="&#xdf;" horiz-adv-x="1222" 
d="M117 795q20 230 135 326t358 96q187 0 264.5 -65t77.5 -194q0 -93 -92 -200q-53 -59 -53 -94q0 -22 9 -34t42.5 -27.5t110.5 -41.5q117 -39 161 -97t44 -147q0 -66 -22.5 -123.5t-68.5 -104.5t-124.5 -74t-182.5 -27q-119 0 -186 19.5t-89 51.5t-22 86q0 28 16.5 59
t43.5 44q107 -60 239 -60q109 0 109 68q0 19 -3.5 29t-25 23.5t-51.5 25.5t-100 37q-103 36 -144 76.5t-41 113.5q0 53 25 103t80 110q32 34 46.5 60.5t14.5 60.5q0 98 -108 98q-104 0 -138 -50.5t-34 -192.5l-2 -736q-1 -220 -87.5 -312.5t-263.5 -92.5q-75 0 -112 32
t-37 80q0 62 22 93q97 0 121.5 5t42.5 25q6 8 8.5 35.5t4 124.5t1.5 295q0 350 11 496z" />
    <glyph glyph-name="agrave" unicode="&#xe0;" horiz-adv-x="1001" 
d="M612 1028q0 -37 -23 -65.5t-61 -40.5l-395 198q-61 30 -61 109q0 46 33 86t85 55l377 -262q45 -33 45 -80zM1006 111q0 -63 -54.5 -93t-169.5 -30q-95 0 -136.5 28t-41.5 113v33q-38 -174 -289 -174q-137 0 -205.5 62.5t-68.5 170.5q0 260 375 260q73 0 168 -10v80
q1 57 -29.5 78.5t-108.5 21.5q-65 0 -133 -29t-112 -73q-63 3 -92 36.5t-29 84.5q0 75 110.5 129.5t313.5 54.5q174 0 275 -72.5t98 -206.5l-5 -303q-1 -52 9.5 -68t44.5 -16q31 0 51 2q29 -20 29 -79zM580 332q-59 10 -123 10q-69 0 -100 -23t-31 -75q0 -40 24 -60t64 -20
q103 0 166 63v105z" />
    <glyph glyph-name="aacute" unicode="&#xe1;" horiz-adv-x="1001" 
d="M1006 111q0 -63 -54.5 -93t-169.5 -30q-95 0 -136.5 28t-41.5 113v33q-38 -174 -289 -174q-137 0 -205.5 62.5t-68.5 170.5q0 260 375 260q73 0 168 -10v80q1 57 -29.5 78.5t-108.5 21.5q-65 0 -133 -29t-112 -73q-63 3 -92 36.5t-29 84.5q0 75 110.5 129.5t313.5 54.5
q174 0 275 -72.5t98 -206.5l-5 -303q-1 -52 9.5 -68t44.5 -16q31 0 51 2q29 -20 29 -79zM580 332q-59 10 -123 10q-69 0 -100 -23t-31 -75q0 -40 24 -60t64 -20q103 0 166 63v105zM938 1229q0 -78 -61 -109l-398 -198q-37 12 -59.5 40t-22.5 66q0 47 45 80l377 262
q51 -15 85 -55t34 -86z" />
    <glyph glyph-name="acircumflex" unicode="&#xe2;" horiz-adv-x="1001" 
d="M1006 111q0 -63 -54.5 -93t-169.5 -30q-95 0 -136.5 28t-41.5 113v33q-38 -174 -289 -174q-137 0 -205.5 62.5t-68.5 170.5q0 260 375 260q73 0 168 -10v80q1 57 -29.5 78.5t-108.5 21.5q-65 0 -133 -29t-112 -73q-63 3 -92 36.5t-29 84.5q0 75 110.5 129.5t313.5 54.5
q174 0 275 -72.5t98 -206.5l-5 -303q-1 -52 9.5 -68t44.5 -16q31 0 51 2q29 -20 29 -79zM580 332q-59 10 -123 10q-69 0 -100 -23t-31 -75q0 -40 24 -60t64 -20q103 0 166 63v105zM817 1063q-1 -52 -39.5 -81.5t-103.5 -29.5q-40 0 -64.5 9.5t-42.5 37.5l-98 162l-143 -205
q-61 0 -97 26.5t-36 78.5q0 42 45 102l96 125q34 44 74 62t118 18q49 0 105 -20z" />
    <glyph glyph-name="atilde" unicode="&#xe3;" horiz-adv-x="1001" 
d="M1006 111q0 -63 -54.5 -93t-169.5 -30q-95 0 -136.5 28t-41.5 113v33q-38 -174 -289 -174q-137 0 -205.5 62.5t-68.5 170.5q0 260 375 260q73 0 168 -10v80q1 57 -29.5 78.5t-108.5 21.5q-65 0 -133 -29t-112 -73q-63 3 -92 36.5t-29 84.5q0 75 110.5 129.5t313.5 54.5
q174 0 275 -72.5t98 -206.5l-5 -303q-1 -52 9.5 -68t44.5 -16q31 0 51 2q29 -20 29 -79zM580 332q-59 10 -123 10q-69 0 -100 -23t-31 -75q0 -40 24 -60t64 -20q103 0 166 63v105zM870 1206q0 -84 -57.5 -131t-155.5 -45l-258 4q-41 0 -61.5 -16.5t-48.5 -71.5
q-64 0 -95.5 30.5t-31.5 80.5q0 80 53.5 130.5t153.5 49.5l262 -4q38 -1 59.5 15.5t48.5 64.5q63 0 97 -29t34 -78z" />
    <glyph glyph-name="adieresis" unicode="&#xe4;" horiz-adv-x="1001" 
d="M1006 111q0 -63 -54.5 -93t-169.5 -30q-95 0 -136.5 28t-41.5 113v33q-38 -174 -289 -174q-137 0 -205.5 62.5t-68.5 170.5q0 260 375 260q73 0 168 -10v80q1 57 -29.5 78.5t-108.5 21.5q-65 0 -133 -29t-112 -73q-63 3 -92 36.5t-29 84.5q0 75 110.5 129.5t313.5 54.5
q174 0 275 -72.5t98 -206.5l-5 -303q-1 -52 9.5 -68t44.5 -16q31 0 51 2q29 -20 29 -79zM580 332q-59 10 -123 10q-69 0 -100 -23t-31 -75q0 -40 24 -60t64 -20q103 0 166 63v105zM432 1112q0 -61 -36 -98t-117 -37q-72 0 -107 30t-35 95q0 61 41.5 98t116.5 37
q71 0 104 -34t33 -91zM866 1112q0 -61 -36 -98t-117 -37q-72 0 -107 30t-35 95q0 61 41.5 98t116.5 37q71 0 104 -34t33 -91z" />
    <glyph glyph-name="aring" unicode="&#xe5;" horiz-adv-x="1001" 
d="M1006 111q0 -63 -54.5 -93t-169.5 -30q-95 0 -136.5 28t-41.5 113v33q-38 -174 -289 -174q-137 0 -205.5 62.5t-68.5 170.5q0 260 375 260q73 0 168 -10v80q1 57 -29.5 78.5t-108.5 21.5q-65 0 -133 -29t-112 -73q-63 3 -92 36.5t-29 84.5q0 75 110.5 129.5t313.5 54.5
q174 0 275 -72.5t98 -206.5l-5 -303q-1 -52 9.5 -68t44.5 -16q31 0 51 2q29 -20 29 -79zM580 332q-59 10 -123 10q-69 0 -100 -23t-31 -75q0 -40 24 -60t64 -20q103 0 166 63v105zM733 1161q0 -99 -61.5 -155t-177.5 -56q-108 0 -161.5 44.5t-53.5 152.5q0 95 65 153t178 58
q107 0 159 -51.5t52 -145.5zM580 1153q0 32 -17 52t-51 20q-37 0 -57.5 -21.5t-20.5 -56.5q0 -72 70 -72q38 0 57 21t19 57z" />
    <glyph glyph-name="ae" unicode="&#xe6;" horiz-adv-x="1466" 
d="M1427 561q0 -106 -23 -147t-63 -41h-471q1 -45 8 -75.5t26 -56.5t56 -38.5t93 -12.5q67 0 148.5 17.5t144.5 48.5q30 -10 46.5 -38.5t16.5 -59.5q0 -84 -113 -127t-313 -43q-273 0 -346 143q-66 -143 -322 -143q-137 0 -205.5 62.5t-68.5 170.5q0 260 375 260
q73 0 168 -10v80q1 57 -29.5 78.5t-108.5 21.5q-65 0 -133 -29t-112 -73q-63 3 -92 36.5t-29 84.5q0 75 110.5 129.5t313.5 54.5q180 0 276 -74q123 76 285 76q166 0 264 -80.5t98 -214.5zM1133 541q0 61 -20.5 91t-80.5 30q-70 0 -108 -36.5t-47 -115.5h253q3 15 3 31z
M580 332q-59 10 -123 10q-69 0 -100 -23t-31 -75q0 -40 24 -60t64 -20q103 0 166 63v105z" />
    <glyph glyph-name="ccedilla" unicode="&#xe7;" horiz-adv-x="854" 
d="M649 -152q0 -101 -74.5 -160t-224.5 -59q-56 0 -91.5 24.5t-35.5 67.5q0 33 15 60q104 6 134.5 22.5t30.5 59.5q0 84 -2 127q-185 14 -272.5 109t-87.5 284q0 225 137.5 348t374.5 123q131 0 196.5 -36t65.5 -97q0 -40 -17.5 -72t-49.5 -47q-95 39 -203 39
q-105 0 -151 -50t-46 -171q0 -125 41.5 -173t142.5 -48q113 0 224 51q30 -10 47.5 -42t17.5 -63q0 -115 -194 -147q22 -86 22 -150z" />
    <glyph glyph-name="egrave" unicode="&#xe8;" horiz-adv-x="946" 
d="M664 1028q0 -37 -23 -65.5t-61 -40.5l-396 198q-61 31 -61 109q0 46 33.5 86t85.5 55l376 -262q46 -34 46 -80zM545 856q166 0 264 -80.5t98 -214.5q0 -106 -23 -147t-63 -41h-471q1 -45 8 -75.5t25.5 -56.5t55.5 -38.5t93 -12.5q67 0 148.5 17.5t144.5 48.5
q30 -10 47 -38.5t17 -59.5q0 -84 -113 -127t-313 -43q-211 0 -316.5 94.5t-105.5 300.5q0 216 135.5 344.5t368.5 128.5zM610 510q2 10 2 31q0 61 -20 91t-80 30q-139 0 -156 -152h254z" />
    <glyph glyph-name="eacute" unicode="&#xe9;" horiz-adv-x="946" 
d="M545 856q166 0 264 -80.5t98 -214.5q0 -106 -23 -147t-63 -41h-471q1 -45 8 -75.5t25.5 -56.5t55.5 -38.5t93 -12.5q67 0 148.5 17.5t144.5 48.5q30 -10 47 -38.5t17 -59.5q0 -84 -113 -127t-313 -43q-211 0 -316.5 94.5t-105.5 300.5q0 216 135.5 344.5t368.5 128.5z
M610 510q2 10 2 31q0 61 -20 91t-80 30q-139 0 -156 -152h254zM940 1229q0 -78 -61 -109l-398 -198q-38 12 -61 40.5t-23 65.5q0 46 47 80l375 262q52 -15 86.5 -55t34.5 -86z" />
    <glyph glyph-name="ecircumflex" unicode="&#xea;" horiz-adv-x="946" 
d="M545 856q166 0 264 -80.5t98 -214.5q0 -106 -23 -147t-63 -41h-471q1 -45 8 -75.5t25.5 -56.5t55.5 -38.5t93 -12.5q67 0 148.5 17.5t144.5 48.5q30 -10 47 -38.5t17 -59.5q0 -84 -113 -127t-313 -43q-211 0 -316.5 94.5t-105.5 300.5q0 216 135.5 344.5t368.5 128.5z
M610 510q2 10 2 31q0 61 -20 91t-80 30q-139 0 -156 -152h254zM838 1063q0 -52 -39 -81.5t-103 -29.5q-41 0 -64.5 9.5t-41.5 37.5l-98 162l-144 -205q-61 0 -97 26.5t-36 78.5q0 45 45 102l96 125q34 44 74 62t119 18q49 0 102 -20z" />
    <glyph glyph-name="edieresis" unicode="&#xeb;" horiz-adv-x="946" 
d="M545 856q166 0 264 -80.5t98 -214.5q0 -106 -23 -147t-63 -41h-471q1 -45 8 -75.5t25.5 -56.5t55.5 -38.5t93 -12.5q67 0 148.5 17.5t144.5 48.5q30 -10 47 -38.5t17 -59.5q0 -84 -113 -127t-313 -43q-211 0 -316.5 94.5t-105.5 300.5q0 216 135.5 344.5t368.5 128.5z
M610 510q2 10 2 31q0 61 -20 91t-80 30q-139 0 -156 -152h254zM442 1112q0 -61 -36 -98t-117 -37q-72 0 -107 30t-35 95q0 61 41.5 98t116.5 37q71 0 104 -34t33 -91zM877 1112q0 -61 -36.5 -98t-117.5 -37q-72 0 -106.5 30t-34.5 95q0 61 41 98t116 37q71 0 104.5 -34
t33.5 -91z" />
    <glyph glyph-name="igrave" unicode="&#xec;" horiz-adv-x="557" 
d="M233 850q197 0 197 -80v-758q-43 -22 -147 -22q-73 0 -111 18.5t-41 65.5q-4 122 -4 307l2 270l-104 4q-19 31 -19 82q0 59 51.5 86t175.5 27zM449 1028q0 -37 -23 -65.5t-61 -40.5l-398 198q-59 30 -59 109q0 46 33.5 86t85.5 55l376 -262q46 -34 46 -80z" />
    <glyph glyph-name="iacute" unicode="&#xed;" horiz-adv-x="557" 
d="M233 850q197 0 197 -80v-758q-43 -22 -147 -22q-73 0 -111 18.5t-41 65.5q-4 122 -4 307l2 270l-104 4q-19 31 -19 82q0 59 51.5 86t175.5 27zM653 1229q0 -78 -61 -109l-397 -198q-38 12 -61 40.5t-23 65.5q0 46 47 80l374 262q52 -15 86.5 -55t34.5 -86z" />
    <glyph glyph-name="icircumflex" unicode="&#xee;" horiz-adv-x="557" 
d="M236 850q196 0 196 -80v-758q-43 -22 -149 -22q-73 0 -111 18.5t-39 65.5q-6 92 -6 307l4 270l-106 4q-19 31 -19 82q0 58 52.5 85.5t177.5 27.5zM573 1063q0 -52 -38.5 -81.5t-102.5 -29.5q-41 0 -64.5 9.5t-41.5 37.5l-99 162l-143 -205q-61 0 -97 26.5t-36 78.5
q0 45 45 102l96 125q34 44 74 62t119 18q49 0 102 -20z" />
    <glyph glyph-name="idieresis" unicode="&#xef;" horiz-adv-x="557" 
d="M233 850q197 0 197 -80v-758q-43 -22 -147 -22q-73 0 -111 18.5t-41 65.5q-4 122 -4 307l2 270l-104 4q-19 31 -19 82q0 59 51.5 86t175.5 27zM227 1112q0 -135 -153 -135q-70 0 -105 30t-35 95q0 62 41 98.5t117 36.5q70 0 102.5 -34t32.5 -91zM600 1112
q0 -135 -154 -135q-70 0 -104.5 30t-34.5 95q0 62 41 98.5t117 36.5q70 0 102.5 -34t32.5 -91z" />
    <glyph glyph-name="eth" unicode="&#xf0;" horiz-adv-x="978" 
d="M942 623q0 -316 -137 -476.5t-375 -160.5q-203 0 -300 87t-97 281q0 186 105 283.5t270 97.5q93 0 153.5 -29.5t81.5 -72.5q0 77 -10.5 131.5t-42.5 107.5l-213 -81q-29 13 -45.5 40.5t-16.5 57.5q0 36 25.5 62t99.5 55q-70 34 -323 34q-31 36 -31 97q0 129 180 129
q185 0 294.5 -31t191.5 -105l104 46q29 -17 47.5 -45.5t20.5 -57.5q0 -36 -12 -53t-52 -41q82 -152 82 -356zM639 475q-55 66 -156 66q-155 0 -155 -189q0 -155 131 -155q75 0 125.5 76t54.5 202z" />
    <glyph glyph-name="ntilde" unicode="&#xf1;" horiz-adv-x="1118" 
d="M580 653q67 0 92.5 -26t25.5 -99q0 -29 -2 -183.5t-2 -188.5q0 -56 6 -85.5t29 -49t61.5 -25.5t108.5 -6q205 0 205 119q0 38 -17 69l-98 2q6 164 6 406q0 144 -70.5 205t-215.5 61q-250 0 -303 -195l22 164q-69 29 -211 29q-122 0 -166.5 -26.5t-44.5 -86.5
q0 -51 19 -82l104 -4q-2 -184 -2 -352q0 -103 4 -225q3 -43 39 -63.5t113 -20.5q104 0 147 22v555q56 86 150 86zM930 1206q0 -84 -57.5 -131t-155.5 -45l-258 4q-41 0 -62 -17t-49 -71q-64 0 -95.5 30.5t-31.5 80.5q0 80 53.5 130.5t153.5 49.5l262 -4q38 -1 60 15.5
t49 64.5q63 0 97 -29t34 -78z" />
    <glyph glyph-name="ograve" unicode="&#xf2;" horiz-adv-x="999" 
d="M674 1028q0 -37 -23 -65.5t-61 -40.5l-395 198q-62 32 -62 109q0 46 33.5 86t85.5 55l377 -262q45 -33 45 -80zM958 451q0 -153 -65.5 -259.5t-174 -156t-249.5 -49.5q-211 0 -319.5 97t-108.5 304q0 220 134 344.5t360 124.5q211 0 317 -98t106 -307zM662 426
q0 123 -30.5 177t-117.5 54q-93 0 -131.5 -58.5t-38.5 -192.5q0 -137 32 -184.5t124 -47.5q82 0 122 59t40 193z" />
    <glyph glyph-name="oacute" unicode="&#xf3;" horiz-adv-x="999" 
d="M958 451q0 -153 -65.5 -259.5t-174 -156t-249.5 -49.5q-211 0 -319.5 97t-108.5 304q0 220 134 344.5t360 124.5q211 0 317 -98t106 -307zM662 426q0 123 -30.5 177t-117.5 54q-93 0 -131.5 -58.5t-38.5 -192.5q0 -137 32 -184.5t124 -47.5q82 0 122 59t40 193zM920 1229
q0 -77 -62 -109l-397 -198q-38 12 -61 40.5t-23 65.5q0 46 47 80l375 262q52 -15 86.5 -55t34.5 -86z" />
    <glyph glyph-name="ocircumflex" unicode="&#xf4;" horiz-adv-x="999" 
d="M958 451q0 -153 -65.5 -259.5t-174 -156t-249.5 -49.5q-211 0 -319.5 97t-108.5 304q0 220 134 344.5t360 124.5q211 0 317 -98t106 -307zM662 426q0 123 -30.5 177t-117.5 54q-93 0 -131.5 -58.5t-38.5 -192.5q0 -137 32 -184.5t124 -47.5q82 0 122 59t40 193zM836 1063
q-1 -52 -40 -81.5t-104 -29.5q-40 0 -64 9.5t-42 37.5l-99 162l-143 -205q-61 0 -97 26.5t-36 78.5q0 42 45 102l98 125q33 44 73 62t118 18q48 0 104 -20z" />
    <glyph glyph-name="otilde" unicode="&#xf5;" horiz-adv-x="999" 
d="M958 451q0 -153 -65.5 -259.5t-174 -156t-249.5 -49.5q-211 0 -319.5 97t-108.5 304q0 220 134 344.5t360 124.5q211 0 317 -98t106 -307zM662 426q0 123 -30.5 177t-117.5 54q-93 0 -131.5 -58.5t-38.5 -192.5q0 -137 32 -184.5t124 -47.5q82 0 122 59t40 193zM883 1206
q0 -84 -57.5 -131t-155.5 -45l-258 4q-41 0 -62 -17t-49 -71q-64 0 -95.5 30.5t-31.5 80.5q0 80 53.5 130.5t153.5 49.5l262 -4q38 -1 60 15.5t49 64.5q63 0 97 -29t34 -78z" />
    <glyph glyph-name="odieresis" unicode="&#xf6;" horiz-adv-x="999" 
d="M958 451q0 -153 -65.5 -259.5t-174 -156t-249.5 -49.5q-211 0 -319.5 97t-108.5 304q0 220 134 344.5t360 124.5q211 0 317 -98t106 -307zM662 426q0 123 -30.5 177t-117.5 54q-93 0 -131.5 -58.5t-38.5 -192.5q0 -137 32 -184.5t124 -47.5q82 0 122 59t40 193zM442 1112
q0 -61 -36 -98t-117 -37q-72 0 -107 30t-35 95q0 61 41.5 98t116.5 37q71 0 104 -34t33 -91zM877 1112q0 -61 -36.5 -98t-117.5 -37q-72 0 -106.5 30t-34.5 95q0 61 41 98t116 37q71 0 104.5 -34t33.5 -91z" />
    <glyph glyph-name="divide" unicode="&#xf7;" 
d="M672 844q0 -45 -33 -78q-29 -33 -78 -33t-78 33q-32 28 -32 78t32 78q28 32 78 32t78 -32q33 -33 33 -78zM37 575h1050v-98h-1050v98zM674 205q0 -42 -33 -80q-38 -33 -80 -33q-40 0 -78 33q-32 37 -32 80q0 41 32 78q32 32 78 32q48 0 80 -32q33 -38 33 -78z" />
    <glyph glyph-name="oslash" unicode="&#xf8;" horiz-adv-x="978" 
d="M942 451q0 -224 -134 -344.5t-349 -120.5q-9 0 -30 1t-30 1l-65 -146q-21 -51 -84 -51q-75 0 -105 51l84 189q-93 35 -142.5 127t-49.5 229q0 221 131 345t356 124q46 0 64 -2l49 115q22 46 41 63t57 17q31 0 63 -16t50 -44l-84 -180q178 -88 178 -358zM467 143
q12 -2 22 -2q107 0 151 72t44 213q0 97 -18 160zM299 403q0 -103 20 -167l197 454h-10q-110 0 -158.5 -66.5t-48.5 -220.5z" />
    <glyph glyph-name="ugrave" unicode="&#xf9;" horiz-adv-x="1107" 
d="M649 1028q0 -37 -23 -65.5t-61 -40.5l-395 198q-61 31 -61 109q0 46 33 86t85 55l377 -262q45 -33 45 -80zM981 827q-55 25 -145 25q-151 0 -154 -90q-4 -61 -4 -221v-271q-55 -82 -150 -82q-65 0 -86.5 28.5t-21.5 94.5q0 29 3 184t3 189q0 103 -44.5 134.5t-180.5 31.5
q-101 0 -144 -28t-43 -91q0 -40 19 -74l96 -2q-6 -327 -6 -401q0 -144 72.5 -205t218.5 -61q118 0 191 43.5t104 150.5l-23 -164q64 -28 205 -28q122 0 166.5 26t44.5 86q0 51 -19 82l-104 4z" />
    <glyph glyph-name="uacute" unicode="&#xfa;" horiz-adv-x="1107" 
d="M981 827q-55 25 -145 25q-151 0 -154 -90q-4 -61 -4 -221v-271q-55 -82 -150 -82q-65 0 -86.5 28.5t-21.5 94.5q0 29 3 184t3 189q0 103 -44.5 134.5t-180.5 31.5q-101 0 -144 -28t-43 -91q0 -40 19 -74l96 -2q-6 -327 -6 -401q0 -144 72.5 -205t218.5 -61
q118 0 191 43.5t104 150.5l-23 -164q64 -28 205 -28q122 0 166.5 26t44.5 86q0 51 -19 82l-104 4zM973 1229q0 -77 -62 -109l-397 -198q-38 12 -61 40.5t-23 65.5q0 46 47 80l375 262q52 -15 86.5 -55t34.5 -86z" />
    <glyph glyph-name="ucircumflex" unicode="&#xfb;" horiz-adv-x="1107" 
d="M981 827q-55 25 -145 25q-151 0 -154 -90q-4 -61 -4 -221v-271q-55 -82 -150 -82q-65 0 -86.5 28.5t-21.5 94.5q0 29 3 184t3 189q0 103 -44.5 134.5t-180.5 31.5q-101 0 -144 -28t-43 -91q0 -40 19 -74l96 -2q-6 -327 -6 -401q0 -144 72.5 -205t218.5 -61
q118 0 191 43.5t104 150.5l-23 -164q64 -28 205 -28q122 0 166.5 26t44.5 86q0 51 -19 82l-104 4zM870 1063q-1 -52 -40 -81.5t-103 -29.5q-41 0 -64.5 9.5t-41.5 37.5l-99 162l-143 -205q-61 0 -97 26.5t-36 78.5q0 45 45 102l96 125q34 44 74 62t119 18q49 0 102 -20z" />
    <glyph glyph-name="udieresis" unicode="&#xfc;" horiz-adv-x="1107" 
d="M981 827q-55 25 -145 25q-151 0 -154 -90q-4 -61 -4 -221v-271q-55 -82 -150 -82q-65 0 -86.5 28.5t-21.5 94.5q0 29 3 184t3 189q0 103 -44.5 134.5t-180.5 31.5q-101 0 -144 -28t-43 -91q0 -40 19 -74l96 -2q-6 -327 -6 -401q0 -144 72.5 -205t218.5 -61
q118 0 191 43.5t104 150.5l-23 -164q64 -28 205 -28q122 0 166.5 26t44.5 86q0 51 -19 82l-104 4zM479 1112q0 -135 -151 -135q-72 0 -107 30t-35 95q0 62 41 98.5t117 36.5q71 0 103 -34t32 -91zM913 1112q0 -135 -151 -135q-72 0 -106.5 30t-34.5 95q0 62 40.5 98.5
t116.5 36.5q71 0 103 -34t32 -91z" />
    <glyph glyph-name="yacute" unicode="&#xfd;" horiz-adv-x="960" 
d="M365 758l155 -477l221 553q35 14 93 14q52 0 80 -26t28 -74q0 -61 -25 -133.5t-114 -262.5q-46 -98 -119.5 -240t-114.5 -214q-69 -122 -123 -180.5t-121.5 -83.5t-177.5 -25q-75 0 -112 32t-37 80q0 60 29 93h81.5t63 4t49 6.5t37.5 15t32 21t28 33t30 43.5t35 59
q-39 3 -63.5 28t-45.5 80l-194 547l-55 4q-19 31 -19 82q0 58 45 85.5t142 27.5q92 0 122.5 -17t49.5 -75zM977 1260q0 -77 -62 -109l-397 -199q-37 12 -59.5 40.5t-22.5 66.5q0 48 45 78l377 264q51 -15 85 -55t34 -86z" />
    <glyph glyph-name="thorn" unicode="&#xfe;" horiz-adv-x="1040" 
d="M1006 451q0 -222 -129.5 -343.5t-341.5 -121.5q-78 0 -136 16v-395q-48 -23 -147 -23q-76 0 -112.5 20t-39.5 64q-4 126 -4 740q0 606 6 741q6 100 152 100q92 0 147 -22v-506q75 131 263 131q176 0 259 -94.5t83 -306.5zM711 418q0 120 -36 176.5t-126 56.5
q-94 0 -150 -86v-381q60 -14 127 -14q97 0 141 61.5t44 186.5z" />
    <glyph glyph-name="ydieresis" unicode="&#xff;" horiz-adv-x="960" 
d="M365 758l155 -477l221 553q35 14 93 14q52 0 80 -26t28 -74q0 -61 -25 -133.5t-114 -262.5q-46 -98 -119.5 -240t-114.5 -214q-69 -122 -123 -180.5t-121.5 -83.5t-177.5 -25q-75 0 -112 32t-37 80q0 60 29 93h81.5t63 4t49 6.5t37.5 15t32 21t28 33t30 43.5t35 59
q-39 3 -63.5 28t-45.5 80l-194 547l-55 4q-19 31 -19 82q0 58 45 85.5t142 27.5q92 0 122.5 -17t49.5 -75zM473 1112q0 -61 -36.5 -98t-117.5 -37q-72 0 -106.5 30t-34.5 95q0 61 42 98t118 37q70 0 102.5 -34t32.5 -91zM907 1112q0 -61 -36 -98t-117 -37q-72 0 -107 30
t-35 95q0 61 42 98t118 37q70 0 102.5 -34t32.5 -91z" />
    <glyph glyph-name="dotlessi" unicode="&#x131;" horiz-adv-x="557" 
d="M233 850q197 0 197 -80v-758q-43 -22 -147 -22q-73 0 -111 18.5t-41 65.5q-4 126 -4 307l2 270l-104 4q-19 31 -19 82q0 59 51.5 86t175.5 27z" />
    <glyph glyph-name="Lslash" unicode="&#x141;" horiz-adv-x="948" 
d="M928 135q0 -38 -10.5 -61t-33.5 -39.5t-72.5 -24.5t-112.5 -11t-169 -3q-169 0 -245.5 7.5t-102 24t-32.5 54.5q-9 62 -9 373l-45 -13q-35 14 -54 44t-19 61q0 37 19.5 57t61.5 35l37 12l2 269l-106 4q-19 34 -19 80q0 57 52 83.5t176 26.5q211 0 211 -72v-280l264 90
q27 -13 43 -38.5t16 -53.5q0 -58 -25 -92.5t-98 -57.5l-200 -61l-2 -348h458q15 -27 15 -66z" />
    <glyph glyph-name="lslash" unicode="&#x142;" horiz-adv-x="528" 
d="M555 858q0 -53 -22 -84t-89 -51l-47 -14v-529l103 -2q14 -25 14 -67q0 -64 -55 -92.5t-189 -28.5q-98 0 -135.5 21.5t-38.5 82.5q-4 188 -4 527l-26 -7q-31 13 -48.5 40t-17.5 55q0 35 18 53t56 31l18 6q3 269 6 350q6 100 152 100q92 0 147 -22v-324l107 39
q23 -12 37 -35t14 -49z" />
    <glyph glyph-name="OE" unicode="&#x152;" horiz-adv-x="1726" 
d="M1683 1036q0 -135 -182 -135h-356v-250h438q19 -34 19 -76q0 -64 -41.5 -94t-139.5 -30h-276v-250h510q14 -25 14 -66q0 -59 -33 -87t-120.5 -40t-270.5 -12q-217 0 -295.5 10t-101.5 43q-120 -63 -264 -63q-129 0 -224.5 26.5t-167 85.5t-107.5 159.5t-36 242.5
q0 286 155.5 454t438.5 168q129 0 223 -47q45 31 176 31h498l117 4q26 -33 26 -74zM834 821q-27 39 -75 56.5t-132 17.5q-143 0 -206 -94.5t-63 -274.5q0 -186 56.5 -258.5t195.5 -72.5q140 0 221 100v231z" />
    <glyph glyph-name="oe" unicode="&#x153;" horiz-adv-x="1531" 
d="M1493 561q0 -106 -23 -147t-63 -41h-471q1 -45 8 -75.5t25.5 -56.5t55.5 -38.5t93 -12.5q67 0 148.5 17.5t144.5 48.5q30 -10 47 -38.5t17 -59.5q0 -84 -113 -127t-313 -43q-201 0 -306 86q-64 -48 -125 -68t-149 -20q-211 0 -319.5 97t-108.5 304q0 220 134 344.5
t360 124.5q96 0 159.5 -22.5t110.5 -69.5q131 92 325 92q167 0 265 -80.5t98 -214.5zM1198 541q0 61 -20 91t-80 30q-139 0 -156 -152h254q2 10 2 31zM662 571q-13 38 -50 62t-98 24q-93 0 -131.5 -58.5t-38.5 -192.5q0 -137 32 -184.5t124 -47.5q49 0 87 17.5t56 44.5
q-16 78 -16 147q0 102 35 188z" />
    <glyph glyph-name="Scaron" unicode="&#x160;" horiz-adv-x="964" 
d="M920 358q0 -76 -28.5 -142t-84.5 -117.5t-147.5 -81t-208.5 -29.5q-214 0 -311 43t-97 133q0 38 23 72.5t65 50.5q61 -38 139.5 -63t149.5 -25q194 0 194 100q0 39 -48 62.5t-210 68.5q-127 37 -198.5 108.5t-71.5 194.5q0 167 127.5 275t351.5 108q179 0 268 -50
t89 -130q0 -92 -97 -117q-29 29 -107.5 51.5t-144.5 22.5q-100 0 -150 -29t-50 -76q0 -32 22 -52.5t77 -41.5t177 -57q139 -40 205 -107.5t66 -171.5zM190 1538q1 52 40.5 82.5t103.5 30.5q41 0 64.5 -10t41.5 -39l99 -160l143 203q62 0 97.5 -26t35.5 -79q0 -45 -45 -102
l-96 -125q-34 -44 -73.5 -61t-119.5 -17q-54 0 -102 18z" />
    <glyph glyph-name="scaron" unicode="&#x161;" horiz-adv-x="835" 
d="M385 188q70 0 94.5 13t24.5 37q0 20 -9.5 30.5t-43 19t-107.5 17.5q-145 20 -211.5 79.5t-66.5 166.5q0 129 109 216t302 87q157 0 237.5 -41.5t80.5 -112.5q0 -40 -20 -73t-62 -47q-95 57 -248 57q-123 0 -123 -57q0 -30 24 -42t109 -22q172 -24 241.5 -79t69.5 -161
q0 -130 -96.5 -209t-298.5 -79q-354 0 -354 164q0 82 80 114q43 -31 124 -54.5t144 -23.5zM127 1257q1 52 40.5 82.5t102.5 30.5q41 0 65 -10t42 -39l98 -160l143 203q62 0 98 -25.5t36 -78.5q0 -46 -45 -103l-97 -125q-34 -44 -73 -61t-119 -17q-53 0 -103 19z" />
    <glyph glyph-name="Ydieresis" unicode="&#x178;" horiz-adv-x="1073" 
d="M96 918l-63 2q-13 26 -13 71q0 65 56 91t182 26q56 0 85.5 -18.5t64.5 -75.5l176 -291l264 375q42 12 94 12q111 0 111 -92q0 -39 -18.5 -81.5t-73.5 -115.5l-254 -338v-469q-44 -24 -160 -24q-134 0 -146 73q-8 45 -8 400zM528 1362q0 -135 -151 -135q-72 0 -106.5 30
t-34.5 95q0 62 40.5 98.5t116.5 36.5q70 0 102.5 -34.5t32.5 -90.5zM963 1362q0 -135 -152 -135q-72 0 -106.5 30t-34.5 95q0 62 40.5 98.5t116.5 36.5q71 0 103.5 -34.5t32.5 -90.5z" />
    <glyph glyph-name="Zcaron" unicode="&#x17d;" horiz-adv-x="993" 
d="M240 1112h682q39 -48 39 -131q0 -106 -80 -201l-486 -573h549q19 -32 19 -78q0 -66 -45 -98.5t-146 -32.5q-377 4 -549 4h-143q-19 21 -31 54t-12 61q0 52 14 89.5t55 88.5l504 606h-536q-21 30 -21 84q0 127 187 127zM197 1520q1 52 39.5 81t103.5 29q40 0 64 -9.5
t42 -37.5l99 -162l143 205q61 0 97 -26t36 -78q0 -46 -45 -103l-96 -127q-34 -42 -74.5 -60t-118.5 -18q-46 0 -104 21z" />
    <glyph glyph-name="zcaron" unicode="&#x17e;" horiz-adv-x="919" 
d="M879 123q0 -60 -44.5 -94.5t-134.5 -34.5q-349 6 -548 6h-70q-37 43 -37 106q0 34 11.5 59t41.5 60l375 414h-379q-26 29 -26 94q0 111 155 111h615q12 -17 20 -45.5t8 -50.5q0 -36 -14 -67t-51 -73l-361 -413h420q19 -38 19 -72zM164 1239q1 52 40 81.5t103 29.5
q40 0 64.5 -9.5t42.5 -37.5l98 -162l143 205q61 0 97 -26.5t36 -78.5q0 -45 -45 -102l-96 -127q-35 -43 -74 -60.5t-118 -17.5q-50 0 -103 20z" />
    <glyph glyph-name="florin" unicode="&#x192;" horiz-adv-x="788" 
d="M559 840l176 2q19 -27 19 -88q0 -109 -123 -109l-99 2l-55 -481q-33 -293 -140.5 -416t-316.5 -123q-141 0 -141 111q0 52 19 84q98 2 148.5 12t76.5 35q14 13 23 61.5t30 202.5l70 516h-107q-18 27 -18 72q0 64 38 90.5t115 26.5q43 257 144 359.5t311 102.5
q84 0 121 -31t37 -79q0 -63 -29 -103q-62 5 -90 5q-45 0 -71.5 -2t-50 -13.5t-35 -25t-22.5 -46t-16.5 -67t-13.5 -98.5z" />
    <glyph glyph-name="circumflex" unicode="&#x2c6;" horiz-adv-x="1026" 
d="M799 1063q-1 -52 -40.5 -81.5t-103.5 -29.5q-40 0 -64 9.5t-42 37.5l-98 162l-144 -205q-61 0 -97 26.5t-36 78.5q0 45 45 102l96 125q34 44 74 62t119 18q49 0 102 -20z" />
    <glyph glyph-name="caron" unicode="&#x2c7;" horiz-adv-x="1026" 
d="M166 1239q1 52 40 81.5t103 29.5q40 0 64.5 -9.5t42.5 -37.5l98 -162l143 205q61 0 97.5 -26.5t36.5 -78.5q0 -44 -46 -102l-96 -125q-35 -44 -74 -62t-118 -18q-50 0 -103 20z" />
    <glyph glyph-name="breve" unicode="&#x2d8;" horiz-adv-x="995" 
d="M834 1194q0 -92 -97 -154.5t-245 -62.5q-149 0 -247 62t-98 161q0 49 37 81.5t92 35.5q55 -56 105 -85.5t108 -29.5q124 0 232 113q54 -9 83.5 -40t29.5 -81z" />
    <glyph glyph-name="dotaccent" unicode="&#x2d9;" horiz-adv-x="641" 
d="M477 1112q0 -64 -39 -103.5t-125 -39.5q-76 0 -112.5 31.5t-36.5 101.5q0 65 43.5 105t124.5 40q75 0 110 -37.5t35 -97.5z" />
    <glyph glyph-name="ring" unicode="&#x2da;" horiz-adv-x="792" 
d="M621 1161q0 -99 -62 -155t-178 -56q-108 0 -160.5 44.5t-52.5 152.5q0 95 65 153t177 58q107 0 159 -51.5t52 -145.5zM467 1153q0 72 -68 72q-37 0 -57 -21.5t-20 -56.5q0 -72 69 -72q76 0 76 78z" />
    <glyph glyph-name="ogonek" unicode="&#x2db;" horiz-adv-x="761" 
d="M616 -258q0 -54 -58.5 -85.5t-176.5 -31.5q-84 0 -127 39t-43 125q0 78 45 254l211 -18q-18 -126 -18 -144q0 -76 79 -76q8 0 66 5q22 -22 22 -68z" />
    <glyph glyph-name="tilde" unicode="&#x2dc;" horiz-adv-x="968" 
d="M836 1206q0 -84 -57.5 -131t-155.5 -45l-258 4q-41 0 -62 -17t-49 -71q-64 0 -95.5 30.5t-31.5 80.5q0 80 53.5 130.5t153.5 49.5l262 -4q38 -1 60 15.5t49 64.5q63 0 97 -29t34 -78z" />
    <glyph glyph-name="hungarumlaut" unicode="&#x2dd;" horiz-adv-x="1159" 
d="M612 1260q0 -78 -61 -109l-395 -199q-38 12 -61 41t-23 66q0 48 45 78l377 264q52 -15 85 -55t33 -86zM1087 1260q0 -78 -61 -109l-395 -199q-38 12 -61 41t-23 66q0 48 45 78l377 264q52 -15 85 -55t33 -86z" />
    <glyph glyph-name="Delta" unicode="&#x394;" horiz-adv-x="1253" 
d="M1227 0h-1200l626 1386zM989 82l-397 967l-440 -967h837z" />
    <glyph glyph-name="Delta" unicode="&#x2206;" horiz-adv-x="1253" 
d="M1227 0h-1200l626 1386zM989 82l-397 967l-440 -967h837z" />
    <glyph glyph-name="Omega" unicode="&#x3a9;" horiz-adv-x="1572" 
d="M1518 0h-568l25 279q140 59 207 167q65 107 65 308q0 271 -131 417q-134 146 -334 146q-194 0 -327 -148q-136 -148 -136 -401q0 -203 70 -319q65 -116 207 -170l25 -279h-566v279h35q3 -59 33 -82q43 -35 137 -35h270v69q-206 60 -325 209q-115 148 -115 348
q0 249 186 426q187 172 506 172q197 0 359 -73q165 -74 252 -213q88 -140 88 -312q0 -206 -121 -360q-124 -154 -318 -197l-8 -69h275q93 0 129 26q35 27 41 91h39v-279z" />
    <glyph glyph-name="Omega" unicode="&#x2126;" horiz-adv-x="1572" 
d="M1518 0h-568l25 279q140 59 207 167q65 107 65 308q0 271 -131 417q-134 146 -334 146q-194 0 -327 -148q-136 -148 -136 -401q0 -203 70 -319q65 -116 207 -170l25 -279h-566v279h35q3 -59 33 -82q43 -35 137 -35h270v69q-206 60 -325 209q-115 148 -115 348
q0 249 186 426q187 172 506 172q197 0 359 -73q165 -74 252 -213q88 -140 88 -312q0 -206 -121 -360q-124 -154 -318 -197l-8 -69h275q93 0 129 26q35 27 41 91h39v-279z" />
    <glyph glyph-name="pi" unicode="&#x3c0;" 
d="M1049 915v-145h-242q-35 -231 -35 -438q0 -102 37 -148q36 -45 88 -45q45 0 76 31q31 27 41 86h35q-15 -153 -76 -221q-57 -66 -131 -66q-78 0 -129 72q-54 73 -54 264q0 134 39 465h-260q-30 -525 -76 -661q-43 -140 -120 -140q-35 0 -60 25q-22 19 -22 59q0 29 8 45
q9 23 45 72q62 83 86 172q43 148 55 428h-45q-69 0 -108 -22q-56 -36 -107 -121h-39q55 172 131 239q55 49 160 49h703z" />
    <glyph glyph-name="endash" unicode="&#x2013;" horiz-adv-x="1024" 
d="M80 356q-17 23 -17 86q0 62 17 86h864q17 -23 17 -84q0 -64 -17 -88h-864z" />
    <glyph glyph-name="emdash" unicode="&#x2014;" horiz-adv-x="2048" 
d="M-2 356q-16 21 -16 86q0 64 16 86h2052q16 -21 16 -84q0 -66 -16 -88h-2052z" />
    <glyph glyph-name="quoteleft" unicode="&#x2018;" horiz-adv-x="630" 
d="M82 829q0 134 91 226t226 92q84 0 84 -66q0 -14 -4 -24q-86 -39 -119.5 -74t-33.5 -76q0 -92 172 -108q10 -23 10 -64q0 -69 -46 -113t-134 -44q-121 0 -183.5 67t-62.5 184z" />
    <glyph glyph-name="quoteright" unicode="&#x2019;" horiz-adv-x="630" 
d="M549 907q0 -134 -91.5 -225.5t-224.5 -91.5q-83 0 -83 65q0 15 2 25q87 39 120 73.5t33 75.5q0 93 -170 109q-10 23 -10 63q0 69 46 113.5t134 44.5q121 0 182.5 -67t61.5 -185z" />
    <glyph glyph-name="quotesinglbase" unicode="&#x201a;" horiz-adv-x="630" 
d="M549 51q0 -134 -91.5 -225.5t-224.5 -91.5q-83 0 -83 65q0 15 2 25q87 39 120 73.5t33 75.5q0 93 -170 109q-10 23 -10 63q0 69 46 113.5t134 44.5q121 0 182.5 -67t61.5 -185z" />
    <glyph glyph-name="quotedblleft" unicode="&#x201c;" horiz-adv-x="1112" 
d="M563 829q0 134 91.5 226t226.5 92q84 0 84 -66q0 -14 -4 -24q-87 -39 -120.5 -74t-33.5 -76q0 -92 172 -108q10 -23 10 -64q0 -69 -46 -113t-134 -44q-121 0 -183.5 67t-62.5 184zM82 829q0 134 91 226t226 92q84 0 84 -66q0 -14 -4 -24q-86 -39 -119.5 -74t-33.5 -76
q0 -92 172 -108q10 -23 10 -64q0 -69 -46 -113t-134 -44q-121 0 -183.5 67t-62.5 184z" />
    <glyph glyph-name="quotedblright" unicode="&#x201d;" horiz-adv-x="1112" 
d="M549 907q0 -134 -91.5 -225.5t-224.5 -91.5q-83 0 -83 65q0 15 2 25q87 39 120 73.5t33 75.5q0 93 -170 109q-10 23 -10 63q0 69 46 113.5t134 44.5q121 0 182.5 -67t61.5 -185zM1030 907q0 -134 -91 -225.5t-224 -91.5q-84 0 -84 65q0 15 2 25q87 39 120 73.5t33 75.5
q0 93 -170 109q-10 23 -10 63q0 69 46 113.5t134 44.5q121 0 182.5 -67t61.5 -185z" />
    <glyph glyph-name="quotedblbase" unicode="&#x201e;" horiz-adv-x="1112" 
d="M549 51q0 -134 -91.5 -225.5t-224.5 -91.5q-83 0 -83 65q0 15 2 25q87 39 120 73.5t33 75.5q0 93 -170 109q-10 23 -10 63q0 69 46 113.5t134 44.5q121 0 182.5 -67t61.5 -185zM1030 51q0 -134 -91 -225.5t-224 -91.5q-84 0 -84 65q0 15 2 25q87 39 120 73.5t33 75.5
q0 93 -170 109q-10 23 -10 63q0 69 46 113.5t134 44.5q121 0 182.5 -67t61.5 -185z" />
    <glyph glyph-name="dagger" unicode="&#x2020;" horiz-adv-x="1083" 
d="M995 614q0 -51 -26 -104l-299 14h-264l-297 -14q-27 45 -27 104q0 45 20 95l289 -2l-26 315q20 52 61 74t119 22q86 0 125.5 -23t48.5 -71l-35 -317l291 2q20 -50 20 -95zM707 387l-64 -661q-4 -56 -33 -80.5t-84 -24.5q-61 0 -100 29l-57 735q33 94 168 94
q152 0 170 -92z" />
    <glyph glyph-name="daggerdbl" unicode="&#x2021;" horiz-adv-x="1083" 
d="M995 614q0 -51 -26 -104l-299 14h-264l-297 -14q-27 45 -27 104q0 45 20 95l289 -2l-26 315q20 52 61 74t119 22q86 0 125.5 -23t48.5 -71l-35 -317l291 2q20 -50 20 -95zM82 285q0 45 27 104l299 -14h264l297 14q26 -43 26 -104q0 -45 -20 -95l-289 3l27 -316
q-20 -52 -61.5 -74t-119.5 -22q-86 0 -125.5 23t-48.5 71l35 318l-291 -3q-20 50 -20 95z" />
    <glyph glyph-name="bullet" unicode="&#x2022;" horiz-adv-x="733" 
d="M606 467q0 -100 -62.5 -162.5t-185.5 -62.5q-229 0 -229 209q0 93 67 156t183 63q109 0 168 -56t59 -147z" />
    <glyph glyph-name="ellipsis" unicode="&#x2026;" horiz-adv-x="2023" 
d="M512 154q0 -73 -44.5 -118.5t-137.5 -45.5q-82 0 -124 35t-42 116q0 73 48 116.5t140 43.5q160 0 160 -147zM1186 154q0 -73 -44.5 -118.5t-137.5 -45.5q-82 0 -124 35t-42 116q0 73 48 116.5t140 43.5q160 0 160 -147zM1860 154q0 -73 -45 -118.5t-138 -45.5
q-82 0 -124 35t-42 116q0 73 48.5 116.5t140.5 43.5q160 0 160 -147z" />
    <glyph glyph-name="perthousand" unicode="&#x2030;" horiz-adv-x="2248" 
d="M1231 823l-662 -860q-26 -35 -48.5 -51t-55.5 -16q-44 0 -78 19.5t-47 55.5l629 830q25 34 34 45t28 30t36 25t39 6q96 0 125 -84zM627 598q0 -141 -83 -212t-229 -71q-128 0 -196 61.5t-68 184.5q0 129 76 212t227 83q134 0 203.5 -66.5t69.5 -191.5zM463 586
q0 121 -105 121q-118 0 -118 -127q0 -119 108 -119q52 0 83.5 32.5t31.5 92.5zM1552 270q0 -141 -82.5 -211.5t-228.5 -70.5q-128 0 -196 61t-68 184q0 129 76 212t227 83q134 0 203 -66.5t69 -191.5zM1389 258q0 121 -105 121q-119 0 -119 -127q0 -119 109 -119
q52 0 83.5 32.5t31.5 92.5zM2198 270q0 -141 -83 -211.5t-229 -70.5q-128 0 -196 61t-68 184q0 129 76 212t227 83q134 0 203.5 -66.5t69.5 -191.5zM2034 258q0 121 -105 121q-119 0 -119 -127q0 -119 109 -119q52 0 83.5 32.5t31.5 92.5z" />
    <glyph glyph-name="guilsinglleft" unicode="&#x2039;" horiz-adv-x="673" 
d="M449 842q50 -1 78 -29.5t28 -69.5q0 -28 -8 -47.5t-31 -50.5l-156 -219l154 -219q41 -56 41 -103q0 -48 -33.5 -74t-81.5 -26l-266 307q-47 53 -47 111q0 56 43 102z" />
    <glyph glyph-name="guilsinglright" unicode="&#x203a;" horiz-adv-x="673" 
d="M227 2q-50 1 -79 29.5t-29 68.5q0 28 8 48.5t31 50.5l155 219l-153 219q-39 53 -39 102q0 48 32.5 74.5t79.5 26.5l269 -308q45 -54 45 -110t-41 -103z" />
    <glyph glyph-name="fraction" unicode="&#x2044;" horiz-adv-x="1269" 
d="M1219 1219l-922 -1209q-38 -49 -96 -49q-95 0 -129 76l899 1169q35 45 62.5 65.5t64.5 20.5q94 0 121 -73z" />
    <glyph glyph-name="fraction" unicode="&#x2215;" horiz-adv-x="1269" 
d="M1219 1219l-922 -1209q-38 -49 -96 -49q-95 0 -129 76l899 1169q35 45 62.5 65.5t64.5 20.5q94 0 121 -73z" />
    <glyph glyph-name="Euro" unicode="&#x20ac;" horiz-adv-x="944" 
d="M729 420q0 -110 -141 -107l-180 2q13 -64 59 -93t131 -29q118 0 229 51q30 -11 45 -39.5t15 -59.5q0 -157 -359 -157q-195 0 -297.5 82t-117.5 252h-66q-27 34 -27 88q0 41 28 65.5t75 26.5q35 167 165 259.5t330 92.5q132 0 197.5 -36t65.5 -97q0 -84 -62 -113
q-95 39 -209 39q-91 0 -141 -34.5t-63 -110.5h182l117 2q24 -32 24 -84z" />
    <glyph glyph-name="trademark" unicode="&#x2122;" horiz-adv-x="1507" 
d="M1415 1077l-6 -80v-450q-41 -12 -82 -12q-47 0 -67.5 12.5t-20.5 44.5v268q-103 -200 -121 -235q-32 -19 -78 -19q-40 0 -57 8t-29 33l-100 213v-313q-30 -10 -63 -10q-41 0 -59 8t-21 30q-9 43 -9 220q0 59 5 182h-48q-14 19 -14 53q0 41 41 60.5t133 19.5
q106 0 137 -61l115 -228l129 236q16 29 36.5 42t57.5 13q80 0 121 -35zM606 1051q0 -46 -26 -65t-80 -19h-49v-414q-32 -18 -103 -18q-56 0 -77.5 13.5t-24.5 45.5q-4 58 -4 197q0 37 1 95.5t1 84.5h-133q-19 27 -19 63q0 72 107 72h290l97 4q20 -25 20 -59z" />
    <glyph glyph-name="partialdiff" unicode="&#x2202;" horiz-adv-x="1011" 
d="M930 717q12 114 12 184q0 180 -94 281q-94 98 -252 98q-105 0 -176 -41q-70 -40 -125 -119h-45q76 159 166 230q85 71 215 71q89 0 174 -49q89 -51 139 -158q51 -105 51 -294q0 -353 -153 -635q-172 -316 -439 -316q-154 0 -247 90q-90 90 -90 244q0 110 38 211
q37 105 103 184q68 80 131 121q65 43 139 68q67 20 139 20q82 0 150 -30q65 -30 108 -76q33 -37 56 -84zM913 629q-40 110 -116 168q-79 57 -170 57q-90 0 -178 -63q-86 -62 -152 -218q-64 -162 -64 -309q0 -114 56 -176q55 -61 139 -61q123 0 252 129q162 165 233 473z" />
    <glyph glyph-name="product" unicode="&#x220f;" horiz-adv-x="1685" 
d="M1239 1438h-795v-1448q0 -65 25 -107q19 -26 70 -41q40 -8 104 -8v-39h-598v39h37q87 0 125 35q37 37 37 121v1333q0 82 -37 119t-125 37h-37v37h1595v-37h-34q-88 0 -125 -37q-37 -34 -37 -119v-1333q0 -66 24 -107q20 -26 68 -41q27 -8 104 -8v-39h-598v39h35
q87 0 125 35q37 37 37 121v1448z" />
    <glyph glyph-name="summation" unicode="&#x2211;" horiz-adv-x="1460" 
d="M1356 -205h-1313v37l670 832l-670 817v37h1278l27 -338h-39q-18 139 -78 196q-60 60 -172 60h-740l562 -686l-629 -779h817q65 0 154 29q54 17 94 66q39 47 63 151l39 -6z" />
    <glyph glyph-name="minus" unicode="&#x2212;" horiz-adv-x="913" 
d="M831 436q0 -115 -147 -112l-573 8q-29 36 -29 94q0 43 30.5 69.5t82.5 26.5h487l123 4q26 -33 26 -90z" />
    <glyph glyph-name="radical" unicode="&#x221a;" 
d="M1051 1870h73l-313 -1948l-496 1020l-196 -90l-35 63l301 152l406 -823z" />
    <glyph glyph-name="infinity" unicode="&#x221e;" horiz-adv-x="1460" 
d="M653 668q68 155 150 215q79 61 221 61q161 0 272 -117q111 -114 111 -301q0 -180 -109 -301q-110 -119 -239 -119q-102 0 -185 74q-56 50 -153 213q-66 -126 -139 -178q-76 -55 -185 -55q-144 0 -243 102q-101 107 -101 266q0 164 92 267q91 102 215 102q85 0 152 -45
q68 -47 141 -184zM750 465q76 -155 147 -211q74 -53 166 -53q120 0 205 88q82 88 82 237t-86 244q-90 96 -197 96q-69 0 -119 -35q-51 -36 -94 -112q-27 -53 -104 -254zM625 590q-49 110 -113 162q-62 53 -154 53q-105 0 -178 -76q-71 -74 -71 -199q0 -133 71 -213
q70 -79 160 -79q94 0 168 86q47 56 117 266z" />
    <glyph glyph-name="integral" unicode="&#x222b;" horiz-adv-x="561" 
d="M201 948q6 344 22 598q24 185 82 252q57 66 129 66q50 0 88 -35q37 -34 37 -74q0 -47 -27 -74q-22 -28 -63 -28q-34 0 -78 35q-20 20 -39 20q-17 0 -28 -14q-13 -16 -13 -49q0 -21 11 -146q36 -395 36 -665q0 -31 -16 -588q-9 -297 -90 -400q-51 -65 -133 -65
q-53 0 -86 33t-33 88q0 43 25 71q27 27 65 27q41 0 70 -33q27 -30 49 -30q19 0 27 14q12 12 12 47q0 34 -10 119q-45 379 -37 831z" />
    <glyph glyph-name="approxequal" unicode="&#x2248;" 
d="M1024 874h49q-21 -161 -98 -241q-78 -78 -184 -78q-52 0 -113 20q-51 17 -197 97q-131 76 -205 76q-65 0 -116 -48q-50 -50 -62 -139h-47q21 164 99 242q77 80 176 80q46 0 123 -25q54 -18 208 -100q116 -64 193 -64q65 0 104 39q55 52 70 141zM1024 487h49
q-21 -161 -98 -241q-80 -80 -184 -80q-45 0 -113 22q-51 17 -197 97q-129 75 -205 75q-66 0 -116 -47q-50 -50 -62 -141h-47q22 167 99 242q77 80 176 80q46 0 123 -25q41 -12 208 -100q122 -64 193 -64q63 0 104 41q56 56 70 141z" />
    <glyph glyph-name="notequal" unicode="&#x2260;" 
d="M37 760h604l164 291h108l-161 -291h335v-96h-391l-153 -279h544v-94h-602l-163 -291h-109l164 291h-340v94h393l158 279h-551v96z" />
    <glyph glyph-name="lessequal" unicode="&#x2264;" 
d="M1067 1272v-111l-844 -416l844 -417v-107l-1008 500v49zM59 96h1008v-96h-1008v96z" />
    <glyph glyph-name="greaterequal" unicode="&#x2265;" 
d="M59 221v111l842 416l-842 417v107l1008 -500v-49zM59 96h1008v-96h-1008v96z" />
    <glyph glyph-name="lozenge" unicode="&#x25ca;" horiz-adv-x="1011" 
d="M549 1421l418 -712l-418 -709h-111l-391 709l391 712h111zM496 1325l-340 -616l340 -615l358 615z" />
    <glyph glyph-name="fi" unicode="&#xfb01;" horiz-adv-x="1191" 
d="M504 1268q91 0 130.5 -30.5t37.5 -86.5q0 -23 -9.5 -50.5t-21.5 -41.5q-27 6 -102 6q-85 0 -101 -37t-16 -184h174q6 -9 12 -33.5t6 -42.5q0 -56 -34.5 -89.5t-96.5 -33.5q-39 0 -57 2v-633q-47 -24 -143 -24q-71 0 -107 19.5t-39 66.5q-4 122 -4 223l2 346l-86 4
q-22 36 -22 90t25 79.5t91 29.5q0 160 40 253t116.5 130t204.5 37zM1083 1112q0 -65 -38.5 -104t-124.5 -39q-76 0 -113 31.5t-37 101.5q0 65 43.5 105t124.5 40q75 0 110 -37.5t35 -97.5zM879 850q196 0 196 -80v-758q-43 -22 -147 -22q-73 0 -111 18.5t-41 65.5
q-4 122 -4 307l2 270l-108 4q-19 31 -19 82q0 58 53.5 85.5t178.5 27.5z" />
    <glyph glyph-name="fl" unicode="&#xfb02;" horiz-adv-x="1153" 
d="M504 1268q91 0 130.5 -30.5t37.5 -86.5q0 -23 -9.5 -50.5t-21.5 -41.5q-27 6 -102 6q-85 0 -101 -37t-16 -184h180q6 -10 12.5 -34t6.5 -42q0 -56 -35 -89.5t-97 -33.5q-45 0 -63 2v-633q-47 -24 -143 -24q-71 0 -107 19.5t-39 66.5q-4 122 -4 223l2 346l-86 4
q-22 36 -22 90t25 79.5t91 29.5q0 160 40 253t116.5 130t204.5 37zM1026 180l102 -2q15 -27 15 -67q0 -64 -55 -92.5t-189 -28.5q-98 0 -135.5 21.5t-38.5 82.5q-4 190 -4 537q0 335 6 518q6 100 152 100q92 0 147 -22v-1047z" />
    <glyph glyph-name="NUL" horiz-adv-x="0" 
 />
    <glyph glyph-name="HT" horiz-adv-x="0" 
 />
    <glyph glyph-name="DC3" horiz-adv-x="1865" 
 />
    <glyph glyph-name="nbspace" horiz-adv-x="391" 
 />
    <glyph glyph-name="apple" horiz-adv-x="1417" 
d="M1386 1239q0 -165 -198 -213q-119 -31 -301 -35q-10 -39 -31.5 -85.5t-42.5 -74.5q-121 0 -195 -30q38 41 62.5 100.5t24.5 110.5q0 63 -30 102.5t-79 48.5q40 -11 65 -45.5t25 -66.5q0 -45 -16 -74q-102 -19 -162 -70q-54 9 -87.5 47.5t-33.5 92.5q0 52 40.5 87
t102.5 35q38 0 54 -2q-15 15 -15 47q0 43 34 69t95 26q55 0 97.5 -23t66.5 -57q99 36 198 91t154 103q82 -12 127 -63t45 -121zM1128 571q0 -71 -27.5 -129.5t-76 -99t-105 -68t-124.5 -45.5q-29 -4 -29 -20q0 -27 47 -27q64 0 111 33q73 -22 73 -98q0 -72 -76 -119
t-196 -47q-314 0 -483.5 146t-169.5 397q0 176 98 285.5t262 109.5q74 0 116.5 -25.5t53.5 -68.5q-57 -23 -110.5 -68t-85.5 -96q-64 -102 -64 -254q0 -65 21 -121t47 -59q-37 80 -37 192q0 128 57 225q62 100 170.5 151.5t235.5 51.5t209.5 -66t82.5 -180z" />
  </font>
</defs>
</svg>
