<svg xmlns="http://www.w3.org/2000/svg" xmlns:xlink="http://www.w3.org/1999/xlink" width="175" height="200" viewBox="0 0 175 200">
  <defs>
    <clipPath id="clip-path">
      <rect id="Rectangle_1513" data-name="Rectangle 1513" width="175" height="200" transform="translate(0.135)" fill="#111"/>
    </clipPath>
  </defs>
  <g id="t2_heading-icon6" transform="translate(-0.135)" opacity="0.1">
    <g id="Group_2213" data-name="Group 2213" clip-path="url(#clip-path)">
      <path id="Path_1293" data-name="Path 1293" d="M96.117,160.684l-.366.36-.933.467-25,12.5a9.418,9.418,0,0,1-4.192.989,9.376,9.376,0,0,1-8.386-13.567l12.508-25.017.59-1.076.266-.26A7.455,7.455,0,0,1,71.5,134l78.5-78.5V9.375A9.386,9.386,0,0,0,140.625,0H9.375A9.386,9.386,0,0,0,0,9.375v181.25A9.386,9.386,0,0,0,9.375,200h131.25A9.386,9.386,0,0,0,150,190.625V107.007L97.254,159.754a7.45,7.45,0,0,1-1.137.93M21.875,25h43.75a3.125,3.125,0,0,1,0,6.25H21.875a3.125,3.125,0,0,1,0-6.25m0,18.75h68.75a3.125,3.125,0,0,1,0,6.25H21.875a3.125,3.125,0,0,1,0-6.25m0,18.75h68.75a3.125,3.125,0,0,1,0,6.25H21.875a3.125,3.125,0,0,1,0-6.25m0,18.75h68.75a3.125,3.125,0,1,1,0,6.25H21.875a3.125,3.125,0,1,1,0-6.25m0,18.75h68.75a3.125,3.125,0,0,1,0,6.25H21.875a3.125,3.125,0,0,1,0-6.25M18.75,121.875a3.123,3.123,0,0,1,3.125-3.125h43.75a3.125,3.125,0,0,1,0,6.25H21.875a3.123,3.123,0,0,1-3.125-3.125" fill="#111"/>
      <path id="Path_1294" data-name="Path 1294" d="M470.959,283.416l-12.5-12.5a3.123,3.123,0,0,0-4.419,0L375,349.956l16.919,16.919,79.04-79.041a3.124,3.124,0,0,0,0-4.419" transform="translate(-296.875 -213.75)" fill="#111"/>
      <path id="Path_1295" data-name="Path 1295" d="M300.908,704.551a3.125,3.125,0,0,0,3.607.586L327.5,693.644l-15.686-15.686-11.493,22.986a3.119,3.119,0,0,0,.586,3.607" transform="translate(-237.493 -536.717)" fill="#111"/>
    </g>
  </g>
</svg>
