<svg xmlns="http://www.w3.org/2000/svg" width="200" height="185" viewBox="0 0 200 185">
  <path id="t2_heading-icon5" d="M21.731,28.855h97.882a15.778,15.778,0,0,1,11.818,5.558,20.182,20.182,0,0,1,4.914,13.37v76.224a20.182,20.182,0,0,1-4.914,13.369,15.778,15.778,0,0,1-11.818,5.558H65.5L38.424,184.427a1.886,1.886,0,0,1-2.889-.218,2.491,2.491,0,0,1-.507-1.525h-.007V142.934H21.731a15.779,15.779,0,0,1-11.818-5.558A20.18,20.18,0,0,1,5,124.007V47.783a20.181,20.181,0,0,1,4.913-13.37,15.78,15.78,0,0,1,11.818-5.558M188.269,0H90.387A15.78,15.78,0,0,0,78.568,5.558a20.18,20.18,0,0,0-4.913,13.37h45.958a24.066,24.066,0,0,1,18.024,8.465,30.817,30.817,0,0,1,7.483,20.389v66.912l26.455,40.878a1.886,1.886,0,0,0,2.889-.218,2.491,2.491,0,0,0,.506-1.525h.007V114.079h13.291a15.779,15.779,0,0,0,11.818-5.558A20.181,20.181,0,0,0,205,95.152V18.928a20.181,20.181,0,0,0-4.913-13.37A15.78,15.78,0,0,0,188.269,0" transform="translate(-5)" fill="#111" fill-rule="evenodd" opacity="0.1"/>
</svg>
