<svg xmlns="http://www.w3.org/2000/svg" xmlns:xlink="http://www.w3.org/1999/xlink" width="200" height="200" viewBox="0 0 200 200">
  <defs>
    <clipPath id="clip-path">
      <rect id="Rectangle_1498" data-name="Rectangle 1498" width="200" height="200" fill="#111"/>
    </clipPath>
  </defs>
  <g id="t2_heading-icon2" opacity="0.1" clip-path="url(#clip-path)">
    <path id="Path_1269" data-name="Path 1269" d="M100,0A100,100,0,1,0,200,100,99.992,99.992,0,0,0,100,0m44.05,40.174,6.33,7.744L119.406,73.23l-6.328-7.742Zm-88.1,0L86.92,65.488,80.592,73.23,49.619,47.917ZM45.194,82.857a12.5,12.5,0,1,1,12.5,12.5,12.5,12.5,0,0,1-12.5-12.5M100,163.108a50,50,0,0,1-50-50H150a50,50,0,0,1-50,50m42.307-67.752a12.5,12.5,0,1,1,12.5-12.5,12.5,12.5,0,0,1-12.5,12.5" fill="#111"/>
  </g>
</svg>
