<svg xmlns="http://www.w3.org/2000/svg" xmlns:xlink="http://www.w3.org/1999/xlink" width="200" height="182" viewBox="0 0 200 182">
  <defs>
    <clipPath id="clip-path">
      <rect id="Rectangle_1497" data-name="Rectangle 1497" width="200" height="182" fill="#111"/>
    </clipPath>
  </defs>
  <g id="t2_heading-icon4" opacity="0.1" clip-path="url(#clip-path)">
    <path id="Path_1268" data-name="Path 1268" d="M197.065,148.987,118.742,11.006a21.461,21.461,0,0,0-37.484,0L2.935,148.987a22.1,22.1,0,0,0,0,22.007A21.349,21.349,0,0,0,21.673,182H178.327a21.349,21.349,0,0,0,18.738-11.006,22.1,22.1,0,0,0,0-22.007m-96.757,3.53h-.615a8.824,8.824,0,0,1-6.3-2.653,9.11,9.11,0,0,1-2.609-6.408,8.992,8.992,0,0,1,8.914-9.066h.615a8.823,8.823,0,0,1,6.3,2.654,9.128,9.128,0,0,1,2.609,6.412,8.987,8.987,0,0,1-8.914,9.061m9.344-69.022c0,.2-.012.409-.033.614L105.2,122.273a5.286,5.286,0,0,1-1.7,3.321,5.138,5.138,0,0,1-3.442,1.327,5.2,5.2,0,0,1-5.136-4.631L90.385,84.116a5.405,5.405,0,0,1-.037-.63V65.626a5.221,5.221,0,0,1,5.177-5.265h8.951a5.221,5.221,0,0,1,5.177,5.265Z" transform="translate(0)" fill="#111"/>
  </g>
</svg>
