<svg xmlns="http://www.w3.org/2000/svg" xmlns:xlink="http://www.w3.org/1999/xlink" width="200" height="184" viewBox="0 0 200 184">
  <defs>
    <clipPath id="clip-path">
      <rect id="Rectangle_1500" data-name="Rectangle 1500" width="200" height="184" fill="#111"/>
    </clipPath>
  </defs>
  <g id="t2_heading-icon3" opacity="0.1" clip-path="url(#clip-path)">
    <path id="Path_1272" data-name="Path 1272" d="M197.879,49.347l-16.4-44.889A6.912,6.912,0,0,0,174.946,0H24.314a6.912,6.912,0,0,0-6.528,4.458L1.381,49.347A22.7,22.7,0,0,0,13.376,77.815q.364.167.735.323a25.819,25.819,0,0,0,10.045,2.014A25.173,25.173,0,0,0,47.474,65a23.41,23.41,0,0,0,1.84-9.125A23.41,23.41,0,0,0,51.153,65a25.519,25.519,0,0,0,46.638,0,23.416,23.416,0,0,0,1.839-9.125A23.416,23.416,0,0,0,101.47,65a25.519,25.519,0,0,0,46.638,0,23.416,23.416,0,0,0,1.839-9.125A23.417,23.417,0,0,0,151.787,65,25.174,25.174,0,0,0,175.1,80.152a25.816,25.816,0,0,0,10.045-2.014q.371-.156.735-.323a22.7,22.7,0,0,0,11.995-28.468" transform="translate(0)" fill="#111"/>
    <path id="Path_1273" data-name="Path 1273" d="M177.152,235a34.447,34.447,0,0,1-50.317,0,34.447,34.447,0,0,1-50.317,0A34.14,34.14,0,0,1,51.361,245.92a34.619,34.619,0,0,1-10.045-1.478v96.68H143.675V260.233h44.41v80.888h24.269v-96.68a34.619,34.619,0,0,1-10.045,1.478A34.14,34.14,0,0,1,177.152,235m-66.6,68.624H65.584V260.234H110.55Z" transform="translate(-27.205 -157.554)" fill="#111"/>
  </g>
</svg>
