<svg id="t2s1_p7_2a" xmlns="http://www.w3.org/2000/svg" xmlns:xlink="http://www.w3.org/1999/xlink" width="66.327" height="79.77" viewBox="0 0 66.327 79.77">
  <defs>
    <clipPath id="clip-path">
      <rect id="Rectangle_1406" data-name="Rectangle 1406" width="66.327" height="79.77" fill="#fff"/>
    </clipPath>
  </defs>
  <g id="Group_1947" data-name="Group 1947" clip-path="url(#clip-path)">
    <path id="Path_1238" data-name="Path 1238" d="M324.181,15.532a7.766,7.766,0,1,1,7.766-7.766,7.766,7.766,0,0,1-7.766,7.766" transform="translate(-274.441)" fill="#fff"/>
    <path id="Path_1239" data-name="Path 1239" d="M108.785,15.532a7.766,7.766,0,1,1,7.766-7.766,7.766,7.766,0,0,1-7.766,7.766" transform="translate(-87.618)" fill="#fff"/>
    <rect id="Rectangle_1405" data-name="Rectangle 1405" width="1.507" height="13.938" transform="translate(35.204 65.831)" fill="#fff"/>
    <path id="Path_1240" data-name="Path 1240" d="M58.208,126.557H41.272a8.114,8.114,0,0,0-7.008,4.02,6.948,6.948,0,0,0-6.3-4.02h-13.6a6.949,6.949,0,0,0-6.53,4.572L.2,152.112a3.261,3.261,0,0,0,1.739,4.132,3.2,3.2,0,0,0,4.248-1.857l6.522-17.918h1.129v1.978L3.493,166.873H13.839V185.86a3.678,3.678,0,0,0,3.679,3.678H29.159V164.032l-7.953-7.953a2.611,2.611,0,0,1,3.693-3.692l6.131,6.131h9.855l6.131-6.131a2.611,2.611,0,0,1,3.692,3.692l-7.953,7.953v25.507H54.4a3.678,3.678,0,0,0,3.679-3.678V136.469h1.848v17.746a3.2,3.2,0,0,0,3.2,3.2h0a3.2,3.2,0,0,0,3.2-3.2V134.676a8.119,8.119,0,0,0-8.119-8.119M35.958,157.639a6.333,6.333,0,1,1,6.333-6.333,6.333,6.333,0,0,1-6.333,6.333" transform="translate(0 -109.769)" fill="#fff"/>
  </g>
</svg>
