<svg xmlns="http://www.w3.org/2000/svg" xmlns:xlink="http://www.w3.org/1999/xlink" width="84.898" height="84.898" viewBox="0 0 84.898 84.898">
  <defs>
    <clipPath id="clip-path">
      <rect id="Rectangle_1407" data-name="Rectangle 1407" width="39.661" height="80.403" transform="translate(0 0)" fill="#d0006f"/>
    </clipPath>
  </defs>
  <g id="t2s1_p7_1" transform="translate(56.854 -0.001) rotate(45)">
    <g id="Group_1949" data-name="Group 1949" transform="translate(0 0.001)" clip-path="url(#clip-path)">
      <path id="Path_1241" data-name="Path 1241" d="M415.013,156.558h17.036a.5.5,0,0,1,.484.638,15.115,15.115,0,0,1-1.541,3.582,1.226,1.226,0,0,1-1.083.62H417.152a1.226,1.226,0,0,1-1.083-.62,15.1,15.1,0,0,1-1.541-3.582.5.5,0,0,1,.484-.638m-.046-40.1h17.127a.5.5,0,0,1,.483.641,14.941,14.941,0,0,1-1.6,3.592,1.226,1.226,0,0,1-1.075.606H417.161a1.225,1.225,0,0,1-1.075-.606,14.932,14.932,0,0,1-1.6-3.592.5.5,0,0,1,.483-.641m2.189,69.514H429.9a1.226,1.226,0,0,1,1.075.606,14.884,14.884,0,0,1,1.6,3.592.5.5,0,0,1-.483.641h-17.13a.5.5,0,0,1-.483-.641,14.877,14.877,0,0,1,1.6-3.592,1.225,1.225,0,0,1,1.075-.606m0-40.1h12.755a1.226,1.226,0,0,1,1.083.62,15.134,15.134,0,0,1,1.541,3.582.5.5,0,0,1-.484.638H415.013a.5.5,0,0,1-.484-.638,15.131,15.131,0,0,1,1.541-3.581,1.226,1.226,0,0,1,1.083-.62" transform="translate(-403.699 -113.436)" fill="#d0006f" fill-rule="evenodd"/>
      <path id="Path_1242" data-name="Path 1242" d="M32.665,80.4h6.494a.5.5,0,0,0,.5-.5c.055-8.7-6.911-15.09-13.505-19.653,7.024-4.862,13.5-10.85,13.5-20.108-.3-9.445-6.255-14.979-13.5-19.991,6.688-4.628,13.467-10.9,13.5-19.648a.481.481,0,0,0-.146-.357A.485.485,0,0,0,39.154,0H32.665a.5.5,0,0,0-.5.495c-.105,6.626-7.451,11.5-12.33,14.906C14.953,11.993,7.608,7.121,7.5.5A.5.5,0,0,0,7,0H.5A.5.5,0,0,0,0,.5c-.1,8.682,6.94,15.11,13.508,19.656C6.485,25.015.013,31,.013,40.261c.3,9.444,6.257,14.98,13.5,19.991C6.826,64.876.041,71.131.009,79.9a.484.484,0,0,0,.147.357.485.485,0,0,0,.357.148H7a.5.5,0,0,0,.5-.495c.1-6.666,7.506-11.529,12.33-14.906,4.823,3.374,12.226,8.242,12.33,14.906a.5.5,0,0,0,.5.495M19.833,55.5C14.557,51.808,7.672,47.407,7.5,40.2,7.672,33,14.556,28.6,19.833,24.906,25.11,28.6,31.993,33,32.162,40.2c-.168,7.2-7.052,11.605-12.329,15.3" transform="translate(-0.001 -0.001)" fill="#d0006f" fill-rule="evenodd"/>
    </g>
  </g>
</svg>
