<svg xmlns="http://www.w3.org/2000/svg" xmlns:xlink="http://www.w3.org/1999/xlink" width="75.613" height="80.469" viewBox="0 0 75.613 80.469">
  <defs>
    <clipPath id="clip-path">
      <rect id="Rectangle_1512" data-name="Rectangle 1512" width="75.613" height="80.469" fill="#d0006f"/>
    </clipPath>
  </defs>
  <g id="t2s1_p7_3" clip-path="url(#clip-path)">
    <path id="Path_1291" data-name="Path 1291" d="M592.2,33.476a12.305,12.305,0,0,1,1.753,9.149,12.836,12.836,0,0,1-3.6,7.018,7.727,7.727,0,0,1-6.732,2.344,1.209,1.209,0,0,0-.42,2.381,8.981,8.981,0,0,0,1.567.137,10.415,10.415,0,0,0,6.827-2.721,7.914,7.914,0,0,1,.971,4.4c-.163,3.036-1.814,5.58-3.839,5.917l-.047.01c-.021,0-.041.008-.061.013l-.057.017c-.019.006-.039.012-.058.019l-.055.023c-.018.008-.037.015-.055.024s-.035.019-.053.028l-.051.028-.05.034-.046.032-.047.039c-.014.012-.028.024-.042.037s-.028.028-.043.042l-.039.041c-.013.014-.026.03-.038.046l-.035.045c-.011.016-.022.032-.032.048s-.021.032-.031.048-.019.034-.028.05-.018.035-.027.052-.016.035-.023.052l-.022.055c-.006.019-.012.037-.017.056s-.012.037-.017.056-.008.039-.012.059-.008.038-.011.057,0,.041-.006.062,0,.038-.005.057,0,.042,0,.064,0,.037,0,.057,0,.044.006.065,0,.03,0,.046a7.564,7.564,0,0,1-6.99,8.6h-.01a7.547,7.547,0,0,1-5.135-1.591,1.209,1.209,0,0,0-1.488,1.906,9.983,9.983,0,0,0,4.882,2.038A11.385,11.385,0,0,1,557.572,69.9c.016-.269.025-.541.025-.814s-.008-.548-.024-.812a11.425,11.425,0,0,1,7.169-9.779,1.209,1.209,0,1,0-.889-2.248,13.814,13.814,0,0,0-6.033,4.646q-.128.173-.249.35V31.282c.012-.082.026-.164.043-.246a4.58,4.58,0,0,1,3.907-3.608,1.209,1.209,0,0,0-.129-2.411,1.333,1.333,0,0,0-.147.009,6.982,6.982,0,0,0-3.675,1.61V10.122C557.57,4.541,561.433,0,566.181,0a8.554,8.554,0,0,1,7.527,5.209,12.3,12.3,0,0,0-4.786,2.029,1.209,1.209,0,1,0,1.385,1.982,9.705,9.705,0,0,1,5.148-1.783,8.854,8.854,0,0,1,1.619.081,8.487,8.487,0,0,1,4.159,1.819,10.537,10.537,0,0,1,3.159,10.978,12.72,12.72,0,0,0-14.831,8.543,1.209,1.209,0,0,0,2.3.738,10.319,10.319,0,0,1,12.926-6.674l.011,0,.018.006a10.3,10.3,0,0,1,7.159,9.848s0,.008,0,.011c0,.026,0,.052,0,.077s0,.029,0,.043.007.049.011.073,0,.03.007.046.01.042.016.063.009.036.014.053.012.033.018.05.015.041.024.061.013.027.019.041.021.046.034.068l.021.036c.014.022.027.045.041.066l.006.009M581.133,41.77a1.209,1.209,0,0,0-1.71-1.71c-.343.343-1.761.146-3.185-1.106a10.865,10.865,0,0,0,2.472-2.466,7.858,7.858,0,0,0,1.362-6.811,1.209,1.209,0,0,0-2.324.666c.939,3.277-1.792,6.943-6.088,8.173-3.376.967-6.825.168-8.583-1.987a1.209,1.209,0,0,0-1.361-.367h0a1.21,1.21,0,0,0-.485,1.927,9.782,9.782,0,0,0,7.617,3.245,12.674,12.674,0,0,0,3.48-.493,13.108,13.108,0,0,0,1.732-.632c.047.049.094.1.142.147a8.01,8.01,0,0,0,3.443,2.1,4.77,4.77,0,0,0,1.241.173,3.106,3.106,0,0,0,2.248-.86m-2.46,24.373a1.2,1.2,0,0,0-.38-.879c-1.432-1.377-4.035-1.739-6.638-.921-3.474,1.091-5.6,3.843-4.839,6.266a1.21,1.21,0,0,0,1.153.847,1.228,1.228,0,0,0,.363-.056,1.209,1.209,0,0,0,.791-1.515c-.3-.951,1.031-2.537,3.256-3.236,1.919-.6,3.587-.274,4.243.363a1.209,1.209,0,0,0,2.051-.868m-2.078-7.634c1.229-3.018.251-6.848-2.439-9.537a9.9,9.9,0,0,0-5.934-2.922,6.966,6.966,0,0,0-5.759,1.909,1.209,1.209,0,0,0,1.71,1.71c2-2,5.714-1.547,8.274,1.013,2.014,2.014,2.779,4.8,1.9,6.929a1.209,1.209,0,0,0,.068,1.06h0a1.209,1.209,0,0,0,2.175-.162m-3.118-41.944a1.209,1.209,0,0,0-1.71-1.71c-1.207,1.208-3.393,1.019-5.066-.365-.032-.029-.064-.057-.1-.083-.1-.089-.2-.182-.3-.281a4.474,4.474,0,0,1-1.294-4.611,1.208,1.208,0,0,0-.037-1h0a1.209,1.209,0,0,0-2.2.1,6.776,6.776,0,0,0,1.586,6.972,5.891,5.891,0,0,0-.552,3.559,4.338,4.338,0,0,0,2.114,3.135,1.206,1.206,0,0,0,1.647-.457,1.209,1.209,0,0,0-.457-1.647,2.526,2.526,0,0,1-.783-3.024,7.072,7.072,0,0,0,2.743.885,6.2,6.2,0,0,0,.646.033,5.23,5.23,0,0,0,3.768-1.5" transform="translate(-518.555)" fill="#d0006f"/>
    <path id="Path_1292" data-name="Path 1292" d="M36.6,31.282V61.243q-.122-.176-.249-.35a13.812,13.812,0,0,0-6.034-4.646,1.209,1.209,0,0,0-.889,2.248,11.425,11.425,0,0,1,7.17,9.786c-.015.264-.024.533-.024.8s.009.544.024.814a11.385,11.385,0,0,1-21.412,4.521,9.981,9.981,0,0,0,4.882-2.038,1.209,1.209,0,1,0-1.487-1.906,7.544,7.544,0,0,1-5.135,1.591h-.009a7.565,7.565,0,0,1-6.991-8.6c0-.015,0-.03,0-.046s0-.044.006-.065,0-.038,0-.057,0-.044,0-.064,0-.038,0-.057,0-.041-.007-.062-.007-.038-.011-.057-.007-.039-.012-.059L6.4,62.947c-.006-.019-.011-.037-.018-.056s-.015-.036-.021-.055-.015-.035-.023-.052-.018-.035-.027-.052l-.028-.051-.032-.048c-.01-.017-.021-.032-.033-.048s-.023-.03-.035-.045l-.037-.046-.039-.041c-.014-.014-.028-.029-.042-.042s-.028-.025-.043-.037l-.046-.039L5.93,62.3l-.05-.034-.05-.028c-.018-.01-.035-.02-.053-.028s-.036-.017-.055-.024-.036-.016-.055-.023-.039-.013-.059-.019l-.057-.017c-.02-.006-.04-.009-.06-.013l-.047-.01c-2.026-.338-3.676-2.882-3.84-5.917a7.908,7.908,0,0,1,.971-4.405A10.413,10.413,0,0,0,9.4,54.5a8.987,8.987,0,0,0,1.567-.137,1.209,1.209,0,1,0-.421-2.381,7.727,7.727,0,0,1-6.732-2.344,12.835,12.835,0,0,1-3.6-7.018,12.306,12.306,0,0,1,1.753-9.149l.006-.01c.015-.021.028-.042.041-.064s.016-.025.023-.038.022-.044.033-.066.014-.028.02-.042.015-.04.023-.06.013-.035.019-.052.009-.034.013-.051.012-.043.017-.064,0-.03.008-.044.008-.05.01-.075,0-.028,0-.043,0-.051,0-.077v-.011a10.3,10.3,0,0,1,7.16-9.848l.018-.006.01,0A10.319,10.319,0,0,1,22.3,29.595a1.209,1.209,0,0,0,2.3-.738A12.719,12.719,0,0,0,9.774,20.314,10.54,10.54,0,0,1,12.934,9.336a8.486,8.486,0,0,1,4.159-1.818,8.811,8.811,0,0,1,1.62-.081A9.7,9.7,0,0,1,23.86,9.22a1.209,1.209,0,0,0,1.385-1.982A12.307,12.307,0,0,0,20.46,5.209,8.553,8.553,0,0,1,27.987,0C32.735,0,36.6,4.541,36.6,10.122V26.636a6.987,6.987,0,0,0-3.675-1.61,1.327,1.327,0,0,0-.147-.009h0a1.209,1.209,0,0,0-.133,2.411,4.58,4.58,0,0,1,3.911,3.6c.017.086.032.169.044.249m-3.439,6.437a1.209,1.209,0,0,0-2.069-1.189c-1.759,2.155-5.208,2.954-8.584,1.987-4.295-1.23-7.026-4.9-6.088-8.173a1.209,1.209,0,0,0-2.324-.666,7.858,7.858,0,0,0,1.363,6.811,10.859,10.859,0,0,0,2.472,2.466c-1.424,1.253-2.842,1.45-3.185,1.107a1.209,1.209,0,0,0-1.71,1.71,3.105,3.105,0,0,0,2.248.86,4.766,4.766,0,0,0,1.241-.173,8,8,0,0,0,3.443-2.1l.141-.146a13.054,13.054,0,0,0,1.733.631,12.648,12.648,0,0,0,3.479.494,9.783,9.783,0,0,0,7.616-3.244,1.228,1.228,0,0,0,.222-.372M31.7,49.669a1.209,1.209,0,0,0,0-1.71,6.968,6.968,0,0,0-5.759-1.909,9.9,9.9,0,0,0-5.934,2.922c-2.687,2.687-3.666,6.511-2.442,9.529a1.209,1.209,0,1,0,2.248-.89c-.875-2.13-.11-4.914,1.9-6.929,2.561-2.56,6.272-3.014,8.274-1.013a1.208,1.208,0,0,0,1.71,0M29.818,15.584a6.783,6.783,0,0,0,1.594-6.949,1.209,1.209,0,1,0-2.251.883,4.473,4.473,0,0,1-1.294,4.61c-.1.1-.2.192-.3.281a1.145,1.145,0,0,0-.1.081c-1.673,1.384-3.859,1.573-5.067.365a1.209,1.209,0,0,0-1.709,1.71,5.23,5.23,0,0,0,3.767,1.5,6.231,6.231,0,0,0,.646-.033,7.075,7.075,0,0,0,2.743-.885,2.526,2.526,0,0,1-.783,3.024,1.209,1.209,0,0,0,.6,2.261,1.2,1.2,0,0,0,.594-.157,4.339,4.339,0,0,0,2.114-3.135,5.89,5.89,0,0,0-.552-3.559M27.352,70.609c.76-2.423-1.366-5.176-4.839-6.266-2.6-.816-5.2-.456-6.63.914a1.209,1.209,0,1,0,1.662,1.755c.656-.636,2.324-.965,4.243-.363,2.226.7,3.555,2.285,3.256,3.236a1.21,1.21,0,0,0,.792,1.516,1.224,1.224,0,0,0,.363.056,1.21,1.21,0,0,0,1.153-.847" transform="translate(0)" fill="#d0006f"/>
  </g>
</svg>
